STARTFONT 2.1
COMMENT 
COMMENT  Copyright (c) 2019, Léo Villeveygoux
COMMENT 
COMMENT  License to copy and distribute for both commercial and
COMMENT  non-commercial use is herby granted, provided this notice
COMMENT  is preserved.
COMMENT 
COMMENT  l@vgx.fr
COMMENT  http://git.vgx.fr/fonts
COMMENT 
COMMENT  Produced with bdfedit, a tcl/tk font editing program
COMMENT  written by Thomas A. Fine
FONT -gbdfed-sqaps-Medium-R-Normal--6-80-96-96-M-3-ISO10646-1
SIZE 8 96 96
FONTBOUNDINGBOX 6 8 0 -1
STARTPROPERTIES 12
FOUNDRY "gbdfed"
FAMILY_NAME "sqaps"
WEIGHT_NAME "Medium"
SLANT "R"
SETWIDTH_NAME "Normal"
SPACING "C"
CHARSET_REGISTRY "ISO-8859"
CHARSET_ENCODING "1"
COPYRIGHT "Designer of this font retains full rights under the law"
FONT_ASCENT 7
FONT_DESCENT 1
_GBDFED_INFO "Edited with gbdfed 1.6."
ENDPROPERTIES
CHARS 1089
STARTCHAR U+0020
ENCODING 32
SWIDTH 562 0
DWIDTH 6 0
BBX 6 8 0 -1
BITMAP
00
00
00
00
00
00
00
00
ENDCHAR
STARTCHAR U+0021
ENCODING 33
SWIDTH 562 0
DWIDTH 6 0
BBX 6 8 0 -1
BITMAP
00
20
20
20
20
00
20
00
ENDCHAR
STARTCHAR U+0022
ENCODING 34
SWIDTH 562 0
DWIDTH 6 0
BBX 6 8 0 -1
BITMAP
00
50
50
50
00
00
00
00
ENDCHAR
STARTCHAR U+0023
ENCODING 35
SWIDTH 562 0
DWIDTH 6 0
BBX 6 8 0 -1
BITMAP
00
00
50
F8
50
F8
50
00
ENDCHAR
STARTCHAR U+0024
ENCODING 36
SWIDTH 562 0
DWIDTH 6 0
BBX 6 8 0 -1
BITMAP
00
20
F8
A0
F8
28
F8
20
ENDCHAR
STARTCHAR U+0025
ENCODING 37
SWIDTH 562 0
DWIDTH 6 0
BBX 6 8 0 -1
BITMAP
00
00
48
08
F8
80
90
00
ENDCHAR
STARTCHAR U+0026
ENCODING 38
SWIDTH 562 0
DWIDTH 6 0
BBX 6 8 0 -1
BITMAP
00
00
70
50
F0
90
F8
10
ENDCHAR
STARTCHAR U+0027
ENCODING 39
SWIDTH 562 0
DWIDTH 6 0
BBX 6 8 0 -1
BITMAP
00
20
20
20
00
00
00
00
ENDCHAR
STARTCHAR U+0028
ENCODING 40
SWIDTH 562 0
DWIDTH 6 0
BBX 6 8 0 -1
BITMAP
00
20
60
40
40
40
60
20
ENDCHAR
STARTCHAR U+0029
ENCODING 41
SWIDTH 562 0
DWIDTH 6 0
BBX 6 8 0 -1
BITMAP
00
20
30
10
10
10
30
20
ENDCHAR
STARTCHAR U+002A
ENCODING 42
SWIDTH 562 0
DWIDTH 6 0
BBX 6 8 0 -1
BITMAP
00
00
70
20
F8
20
70
00
ENDCHAR
STARTCHAR U+002B
ENCODING 43
SWIDTH 562 0
DWIDTH 6 0
BBX 6 8 0 -1
BITMAP
00
00
20
20
F8
20
20
00
ENDCHAR
STARTCHAR U+002C
ENCODING 44
SWIDTH 562 0
DWIDTH 6 0
BBX 6 8 0 -1
BITMAP
00
00
00
00
00
00
20
60
ENDCHAR
STARTCHAR U+002D
ENCODING 45
SWIDTH 562 0
DWIDTH 6 0
BBX 6 8 0 -1
BITMAP
00
00
00
00
F8
00
00
00
ENDCHAR
STARTCHAR U+002E
ENCODING 46
SWIDTH 562 0
DWIDTH 6 0
BBX 6 8 0 -1
BITMAP
00
00
00
00
00
00
20
00
ENDCHAR
STARTCHAR U+002F
ENCODING 47
SWIDTH 562 0
DWIDTH 6 0
BBX 6 8 0 -1
BITMAP
00
10
10
10
70
40
40
40
ENDCHAR
STARTCHAR U+0030
ENCODING 48
SWIDTH 562 0
DWIDTH 6 0
BBX 6 8 0 -1
BITMAP
00
00
70
50
50
50
70
00
ENDCHAR
STARTCHAR U+0031
ENCODING 49
SWIDTH 562 0
DWIDTH 6 0
BBX 6 8 0 -1
BITMAP
00
00
20
60
20
20
20
00
ENDCHAR
STARTCHAR U+0032
ENCODING 50
SWIDTH 562 0
DWIDTH 6 0
BBX 6 8 0 -1
BITMAP
00
00
70
10
70
40
70
00
ENDCHAR
STARTCHAR U+0033
ENCODING 51
SWIDTH 562 0
DWIDTH 6 0
BBX 6 8 0 -1
BITMAP
00
00
70
10
70
10
70
00
ENDCHAR
STARTCHAR U+0034
ENCODING 52
SWIDTH 562 0
DWIDTH 6 0
BBX 6 8 0 -1
BITMAP
00
00
50
50
70
10
10
00
ENDCHAR
STARTCHAR U+0035
ENCODING 53
SWIDTH 562 0
DWIDTH 6 0
BBX 6 8 0 -1
BITMAP
00
00
70
40
70
10
70
00
ENDCHAR
STARTCHAR U+0036
ENCODING 54
SWIDTH 562 0
DWIDTH 6 0
BBX 6 8 0 -1
BITMAP
00
00
70
40
70
50
70
00
ENDCHAR
STARTCHAR U+0037
ENCODING 55
SWIDTH 562 0
DWIDTH 6 0
BBX 6 8 0 -1
BITMAP
00
00
70
10
10
10
10
00
ENDCHAR
STARTCHAR U+0038
ENCODING 56
SWIDTH 562 0
DWIDTH 6 0
BBX 6 8 0 -1
BITMAP
00
00
70
50
70
50
70
00
ENDCHAR
STARTCHAR U+0039
ENCODING 57
SWIDTH 562 0
DWIDTH 6 0
BBX 6 8 0 -1
BITMAP
00
00
70
50
70
10
70
00
ENDCHAR
STARTCHAR U+003A
ENCODING 58
SWIDTH 562 0
DWIDTH 6 0
BBX 6 8 0 -1
BITMAP
00
00
20
00
00
00
20
00
ENDCHAR
STARTCHAR U+003B
ENCODING 59
SWIDTH 562 0
DWIDTH 6 0
BBX 6 8 0 -1
BITMAP
00
00
20
00
00
00
20
60
ENDCHAR
STARTCHAR U+003C
ENCODING 60
SWIDTH 562 0
DWIDTH 6 0
BBX 6 8 0 -1
BITMAP
00
00
10
70
40
70
10
00
ENDCHAR
STARTCHAR U+003D
ENCODING 61
SWIDTH 562 0
DWIDTH 6 0
BBX 6 8 0 -1
BITMAP
00
00
00
F8
00
F8
00
00
ENDCHAR
STARTCHAR U+003E
ENCODING 62
SWIDTH 562 0
DWIDTH 6 0
BBX 6 8 0 -1
BITMAP
00
00
40
70
10
70
40
00
ENDCHAR
STARTCHAR U+003F
ENCODING 63
SWIDTH 562 0
DWIDTH 6 0
BBX 6 8 0 -1
BITMAP
00
00
F8
08
38
00
20
00
ENDCHAR
STARTCHAR U+0040
ENCODING 64
SWIDTH 562 0
DWIDTH 6 0
BBX 6 8 0 -1
BITMAP
00
F8
88
A8
B8
80
F8
00
ENDCHAR
STARTCHAR U+0041
ENCODING 65
SWIDTH 562 0
DWIDTH 6 0
BBX 6 8 0 -1
BITMAP
00
F8
88
88
F8
88
88
00
ENDCHAR
STARTCHAR U+0042
ENCODING 66
SWIDTH 562 0
DWIDTH 6 0
BBX 6 8 0 -1
BITMAP
00
F0
90
90
F8
88
F8
00
ENDCHAR
STARTCHAR U+0043
ENCODING 67
SWIDTH 562 0
DWIDTH 6 0
BBX 6 8 0 -1
BITMAP
00
F8
80
80
80
80
F8
00
ENDCHAR
STARTCHAR U+0044
ENCODING 68
SWIDTH 562 0
DWIDTH 6 0
BBX 6 8 0 -1
BITMAP
00
E0
B8
88
88
B8
E0
00
ENDCHAR
STARTCHAR U+0045
ENCODING 69
SWIDTH 562 0
DWIDTH 6 0
BBX 6 8 0 -1
BITMAP
00
F8
80
80
F8
80
F8
00
ENDCHAR
STARTCHAR U+0046
ENCODING 70
SWIDTH 562 0
DWIDTH 6 0
BBX 6 8 0 -1
BITMAP
00
F8
80
80
F8
80
80
00
ENDCHAR
STARTCHAR U+0047
ENCODING 71
SWIDTH 562 0
DWIDTH 6 0
BBX 6 8 0 -1
BITMAP
00
F8
80
80
B8
88
F8
00
ENDCHAR
STARTCHAR U+0048
ENCODING 72
SWIDTH 562 0
DWIDTH 6 0
BBX 6 8 0 -1
BITMAP
00
88
88
88
F8
88
88
00
ENDCHAR
STARTCHAR U+0049
ENCODING 73
SWIDTH 562 0
DWIDTH 6 0
BBX 6 8 0 -1
BITMAP
00
F8
20
20
20
20
F8
00
ENDCHAR
STARTCHAR U+004A
ENCODING 74
SWIDTH 562 0
DWIDTH 6 0
BBX 6 8 0 -1
BITMAP
00
08
08
08
88
88
F8
00
ENDCHAR
STARTCHAR U+004B
ENCODING 75
SWIDTH 562 0
DWIDTH 6 0
BBX 6 8 0 -1
BITMAP
00
98
90
90
F0
90
98
00
ENDCHAR
STARTCHAR U+004C
ENCODING 76
SWIDTH 562 0
DWIDTH 6 0
BBX 6 8 0 -1
BITMAP
00
80
80
80
80
80
F8
00
ENDCHAR
STARTCHAR U+004D
ENCODING 77
SWIDTH 562 0
DWIDTH 6 0
BBX 6 8 0 -1
BITMAP
00
F8
A8
A8
A8
A8
A8
00
ENDCHAR
STARTCHAR U+004E
ENCODING 78
SWIDTH 562 0
DWIDTH 6 0
BBX 6 8 0 -1
BITMAP
00
E8
A8
A8
A8
A8
B8
00
ENDCHAR
STARTCHAR U+004F
ENCODING 79
SWIDTH 562 0
DWIDTH 6 0
BBX 6 8 0 -1
BITMAP
00
F8
88
88
88
88
F8
00
ENDCHAR
STARTCHAR U+0050
ENCODING 80
SWIDTH 562 0
DWIDTH 6 0
BBX 6 8 0 -1
BITMAP
00
F8
88
88
F8
80
80
00
ENDCHAR
STARTCHAR U+0051
ENCODING 81
SWIDTH 562 0
DWIDTH 6 0
BBX 6 8 0 -1
BITMAP
00
F8
88
88
A8
A8
F8
00
ENDCHAR
STARTCHAR U+0052
ENCODING 82
SWIDTH 562 0
DWIDTH 6 0
BBX 6 8 0 -1
BITMAP
00
F8
88
88
F8
90
98
00
ENDCHAR
STARTCHAR U+0053
ENCODING 83
SWIDTH 562 0
DWIDTH 6 0
BBX 6 8 0 -1
BITMAP
00
F8
80
80
F8
08
F8
00
ENDCHAR
STARTCHAR U+0054
ENCODING 84
SWIDTH 562 0
DWIDTH 6 0
BBX 6 8 0 -1
BITMAP
00
F8
20
20
20
20
20
00
ENDCHAR
STARTCHAR U+0055
ENCODING 85
SWIDTH 562 0
DWIDTH 6 0
BBX 6 8 0 -1
BITMAP
00
88
88
88
88
88
F8
00
ENDCHAR
STARTCHAR U+0056
ENCODING 86
SWIDTH 562 0
DWIDTH 6 0
BBX 6 8 0 -1
BITMAP
00
88
88
88
D8
50
70
00
ENDCHAR
STARTCHAR U+0057
ENCODING 87
SWIDTH 562 0
DWIDTH 6 0
BBX 6 8 0 -1
BITMAP
00
A8
A8
A8
A8
A8
F8
00
ENDCHAR
STARTCHAR U+0058
ENCODING 88
SWIDTH 562 0
DWIDTH 6 0
BBX 6 8 0 -1
BITMAP
00
88
88
F8
20
F8
88
00
ENDCHAR
STARTCHAR U+0059
ENCODING 89
SWIDTH 562 0
DWIDTH 6 0
BBX 6 8 0 -1
BITMAP
00
88
88
88
F8
20
20
00
ENDCHAR
STARTCHAR U+005A
ENCODING 90
SWIDTH 562 0
DWIDTH 6 0
BBX 6 8 0 -1
BITMAP
00
F8
08
F8
A0
80
F8
00
ENDCHAR
STARTCHAR U+005B
ENCODING 91
SWIDTH 562 0
DWIDTH 6 0
BBX 6 8 0 -1
BITMAP
00
70
40
40
40
40
40
70
ENDCHAR
STARTCHAR U+005C
ENCODING 92
SWIDTH 562 0
DWIDTH 6 0
BBX 6 8 0 -1
BITMAP
00
40
40
40
70
10
10
10
ENDCHAR
STARTCHAR U+005D
ENCODING 93
SWIDTH 562 0
DWIDTH 6 0
BBX 6 8 0 -1
BITMAP
00
70
10
10
10
10
10
70
ENDCHAR
STARTCHAR U+005E
ENCODING 94
SWIDTH 562 0
DWIDTH 6 0
BBX 6 8 0 -1
BITMAP
00
70
50
00
00
00
00
00
ENDCHAR
STARTCHAR U+005F
ENCODING 95
SWIDTH 562 0
DWIDTH 6 0
BBX 6 8 0 -1
BITMAP
00
00
00
00
00
00
F8
00
ENDCHAR
STARTCHAR U+0060
ENCODING 96
SWIDTH 562 0
DWIDTH 6 0
BBX 6 8 0 -1
BITMAP
00
60
20
00
00
00
00
00
ENDCHAR
STARTCHAR U+0061
ENCODING 97
SWIDTH 562 0
DWIDTH 6 0
BBX 6 8 0 -1
BITMAP
00
00
F8
88
F8
88
88
00
ENDCHAR
STARTCHAR U+0062
ENCODING 98
SWIDTH 562 0
DWIDTH 6 0
BBX 6 8 0 -1
BITMAP
00
00
F0
90
F8
88
F8
00
ENDCHAR
STARTCHAR U+0063
ENCODING 99
SWIDTH 562 0
DWIDTH 6 0
BBX 6 8 0 -1
BITMAP
00
00
F8
80
80
80
F8
00
ENDCHAR
STARTCHAR U+0064
ENCODING 100
SWIDTH 562 0
DWIDTH 6 0
BBX 6 8 0 -1
BITMAP
00
00
E0
B8
88
B8
E0
00
ENDCHAR
STARTCHAR U+0065
ENCODING 101
SWIDTH 562 0
DWIDTH 6 0
BBX 6 8 0 -1
BITMAP
00
00
F8
80
F8
80
F8
00
ENDCHAR
STARTCHAR U+0066
ENCODING 102
SWIDTH 562 0
DWIDTH 6 0
BBX 6 8 0 -1
BITMAP
00
00
F8
80
F8
80
80
00
ENDCHAR
STARTCHAR U+0067
ENCODING 103
SWIDTH 562 0
DWIDTH 6 0
BBX 6 8 0 -1
BITMAP
00
00
F8
80
B8
88
F8
00
ENDCHAR
STARTCHAR U+0068
ENCODING 104
SWIDTH 562 0
DWIDTH 6 0
BBX 6 8 0 -1
BITMAP
00
00
88
88
F8
88
88
00
ENDCHAR
STARTCHAR U+0069
ENCODING 105
SWIDTH 562 0
DWIDTH 6 0
BBX 6 8 0 -1
BITMAP
00
00
F8
20
20
20
F8
00
ENDCHAR
STARTCHAR U+006A
ENCODING 106
SWIDTH 562 0
DWIDTH 6 0
BBX 6 8 0 -1
BITMAP
00
00
08
08
88
88
F8
00
ENDCHAR
STARTCHAR U+006B
ENCODING 107
SWIDTH 562 0
DWIDTH 6 0
BBX 6 8 0 -1
BITMAP
00
00
98
90
F0
90
98
00
ENDCHAR
STARTCHAR U+006C
ENCODING 108
SWIDTH 562 0
DWIDTH 6 0
BBX 6 8 0 -1
BITMAP
00
00
80
80
80
80
F8
00
ENDCHAR
STARTCHAR U+006D
ENCODING 109
SWIDTH 562 0
DWIDTH 6 0
BBX 6 8 0 -1
BITMAP
00
00
F8
A8
A8
A8
A8
00
ENDCHAR
STARTCHAR U+006E
ENCODING 110
SWIDTH 562 0
DWIDTH 6 0
BBX 6 8 0 -1
BITMAP
00
00
E8
A8
A8
A8
B8
00
ENDCHAR
STARTCHAR U+006F
ENCODING 111
SWIDTH 562 0
DWIDTH 6 0
BBX 6 8 0 -1
BITMAP
00
00
F8
88
88
88
F8
00
ENDCHAR
STARTCHAR U+0070
ENCODING 112
SWIDTH 562 0
DWIDTH 6 0
BBX 6 8 0 -1
BITMAP
00
00
F8
88
F8
80
80
00
ENDCHAR
STARTCHAR U+0071
ENCODING 113
SWIDTH 562 0
DWIDTH 6 0
BBX 6 8 0 -1
BITMAP
00
00
F8
88
A8
A8
F8
00
ENDCHAR
STARTCHAR U+0072
ENCODING 114
SWIDTH 562 0
DWIDTH 6 0
BBX 6 8 0 -1
BITMAP
00
00
F8
88
F8
90
98
00
ENDCHAR
STARTCHAR U+0073
ENCODING 115
SWIDTH 562 0
DWIDTH 6 0
BBX 6 8 0 -1
BITMAP
00
00
F8
80
F8
08
F8
00
ENDCHAR
STARTCHAR U+0074
ENCODING 116
SWIDTH 562 0
DWIDTH 6 0
BBX 6 8 0 -1
BITMAP
00
00
F8
20
20
20
20
00
ENDCHAR
STARTCHAR U+0075
ENCODING 117
SWIDTH 562 0
DWIDTH 6 0
BBX 6 8 0 -1
BITMAP
00
00
88
88
88
88
F8
00
ENDCHAR
STARTCHAR U+0076
ENCODING 118
SWIDTH 562 0
DWIDTH 6 0
BBX 6 8 0 -1
BITMAP
00
00
88
88
D8
50
70
00
ENDCHAR
STARTCHAR U+0077
ENCODING 119
SWIDTH 562 0
DWIDTH 6 0
BBX 6 8 0 -1
BITMAP
00
00
A8
A8
A8
A8
F8
00
ENDCHAR
STARTCHAR U+0078
ENCODING 120
SWIDTH 562 0
DWIDTH 6 0
BBX 6 8 0 -1
BITMAP
00
00
88
F8
20
F8
88
00
ENDCHAR
STARTCHAR U+0079
ENCODING 121
SWIDTH 562 0
DWIDTH 6 0
BBX 6 8 0 -1
BITMAP
00
00
88
88
F8
20
20
00
ENDCHAR
STARTCHAR U+007A
ENCODING 122
SWIDTH 562 0
DWIDTH 6 0
BBX 6 8 0 -1
BITMAP
00
00
F8
08
F8
80
F8
00
ENDCHAR
STARTCHAR U+007B
ENCODING 123
SWIDTH 562 0
DWIDTH 6 0
BBX 6 8 0 -1
BITMAP
00
30
20
20
60
20
20
30
ENDCHAR
STARTCHAR U+007C
ENCODING 124
SWIDTH 562 0
DWIDTH 6 0
BBX 6 8 0 -1
BITMAP
00
20
20
20
20
20
20
20
ENDCHAR
STARTCHAR U+007D
ENCODING 125
SWIDTH 562 0
DWIDTH 6 0
BBX 6 8 0 -1
BITMAP
00
60
20
20
30
20
20
60
ENDCHAR
STARTCHAR U+007E
ENCODING 126
SWIDTH 562 0
DWIDTH 6 0
BBX 6 8 0 -1
BITMAP
00
00
00
00
E8
B8
00
00
ENDCHAR
STARTCHAR U+00A1
ENCODING 161
SWIDTH 562 0
DWIDTH 6 0
BBX 6 8 0 -1
BITMAP
00
00
20
00
20
20
20
20
ENDCHAR
STARTCHAR U+00A2
ENCODING 162
SWIDTH 562 0
DWIDTH 6 0
BBX 6 8 0 -1
BITMAP
00
20
F8
A0
A0
A0
F8
20
ENDCHAR
STARTCHAR U+00A3
ENCODING 163
SWIDTH 562 0
DWIDTH 6 0
BBX 6 8 0 -1
BITMAP
00
78
48
48
E0
40
F8
00
ENDCHAR
STARTCHAR U+00A4
ENCODING 164
SWIDTH 562 0
DWIDTH 6 0
BBX 6 8 0 -1
BITMAP
00
00
88
70
50
70
88
00
ENDCHAR
STARTCHAR U+00A5
ENCODING 165
SWIDTH 562 0
DWIDTH 6 0
BBX 6 8 0 -1
BITMAP
00
50
F8
50
F8
20
20
00
ENDCHAR
STARTCHAR U+00A6
ENCODING 166
SWIDTH 562 0
DWIDTH 6 0
BBX 6 8 0 -1
BITMAP
00
20
20
20
00
20
20
20
ENDCHAR
STARTCHAR U+00A7
ENCODING 167
SWIDTH 562 0
DWIDTH 6 0
BBX 6 8 0 -1
BITMAP
00
F8
80
F8
88
F8
08
F8
ENDCHAR
STARTCHAR U+00A8
ENCODING 168
SWIDTH 562 0
DWIDTH 6 0
BBX 6 8 0 -1
BITMAP
00
50
00
00
00
00
00
00
ENDCHAR
STARTCHAR U+00A9
ENCODING 169
SWIDTH 562 0
DWIDTH 6 0
BBX 6 8 0 -1
BITMAP
00
00
F8
88
B8
88
F8
00
ENDCHAR
STARTCHAR U+00AA
ENCODING 170
SWIDTH 562 0
DWIDTH 6 0
BBX 6 8 0 -1
BITMAP
00
70
50
70
50
00
00
00
ENDCHAR
STARTCHAR U+00AB
ENCODING 171
SWIDTH 562 0
DWIDTH 6 0
BBX 6 8 0 -1
BITMAP
00
00
18
D0
90
D0
18
00
ENDCHAR
STARTCHAR U+00AC
ENCODING 172
SWIDTH 562 0
DWIDTH 6 0
BBX 6 8 0 -1
BITMAP
00
00
00
F8
08
08
00
00
ENDCHAR
STARTCHAR U+00AD
ENCODING 173
SWIDTH 562 0
DWIDTH 6 0
BBX 6 8 0 -1
BITMAP
00
00
00
00
F8
00
00
00
ENDCHAR
STARTCHAR U+00AE
ENCODING 174
SWIDTH 562 0
DWIDTH 6 0
BBX 6 8 0 -1
BITMAP
00
00
F8
88
B8
B8
F8
00
ENDCHAR
STARTCHAR U+00AF
ENCODING 175
SWIDTH 562 0
DWIDTH 6 0
BBX 6 8 0 -1
BITMAP
00
70
00
00
00
00
00
00
ENDCHAR
STARTCHAR U+00B0
ENCODING 176
SWIDTH 562 0
DWIDTH 6 0
BBX 6 8 0 -1
BITMAP
00
00
70
50
70
00
00
00
ENDCHAR
STARTCHAR U+00B1
ENCODING 177
SWIDTH 562 0
DWIDTH 6 0
BBX 6 8 0 -1
BITMAP
00
00
20
20
F8
20
F8
00
ENDCHAR
STARTCHAR U+00B2
ENCODING 178
SWIDTH 562 0
DWIDTH 6 0
BBX 6 8 0 -1
BITMAP
00
70
10
70
40
70
00
00
ENDCHAR
STARTCHAR U+00B3
ENCODING 179
SWIDTH 562 0
DWIDTH 6 0
BBX 6 8 0 -1
BITMAP
00
70
10
70
10
70
00
00
ENDCHAR
STARTCHAR U+00B4
ENCODING 180
SWIDTH 562 0
DWIDTH 6 0
BBX 6 8 0 -1
BITMAP
00
38
20
00
00
00
00
00
ENDCHAR
STARTCHAR U+00B5
ENCODING 181
SWIDTH 562 0
DWIDTH 6 0
BBX 6 8 0 -1
BITMAP
00
00
88
88
88
F8
80
80
ENDCHAR
STARTCHAR U+00B6
ENCODING 182
SWIDTH 562 0
DWIDTH 6 0
BBX 6 8 0 -1
BITMAP
00
F8
E8
E8
E8
28
38
00
ENDCHAR
STARTCHAR U+00B7
ENCODING 183
SWIDTH 562 0
DWIDTH 6 0
BBX 6 8 0 -1
BITMAP
00
00
00
00
20
00
00
00
ENDCHAR
STARTCHAR U+00B8
ENCODING 184
SWIDTH 562 0
DWIDTH 6 0
BBX 6 8 0 -1
BITMAP
00
00
00
00
00
60
20
60
ENDCHAR
STARTCHAR U+00B9
ENCODING 185
SWIDTH 562 0
DWIDTH 6 0
BBX 6 8 0 -1
BITMAP
00
60
20
20
00
00
00
00
ENDCHAR
STARTCHAR U+00BA
ENCODING 186
SWIDTH 562 0
DWIDTH 6 0
BBX 6 8 0 -1
BITMAP
00
70
50
70
00
70
00
00
ENDCHAR
STARTCHAR U+00BB
ENCODING 187
SWIDTH 562 0
DWIDTH 6 0
BBX 6 8 0 -1
BITMAP
00
00
C0
58
48
58
C0
00
ENDCHAR
STARTCHAR U+00BC
ENCODING 188
SWIDTH 562 0
DWIDTH 6 0
BBX 6 8 0 -1
BITMAP
00
20
00
F8
00
50
70
10
ENDCHAR
STARTCHAR U+00BD
ENCODING 189
SWIDTH 562 0
DWIDTH 6 0
BBX 6 8 0 -1
BITMAP
00
20
20
00
F8
00
50
50
ENDCHAR
STARTCHAR U+00BE
ENCODING 190
SWIDTH 562 0
DWIDTH 6 0
BBX 6 8 0 -1
BITMAP
00
A8
00
F8
00
50
70
10
ENDCHAR
STARTCHAR U+00BF
ENCODING 191
SWIDTH 562 0
DWIDTH 6 0
BBX 6 8 0 -1
BITMAP
00
00
20
00
E0
80
80
F8
ENDCHAR
STARTCHAR U+00C0
ENCODING 192
SWIDTH 562 0
DWIDTH 6 0
BBX 6 8 0 -1
BITMAP
C0
F8
88
88
F8
88
88
00
ENDCHAR
STARTCHAR U+00C1
ENCODING 193
SWIDTH 562 0
DWIDTH 6 0
BBX 6 8 0 -1
BITMAP
18
F8
88
88
F8
88
88
00
ENDCHAR
STARTCHAR U+00C2
ENCODING 194
SWIDTH 562 0
DWIDTH 6 0
BBX 6 8 0 -1
BITMAP
70
F8
88
88
F8
88
88
00
ENDCHAR
STARTCHAR U+00C3
ENCODING 195
SWIDTH 562 0
DWIDTH 6 0
BBX 6 8 0 -1
BITMAP
D8
F8
88
88
F8
88
88
00
ENDCHAR
STARTCHAR U+00C4
ENCODING 196
SWIDTH 562 0
DWIDTH 6 0
BBX 6 8 0 -1
BITMAP
50
F8
88
88
F8
88
88
00
ENDCHAR
STARTCHAR U+00C5
ENCODING 197
SWIDTH 562 0
DWIDTH 6 0
BBX 6 8 0 -1
BITMAP
70
D8
F8
88
F8
88
88
00
ENDCHAR
STARTCHAR U+00C6
ENCODING 198
SWIDTH 562 0
DWIDTH 6 0
BBX 6 8 0 -1
BITMAP
00
F8
A0
A0
F8
A0
B8
00
ENDCHAR
STARTCHAR U+00C7
ENCODING 199
SWIDTH 562 0
DWIDTH 6 0
BBX 6 8 0 -1
BITMAP
00
F8
80
80
80
80
F8
20
ENDCHAR
STARTCHAR U+00C8
ENCODING 200
SWIDTH 562 0
DWIDTH 6 0
BBX 6 8 0 -1
BITMAP
C0
F8
80
80
F8
80
F8
00
ENDCHAR
STARTCHAR U+00C9
ENCODING 201
SWIDTH 562 0
DWIDTH 6 0
BBX 6 8 0 -1
BITMAP
18
F8
80
80
F8
80
F8
00
ENDCHAR
STARTCHAR U+00CA
ENCODING 202
SWIDTH 562 0
DWIDTH 6 0
BBX 6 8 0 -1
BITMAP
70
F8
80
80
F8
80
F8
00
ENDCHAR
STARTCHAR U+00CB
ENCODING 203
SWIDTH 562 0
DWIDTH 6 0
BBX 6 8 0 -1
BITMAP
50
F8
80
80
F8
80
F8
00
ENDCHAR
STARTCHAR U+00CC
ENCODING 204
SWIDTH 562 0
DWIDTH 6 0
BBX 6 8 0 -1
BITMAP
C0
F8
20
20
20
20
F8
00
ENDCHAR
STARTCHAR U+00CD
ENCODING 205
SWIDTH 562 0
DWIDTH 6 0
BBX 6 8 0 -1
BITMAP
18
F8
20
20
20
20
F8
00
ENDCHAR
STARTCHAR U+00CE
ENCODING 206
SWIDTH 562 0
DWIDTH 6 0
BBX 6 8 0 -1
BITMAP
70
F8
20
20
20
20
F8
00
ENDCHAR
STARTCHAR U+00CF
ENCODING 207
SWIDTH 562 0
DWIDTH 6 0
BBX 6 8 0 -1
BITMAP
50
F8
20
20
20
20
F8
00
ENDCHAR
STARTCHAR U+00D0
ENCODING 208
SWIDTH 562 0
DWIDTH 6 0
BBX 6 8 0 -1
BITMAP
00
F0
98
88
C8
98
F0
00
ENDCHAR
STARTCHAR U+00D1
ENCODING 209
SWIDTH 562 0
DWIDTH 6 0
BBX 6 8 0 -1
BITMAP
D8
E8
A8
A8
A8
A8
B8
00
ENDCHAR
STARTCHAR U+00D2
ENCODING 210
SWIDTH 562 0
DWIDTH 6 0
BBX 6 8 0 -1
BITMAP
C0
F8
88
88
88
88
F8
00
ENDCHAR
STARTCHAR U+00D3
ENCODING 211
SWIDTH 562 0
DWIDTH 6 0
BBX 6 8 0 -1
BITMAP
18
F8
88
88
88
88
F8
00
ENDCHAR
STARTCHAR U+00D4
ENCODING 212
SWIDTH 562 0
DWIDTH 6 0
BBX 6 8 0 -1
BITMAP
70
F8
88
88
88
88
F8
00
ENDCHAR
STARTCHAR U+00D5
ENCODING 213
SWIDTH 562 0
DWIDTH 6 0
BBX 6 8 0 -1
BITMAP
D8
F8
88
88
88
88
F8
00
ENDCHAR
STARTCHAR U+00D6
ENCODING 214
SWIDTH 562 0
DWIDTH 6 0
BBX 6 8 0 -1
BITMAP
50
F8
88
88
88
88
F8
00
ENDCHAR
STARTCHAR U+00D7
ENCODING 215
SWIDTH 562 0
DWIDTH 6 0
BBX 6 8 0 -1
BITMAP
00
00
D8
70
20
70
D8
00
ENDCHAR
STARTCHAR U+00D8
ENCODING 216
SWIDTH 562 0
DWIDTH 6 0
BBX 6 8 0 -1
BITMAP
10
F8
A8
A8
A8
A8
F8
40
ENDCHAR
STARTCHAR U+00D9
ENCODING 217
SWIDTH 562 0
DWIDTH 6 0
BBX 6 8 0 -1
BITMAP
C0
88
88
88
88
88
F8
00
ENDCHAR
STARTCHAR U+00DA
ENCODING 218
SWIDTH 562 0
DWIDTH 6 0
BBX 6 8 0 -1
BITMAP
18
88
88
88
88
88
F8
00
ENDCHAR
STARTCHAR U+00DB
ENCODING 219
SWIDTH 562 0
DWIDTH 6 0
BBX 6 8 0 -1
BITMAP
70
88
88
88
88
88
F8
00
ENDCHAR
STARTCHAR U+00DC
ENCODING 220
SWIDTH 562 0
DWIDTH 6 0
BBX 6 8 0 -1
BITMAP
50
88
88
88
88
88
F8
00
ENDCHAR
STARTCHAR U+00DD
ENCODING 221
SWIDTH 562 0
DWIDTH 6 0
BBX 6 8 0 -1
BITMAP
20
88
88
88
F8
20
20
00
ENDCHAR
STARTCHAR U+00DE
ENCODING 222
SWIDTH 562 0
DWIDTH 6 0
BBX 6 8 0 -1
BITMAP
00
80
F8
88
88
F8
80
00
ENDCHAR
STARTCHAR U+00DF
ENCODING 223
SWIDTH 562 0
DWIDTH 6 0
BBX 6 8 0 -1
BITMAP
00
E0
A0
B8
88
88
B8
00
ENDCHAR
STARTCHAR U+00E0
ENCODING 224
SWIDTH 562 0
DWIDTH 6 0
BBX 6 8 0 -1
BITMAP
C0
00
F8
88
F8
88
88
00
ENDCHAR
STARTCHAR U+00E1
ENCODING 225
SWIDTH 562 0
DWIDTH 6 0
BBX 6 8 0 -1
BITMAP
18
00
F8
88
F8
88
88
00
ENDCHAR
STARTCHAR U+00E2
ENCODING 226
SWIDTH 562 0
DWIDTH 6 0
BBX 6 8 0 -1
BITMAP
70
00
F8
88
F8
88
88
00
ENDCHAR
STARTCHAR U+00E3
ENCODING 227
SWIDTH 562 0
DWIDTH 6 0
BBX 6 8 0 -1
BITMAP
D8
00
F8
88
F8
88
88
00
ENDCHAR
STARTCHAR U+00E4
ENCODING 228
SWIDTH 562 0
DWIDTH 6 0
BBX 6 8 0 -1
BITMAP
50
00
F8
88
F8
88
88
00
ENDCHAR
STARTCHAR U+00E5
ENCODING 229
SWIDTH 562 0
DWIDTH 6 0
BBX 6 8 0 -1
BITMAP
70
50
F8
88
F8
88
88
00
ENDCHAR
STARTCHAR U+00E6
ENCODING 230
SWIDTH 562 0
DWIDTH 6 0
BBX 6 8 0 -1
BITMAP
00
00
F8
A0
F8
A0
B8
00
ENDCHAR
STARTCHAR U+00E7
ENCODING 231
SWIDTH 562 0
DWIDTH 6 0
BBX 6 8 0 -1
BITMAP
00
00
F8
80
80
80
F8
20
ENDCHAR
STARTCHAR U+00E8
ENCODING 232
SWIDTH 562 0
DWIDTH 6 0
BBX 6 8 0 -1
BITMAP
C0
00
F8
80
F8
80
F8
00
ENDCHAR
STARTCHAR U+00E9
ENCODING 233
SWIDTH 562 0
DWIDTH 6 0
BBX 6 8 0 -1
BITMAP
18
00
F8
80
F8
80
F8
00
ENDCHAR
STARTCHAR U+00EA
ENCODING 234
SWIDTH 562 0
DWIDTH 6 0
BBX 6 8 0 -1
BITMAP
70
00
F8
80
F8
80
F8
00
ENDCHAR
STARTCHAR U+00EB
ENCODING 235
SWIDTH 562 0
DWIDTH 6 0
BBX 6 8 0 -1
BITMAP
50
00
F8
80
F8
80
F8
00
ENDCHAR
STARTCHAR U+00EC
ENCODING 236
SWIDTH 562 0
DWIDTH 6 0
BBX 6 8 0 -1
BITMAP
C0
00
F8
20
20
20
F8
00
ENDCHAR
STARTCHAR U+00ED
ENCODING 237
SWIDTH 562 0
DWIDTH 6 0
BBX 6 8 0 -1
BITMAP
18
00
F8
20
20
20
F8
00
ENDCHAR
STARTCHAR U+00EE
ENCODING 238
SWIDTH 562 0
DWIDTH 6 0
BBX 6 8 0 -1
BITMAP
70
00
F8
20
20
20
F8
00
ENDCHAR
STARTCHAR U+00EF
ENCODING 239
SWIDTH 562 0
DWIDTH 6 0
BBX 6 8 0 -1
BITMAP
50
00
F8
20
20
20
F8
00
ENDCHAR
STARTCHAR U+00F0
ENCODING 240
SWIDTH 562 0
DWIDTH 6 0
BBX 6 8 0 -1
BITMAP
00
00
F0
98
C8
98
F0
00
ENDCHAR
STARTCHAR U+00F1
ENCODING 241
SWIDTH 562 0
DWIDTH 6 0
BBX 6 8 0 -1
BITMAP
D8
00
E8
A8
A8
A8
B8
00
ENDCHAR
STARTCHAR U+00F2
ENCODING 242
SWIDTH 562 0
DWIDTH 6 0
BBX 6 8 0 -1
BITMAP
C0
00
F8
88
88
88
F8
00
ENDCHAR
STARTCHAR U+00F3
ENCODING 243
SWIDTH 562 0
DWIDTH 6 0
BBX 6 8 0 -1
BITMAP
18
00
F8
88
88
88
F8
00
ENDCHAR
STARTCHAR U+00F4
ENCODING 244
SWIDTH 562 0
DWIDTH 6 0
BBX 6 8 0 -1
BITMAP
70
00
F8
88
88
88
F8
00
ENDCHAR
STARTCHAR U+00F5
ENCODING 245
SWIDTH 562 0
DWIDTH 6 0
BBX 6 8 0 -1
BITMAP
D8
00
F8
88
88
88
F8
00
ENDCHAR
STARTCHAR U+00F6
ENCODING 246
SWIDTH 562 0
DWIDTH 6 0
BBX 6 8 0 -1
BITMAP
50
00
F8
88
88
88
F8
00
ENDCHAR
STARTCHAR U+00F7
ENCODING 247
SWIDTH 562 0
DWIDTH 6 0
BBX 6 8 0 -1
BITMAP
00
00
20
00
F8
00
20
00
ENDCHAR
STARTCHAR U+00F8
ENCODING 248
SWIDTH 562 0
DWIDTH 6 0
BBX 6 8 0 -1
BITMAP
00
10
F8
A8
A8
A8
F8
40
ENDCHAR
STARTCHAR U+00F9
ENCODING 249
SWIDTH 562 0
DWIDTH 6 0
BBX 6 8 0 -1
BITMAP
C0
00
88
88
88
88
F8
00
ENDCHAR
STARTCHAR U+00FA
ENCODING 250
SWIDTH 562 0
DWIDTH 6 0
BBX 6 8 0 -1
BITMAP
18
00
88
88
88
88
F8
00
ENDCHAR
STARTCHAR U+00FB
ENCODING 251
SWIDTH 562 0
DWIDTH 6 0
BBX 6 8 0 -1
BITMAP
70
00
88
88
88
88
F8
00
ENDCHAR
STARTCHAR U+00FC
ENCODING 252
SWIDTH 562 0
DWIDTH 6 0
BBX 6 8 0 -1
BITMAP
50
00
88
88
88
88
F8
00
ENDCHAR
STARTCHAR U+00FD
ENCODING 253
SWIDTH 562 0
DWIDTH 6 0
BBX 6 8 0 -1
BITMAP
18
00
88
88
F8
20
20
00
ENDCHAR
STARTCHAR U+00FE
ENCODING 254
SWIDTH 562 0
DWIDTH 6 0
BBX 6 8 0 -1
BITMAP
00
00
80
F8
88
F8
80
00
ENDCHAR
STARTCHAR U+00FF
ENCODING 255
SWIDTH 562 0
DWIDTH 6 0
BBX 6 8 0 -1
BITMAP
50
00
88
88
F8
20
20
00
ENDCHAR
STARTCHAR U+0100
ENCODING 256
SWIDTH 562 0
DWIDTH 6 0
BBX 6 8 0 -1
BITMAP
70
F8
88
88
F8
88
88
00
ENDCHAR
STARTCHAR U+0101
ENCODING 257
SWIDTH 562 0
DWIDTH 6 0
BBX 6 8 0 -1
BITMAP
70
00
F8
88
F8
88
88
00
ENDCHAR
STARTCHAR U+0102
ENCODING 258
SWIDTH 562 0
DWIDTH 6 0
BBX 6 8 0 -1
BITMAP
50
F8
88
88
F8
88
88
00
ENDCHAR
STARTCHAR U+0103
ENCODING 259
SWIDTH 562 0
DWIDTH 6 0
BBX 6 8 0 -1
BITMAP
50
70
F8
88
F8
88
88
00
ENDCHAR
STARTCHAR U+0104
ENCODING 260
SWIDTH 562 0
DWIDTH 6 0
BBX 6 8 0 -1
BITMAP
00
F8
88
88
F8
88
98
10
ENDCHAR
STARTCHAR U+0105
ENCODING 261
SWIDTH 562 0
DWIDTH 6 0
BBX 6 8 0 -1
BITMAP
00
00
F8
88
F8
88
98
10
ENDCHAR
STARTCHAR U+0106
ENCODING 262
SWIDTH 562 0
DWIDTH 6 0
BBX 6 8 0 -1
BITMAP
18
F8
80
80
80
80
F8
00
ENDCHAR
STARTCHAR U+0107
ENCODING 263
SWIDTH 562 0
DWIDTH 6 0
BBX 6 8 0 -1
BITMAP
18
00
F8
80
80
80
F8
00
ENDCHAR
STARTCHAR U+0108
ENCODING 264
SWIDTH 562 0
DWIDTH 6 0
BBX 6 8 0 -1
BITMAP
70
F8
80
80
80
80
F8
00
ENDCHAR
STARTCHAR U+0109
ENCODING 265
SWIDTH 562 0
DWIDTH 6 0
BBX 6 8 0 -1
BITMAP
70
00
F8
80
80
80
F8
00
ENDCHAR
STARTCHAR U+010A
ENCODING 266
SWIDTH 562 0
DWIDTH 6 0
BBX 6 8 0 -1
BITMAP
C0
F8
80
80
80
80
F8
00
ENDCHAR
STARTCHAR U+010B
ENCODING 267
SWIDTH 562 0
DWIDTH 6 0
BBX 6 8 0 -1
BITMAP
C0
00
F8
80
80
80
F8
00
ENDCHAR
STARTCHAR U+010C
ENCODING 268
SWIDTH 562 0
DWIDTH 6 0
BBX 6 8 0 -1
BITMAP
50
F8
80
80
80
80
F8
00
ENDCHAR
STARTCHAR U+010D
ENCODING 269
SWIDTH 562 0
DWIDTH 6 0
BBX 6 8 0 -1
BITMAP
50
70
F8
80
80
80
F8
00
ENDCHAR
STARTCHAR U+010E
ENCODING 270
SWIDTH 562 0
DWIDTH 6 0
BBX 6 8 0 -1
BITMAP
70
E0
B8
88
88
B8
E0
00
ENDCHAR
STARTCHAR U+010F
ENCODING 271
SWIDTH 562 0
DWIDTH 6 0
BBX 6 8 0 -1
BITMAP
70
00
E0
B8
88
B8
E0
00
ENDCHAR
STARTCHAR U+0110
ENCODING 272
SWIDTH 562 0
DWIDTH 6 0
BBX 6 8 0 -1
BITMAP
00
F0
98
88
C8
98
F0
00
ENDCHAR
STARTCHAR U+0111
ENCODING 273
SWIDTH 562 0
DWIDTH 6 0
BBX 6 8 0 -1
BITMAP
00
00
F0
98
C8
98
F0
00
ENDCHAR
STARTCHAR U+0112
ENCODING 274
SWIDTH 562 0
DWIDTH 6 0
BBX 6 8 0 -1
BITMAP
F8
F8
80
80
F8
80
F8
00
ENDCHAR
STARTCHAR U+0113
ENCODING 275
SWIDTH 562 0
DWIDTH 6 0
BBX 6 8 0 -1
BITMAP
F8
00
F8
80
F8
80
F8
00
ENDCHAR
STARTCHAR U+0114
ENCODING 276
SWIDTH 562 0
DWIDTH 6 0
BBX 6 8 0 -1
BITMAP
50
F8
80
80
F8
80
F8
00
ENDCHAR
STARTCHAR U+0115
ENCODING 277
SWIDTH 562 0
DWIDTH 6 0
BBX 6 8 0 -1
BITMAP
50
70
F8
80
F8
80
F8
00
ENDCHAR
STARTCHAR U+0116
ENCODING 278
SWIDTH 562 0
DWIDTH 6 0
BBX 6 8 0 -1
BITMAP
20
F8
80
80
F8
80
F8
00
ENDCHAR
STARTCHAR U+0117
ENCODING 279
SWIDTH 562 0
DWIDTH 6 0
BBX 6 8 0 -1
BITMAP
20
00
F8
80
F8
80
F8
00
ENDCHAR
STARTCHAR U+0118
ENCODING 280
SWIDTH 562 0
DWIDTH 6 0
BBX 6 8 0 -1
BITMAP
00
F8
80
80
F8
80
F8
20
ENDCHAR
STARTCHAR U+0119
ENCODING 281
SWIDTH 562 0
DWIDTH 6 0
BBX 6 8 0 -1
BITMAP
00
00
F8
80
F8
80
F8
20
ENDCHAR
STARTCHAR U+011A
ENCODING 282
SWIDTH 562 0
DWIDTH 6 0
BBX 6 8 0 -1
BITMAP
D8
F8
80
80
F8
80
F8
00
ENDCHAR
STARTCHAR U+011B
ENCODING 283
SWIDTH 562 0
DWIDTH 6 0
BBX 6 8 0 -1
BITMAP
D8
70
F8
80
F8
80
F8
00
ENDCHAR
STARTCHAR U+011C
ENCODING 284
SWIDTH 562 0
DWIDTH 6 0
BBX 6 8 0 -1
BITMAP
70
F8
80
80
B8
88
F8
00
ENDCHAR
STARTCHAR U+011D
ENCODING 285
SWIDTH 562 0
DWIDTH 6 0
BBX 6 8 0 -1
BITMAP
70
50
F8
80
B8
88
F8
00
ENDCHAR
STARTCHAR U+011E
ENCODING 286
SWIDTH 562 0
DWIDTH 6 0
BBX 6 8 0 -1
BITMAP
50
F8
80
80
B8
88
F8
00
ENDCHAR
STARTCHAR U+011F
ENCODING 287
SWIDTH 562 0
DWIDTH 6 0
BBX 6 8 0 -1
BITMAP
50
70
F8
80
B8
88
F8
00
ENDCHAR
STARTCHAR U+0120
ENCODING 288
SWIDTH 562 0
DWIDTH 6 0
BBX 6 8 0 -1
BITMAP
20
F8
80
80
B8
88
F8
00
ENDCHAR
STARTCHAR U+0121
ENCODING 289
SWIDTH 562 0
DWIDTH 6 0
BBX 6 8 0 -1
BITMAP
20
00
F8
80
B8
88
F8
00
ENDCHAR
STARTCHAR U+0122
ENCODING 290
SWIDTH 562 0
DWIDTH 6 0
BBX 6 8 0 -1
BITMAP
00
F8
80
80
B8
88
F8
20
ENDCHAR
STARTCHAR U+0123
ENCODING 291
SWIDTH 562 0
DWIDTH 6 0
BBX 6 8 0 -1
BITMAP
18
00
F8
80
B8
88
F8
00
ENDCHAR
STARTCHAR U+0124
ENCODING 292
SWIDTH 562 0
DWIDTH 6 0
BBX 6 8 0 -1
BITMAP
20
88
88
88
F8
88
88
00
ENDCHAR
STARTCHAR U+0125
ENCODING 293
SWIDTH 562 0
DWIDTH 6 0
BBX 6 8 0 -1
BITMAP
70
00
88
88
F8
88
88
00
ENDCHAR
STARTCHAR U+0126
ENCODING 294
SWIDTH 562 0
DWIDTH 6 0
BBX 6 8 0 -1
BITMAP
00
88
F8
88
F8
88
88
00
ENDCHAR
STARTCHAR U+0127
ENCODING 295
SWIDTH 562 0
DWIDTH 6 0
BBX 6 8 0 -1
BITMAP
00
00
88
F8
88
F8
88
00
ENDCHAR
STARTCHAR U+0128
ENCODING 296
SWIDTH 562 0
DWIDTH 6 0
BBX 6 8 0 -1
BITMAP
D8
F8
20
20
20
20
F8
00
ENDCHAR
STARTCHAR U+0129
ENCODING 297
SWIDTH 562 0
DWIDTH 6 0
BBX 6 8 0 -1
BITMAP
D8
00
F8
20
20
20
F8
00
ENDCHAR
STARTCHAR U+012A
ENCODING 298
SWIDTH 562 0
DWIDTH 6 0
BBX 6 8 0 -1
BITMAP
F8
F8
20
20
20
20
F8
00
ENDCHAR
STARTCHAR U+012B
ENCODING 299
SWIDTH 562 0
DWIDTH 6 0
BBX 6 8 0 -1
BITMAP
F8
00
F8
20
20
20
F8
00
ENDCHAR
STARTCHAR U+012C
ENCODING 300
SWIDTH 562 0
DWIDTH 6 0
BBX 6 8 0 -1
BITMAP
50
F8
20
20
20
20
F8
00
ENDCHAR
STARTCHAR U+012D
ENCODING 301
SWIDTH 562 0
DWIDTH 6 0
BBX 6 8 0 -1
BITMAP
50
70
F8
20
20
20
F8
00
ENDCHAR
STARTCHAR U+012E
ENCODING 302
SWIDTH 562 0
DWIDTH 6 0
BBX 6 8 0 -1
BITMAP
00
F8
20
20
20
20
F8
20
ENDCHAR
STARTCHAR U+012F
ENCODING 303
SWIDTH 562 0
DWIDTH 6 0
BBX 6 8 0 -1
BITMAP
00
00
F8
20
20
20
F8
20
ENDCHAR
STARTCHAR U+0130
ENCODING 304
SWIDTH 562 0
DWIDTH 6 0
BBX 6 8 0 -1
BITMAP
20
00
F8
20
20
20
F8
00
ENDCHAR
STARTCHAR U+0131
ENCODING 305
SWIDTH 562 0
DWIDTH 6 0
BBX 6 8 0 -1
BITMAP
00
00
20
20
20
20
F8
00
ENDCHAR
STARTCHAR U+0132
ENCODING 306
SWIDTH 562 0
DWIDTH 6 0
BBX 6 8 0 -1
BITMAP
00
28
28
28
A8
A8
F8
00
ENDCHAR
STARTCHAR U+0133
ENCODING 307
SWIDTH 562 0
DWIDTH 6 0
BBX 6 8 0 -1
BITMAP
00
00
28
28
A8
A8
F8
00
ENDCHAR
STARTCHAR U+0134
ENCODING 308
SWIDTH 562 0
DWIDTH 6 0
BBX 6 8 0 -1
BITMAP
70
08
08
08
88
88
F8
00
ENDCHAR
STARTCHAR U+0135
ENCODING 309
SWIDTH 562 0
DWIDTH 6 0
BBX 6 8 0 -1
BITMAP
70
00
08
08
88
88
F8
00
ENDCHAR
STARTCHAR U+0136
ENCODING 310
SWIDTH 562 0
DWIDTH 6 0
BBX 6 8 0 -1
BITMAP
00
98
90
90
F0
90
98
40
ENDCHAR
STARTCHAR U+0137
ENCODING 311
SWIDTH 562 0
DWIDTH 6 0
BBX 6 8 0 -1
BITMAP
00
00
98
90
F0
90
98
40
ENDCHAR
STARTCHAR U+0138
ENCODING 312
SWIDTH 562 0
DWIDTH 6 0
BBX 6 8 0 -1
BITMAP
00
00
00
98
F0
90
98
00
ENDCHAR
STARTCHAR U+0139
ENCODING 313
SWIDTH 562 0
DWIDTH 6 0
BBX 6 8 0 -1
BITMAP
70
80
80
80
80
80
F8
00
ENDCHAR
STARTCHAR U+013A
ENCODING 314
SWIDTH 562 0
DWIDTH 6 0
BBX 6 8 0 -1
BITMAP
70
00
80
80
80
80
F8
00
ENDCHAR
STARTCHAR U+013B
ENCODING 315
SWIDTH 562 0
DWIDTH 6 0
BBX 6 8 0 -1
BITMAP
00
80
80
80
80
80
F8
20
ENDCHAR
STARTCHAR U+013C
ENCODING 316
SWIDTH 562 0
DWIDTH 6 0
BBX 6 8 0 -1
BITMAP
00
00
80
80
80
80
F8
20
ENDCHAR
STARTCHAR U+013D
ENCODING 317
SWIDTH 562 0
DWIDTH 6 0
BBX 6 8 0 -1
BITMAP
18
80
80
80
80
80
F8
00
ENDCHAR
STARTCHAR U+013E
ENCODING 318
SWIDTH 562 0
DWIDTH 6 0
BBX 6 8 0 -1
BITMAP
18
00
80
80
80
80
F8
00
ENDCHAR
STARTCHAR U+013F
ENCODING 319
SWIDTH 562 0
DWIDTH 6 0
BBX 6 8 0 -1
BITMAP
00
80
80
80
A0
80
F8
00
ENDCHAR
STARTCHAR U+0140
ENCODING 320
SWIDTH 562 0
DWIDTH 6 0
BBX 6 8 0 -1
BITMAP
00
00
80
80
A0
80
F8
00
ENDCHAR
STARTCHAR U+0141
ENCODING 321
SWIDTH 562 0
DWIDTH 6 0
BBX 6 8 0 -1
BITMAP
00
80
80
80
C0
80
F8
00
ENDCHAR
STARTCHAR U+0142
ENCODING 322
SWIDTH 562 0
DWIDTH 6 0
BBX 6 8 0 -1
BITMAP
00
00
80
80
C0
80
F8
00
ENDCHAR
STARTCHAR U+0143
ENCODING 323
SWIDTH 562 0
DWIDTH 6 0
BBX 6 8 0 -1
BITMAP
18
E8
A8
A8
A8
A8
B8
00
ENDCHAR
STARTCHAR U+0144
ENCODING 324
SWIDTH 562 0
DWIDTH 6 0
BBX 6 8 0 -1
BITMAP
18
00
E8
A8
A8
A8
B8
00
ENDCHAR
STARTCHAR U+0145
ENCODING 325
SWIDTH 562 0
DWIDTH 6 0
BBX 6 8 0 -1
BITMAP
00
E8
A8
A8
A8
A8
B8
20
ENDCHAR
STARTCHAR U+0146
ENCODING 326
SWIDTH 562 0
DWIDTH 6 0
BBX 6 8 0 -1
BITMAP
00
00
E8
A8
A8
A8
B8
20
ENDCHAR
STARTCHAR U+0147
ENCODING 327
SWIDTH 562 0
DWIDTH 6 0
BBX 6 8 0 -1
BITMAP
50
F8
A8
A8
A8
A8
B8
00
ENDCHAR
STARTCHAR U+0148
ENCODING 328
SWIDTH 562 0
DWIDTH 6 0
BBX 6 8 0 -1
BITMAP
50
70
E8
A8
A8
A8
B8
00
ENDCHAR
STARTCHAR U+0149
ENCODING 329
SWIDTH 562 0
DWIDTH 6 0
BBX 6 8 0 -1
BITMAP
80
00
E8
A8
A8
A8
B8
00
ENDCHAR
STARTCHAR U+014A
ENCODING 330
SWIDTH 562 0
DWIDTH 6 0
BBX 6 8 0 -1
BITMAP
00
E8
A8
A8
A8
A8
B8
08
ENDCHAR
STARTCHAR U+014B
ENCODING 331
SWIDTH 562 0
DWIDTH 6 0
BBX 6 8 0 -1
BITMAP
00
00
E8
A8
A8
A8
B8
08
ENDCHAR
STARTCHAR U+014C
ENCODING 332
SWIDTH 562 0
DWIDTH 6 0
BBX 6 8 0 -1
BITMAP
F8
F8
88
88
88
88
F8
00
ENDCHAR
STARTCHAR U+014D
ENCODING 333
SWIDTH 562 0
DWIDTH 6 0
BBX 6 8 0 -1
BITMAP
F8
00
F8
88
88
88
F8
00
ENDCHAR
STARTCHAR U+014E
ENCODING 334
SWIDTH 562 0
DWIDTH 6 0
BBX 6 8 0 -1
BITMAP
50
F8
88
88
88
88
F8
00
ENDCHAR
STARTCHAR U+014F
ENCODING 335
SWIDTH 562 0
DWIDTH 6 0
BBX 6 8 0 -1
BITMAP
50
70
F8
88
88
88
F8
00
ENDCHAR
STARTCHAR U+0150
ENCODING 336
SWIDTH 562 0
DWIDTH 6 0
BBX 6 8 0 -1
BITMAP
D8
F8
88
88
88
88
F8
00
ENDCHAR
STARTCHAR U+0151
ENCODING 337
SWIDTH 562 0
DWIDTH 6 0
BBX 6 8 0 -1
BITMAP
D8
00
F8
88
88
88
F8
00
ENDCHAR
STARTCHAR U+0152
ENCODING 338
SWIDTH 562 0
DWIDTH 6 0
BBX 6 8 0 -1
BITMAP
00
F8
A0
A0
B8
A0
F8
00
ENDCHAR
STARTCHAR U+0153
ENCODING 339
SWIDTH 562 0
DWIDTH 6 0
BBX 6 8 0 -1
BITMAP
00
00
F8
A0
B8
A0
F8
00
ENDCHAR
STARTCHAR U+0154
ENCODING 340
SWIDTH 562 0
DWIDTH 6 0
BBX 6 8 0 -1
BITMAP
18
F8
88
88
F8
90
98
00
ENDCHAR
STARTCHAR U+0155
ENCODING 341
SWIDTH 562 0
DWIDTH 6 0
BBX 6 8 0 -1
BITMAP
18
00
F8
88
F8
90
98
00
ENDCHAR
STARTCHAR U+0156
ENCODING 342
SWIDTH 562 0
DWIDTH 6 0
BBX 6 8 0 -1
BITMAP
00
F8
88
88
F8
90
98
40
ENDCHAR
STARTCHAR U+0157
ENCODING 343
SWIDTH 562 0
DWIDTH 6 0
BBX 6 8 0 -1
BITMAP
00
00
F8
88
F8
90
98
40
ENDCHAR
STARTCHAR U+0158
ENCODING 344
SWIDTH 562 0
DWIDTH 6 0
BBX 6 8 0 -1
BITMAP
50
F8
88
88
F8
90
98
00
ENDCHAR
STARTCHAR U+0159
ENCODING 345
SWIDTH 562 0
DWIDTH 6 0
BBX 6 8 0 -1
BITMAP
50
70
F8
88
F8
90
98
00
ENDCHAR
STARTCHAR U+015A
ENCODING 346
SWIDTH 562 0
DWIDTH 6 0
BBX 6 8 0 -1
BITMAP
18
F8
80
80
F8
08
F8
00
ENDCHAR
STARTCHAR U+015B
ENCODING 347
SWIDTH 562 0
DWIDTH 6 0
BBX 6 8 0 -1
BITMAP
18
00
F8
80
F8
08
F8
00
ENDCHAR
STARTCHAR U+015C
ENCODING 348
SWIDTH 562 0
DWIDTH 6 0
BBX 6 8 0 -1
BITMAP
70
F8
80
80
F8
08
F8
00
ENDCHAR
STARTCHAR U+015D
ENCODING 349
SWIDTH 562 0
DWIDTH 6 0
BBX 6 8 0 -1
BITMAP
70
50
F8
80
F8
08
F8
00
ENDCHAR
STARTCHAR U+015E
ENCODING 350
SWIDTH 562 0
DWIDTH 6 0
BBX 6 8 0 -1
BITMAP
00
F8
80
80
F8
08
F8
20
ENDCHAR
STARTCHAR U+015F
ENCODING 351
SWIDTH 562 0
DWIDTH 6 0
BBX 6 8 0 -1
BITMAP
00
00
F8
80
F8
08
F8
20
ENDCHAR
STARTCHAR U+0160
ENCODING 352
SWIDTH 562 0
DWIDTH 6 0
BBX 6 8 0 -1
BITMAP
50
F8
80
80
F8
08
F8
00
ENDCHAR
STARTCHAR U+0161
ENCODING 353
SWIDTH 562 0
DWIDTH 6 0
BBX 6 8 0 -1
BITMAP
50
70
F8
80
F8
08
F8
00
ENDCHAR
STARTCHAR U+0162
ENCODING 354
SWIDTH 562 0
DWIDTH 6 0
BBX 6 8 0 -1
BITMAP
00
F8
20
20
20
20
20
60
ENDCHAR
STARTCHAR U+0163
ENCODING 355
SWIDTH 562 0
DWIDTH 6 0
BBX 6 8 0 -1
BITMAP
00
00
F8
20
20
20
20
60
ENDCHAR
STARTCHAR U+0164
ENCODING 356
SWIDTH 562 0
DWIDTH 6 0
BBX 6 8 0 -1
BITMAP
50
F8
20
20
20
20
20
00
ENDCHAR
STARTCHAR U+0165
ENCODING 357
SWIDTH 562 0
DWIDTH 6 0
BBX 6 8 0 -1
BITMAP
18
00
F8
20
20
20
20
00
ENDCHAR
STARTCHAR U+0166
ENCODING 358
SWIDTH 562 0
DWIDTH 6 0
BBX 6 8 0 -1
BITMAP
00
F8
20
20
70
20
20
00
ENDCHAR
STARTCHAR U+0167
ENCODING 359
SWIDTH 562 0
DWIDTH 6 0
BBX 6 8 0 -1
BITMAP
00
00
F8
20
70
20
20
00
ENDCHAR
STARTCHAR U+0168
ENCODING 360
SWIDTH 562 0
DWIDTH 6 0
BBX 6 8 0 -1
BITMAP
D8
88
88
88
88
88
F8
00
ENDCHAR
STARTCHAR U+0169
ENCODING 361
SWIDTH 562 0
DWIDTH 6 0
BBX 6 8 0 -1
BITMAP
D8
00
88
88
88
88
F8
00
ENDCHAR
STARTCHAR U+016A
ENCODING 362
SWIDTH 562 0
DWIDTH 6 0
BBX 6 8 0 -1
BITMAP
70
88
88
88
88
88
F8
00
ENDCHAR
STARTCHAR U+016B
ENCODING 363
SWIDTH 562 0
DWIDTH 6 0
BBX 6 8 0 -1
BITMAP
F8
00
88
88
88
88
F8
00
ENDCHAR
STARTCHAR U+016C
ENCODING 364
SWIDTH 562 0
DWIDTH 6 0
BBX 6 8 0 -1
BITMAP
50
70
88
88
88
88
F8
00
ENDCHAR
STARTCHAR U+016D
ENCODING 365
SWIDTH 562 0
DWIDTH 6 0
BBX 6 8 0 -1
BITMAP
50
70
88
88
88
88
F8
00
ENDCHAR
STARTCHAR U+016E
ENCODING 366
SWIDTH 562 0
DWIDTH 6 0
BBX 6 8 0 -1
BITMAP
20
88
88
88
88
88
F8
00
ENDCHAR
STARTCHAR U+016F
ENCODING 367
SWIDTH 562 0
DWIDTH 6 0
BBX 6 8 0 -1
BITMAP
20
00
88
88
88
88
F8
00
ENDCHAR
STARTCHAR U+0170
ENCODING 368
SWIDTH 562 0
DWIDTH 6 0
BBX 6 8 0 -1
BITMAP
D8
88
88
88
88
88
F8
00
ENDCHAR
STARTCHAR U+0171
ENCODING 369
SWIDTH 562 0
DWIDTH 6 0
BBX 6 8 0 -1
BITMAP
D8
00
88
88
88
88
F8
00
ENDCHAR
STARTCHAR U+0172
ENCODING 370
SWIDTH 562 0
DWIDTH 6 0
BBX 6 8 0 -1
BITMAP
00
88
88
88
88
88
F8
20
ENDCHAR
STARTCHAR U+0173
ENCODING 371
SWIDTH 562 0
DWIDTH 6 0
BBX 6 8 0 -1
BITMAP
00
00
88
88
88
88
F8
20
ENDCHAR
STARTCHAR U+0174
ENCODING 372
SWIDTH 562 0
DWIDTH 6 0
BBX 6 8 0 -1
BITMAP
70
88
A8
A8
A8
A8
F8
00
ENDCHAR
STARTCHAR U+0175
ENCODING 373
SWIDTH 562 0
DWIDTH 6 0
BBX 6 8 0 -1
BITMAP
70
00
A8
A8
A8
A8
F8
00
ENDCHAR
STARTCHAR U+0176
ENCODING 374
SWIDTH 562 0
DWIDTH 6 0
BBX 6 8 0 -1
BITMAP
70
88
88
88
F8
20
20
00
ENDCHAR
STARTCHAR U+0177
ENCODING 375
SWIDTH 562 0
DWIDTH 6 0
BBX 6 8 0 -1
BITMAP
70
00
88
88
F8
20
20
00
ENDCHAR
STARTCHAR U+0178
ENCODING 376
SWIDTH 562 0
DWIDTH 6 0
BBX 6 8 0 -1
BITMAP
50
88
88
88
F8
20
20
00
ENDCHAR
STARTCHAR U+0179
ENCODING 377
SWIDTH 562 0
DWIDTH 6 0
BBX 6 8 0 -1
BITMAP
18
F8
08
F8
A0
80
F8
00
ENDCHAR
STARTCHAR U+017A
ENCODING 378
SWIDTH 562 0
DWIDTH 6 0
BBX 6 8 0 -1
BITMAP
18
00
F8
08
F8
80
F8
00
ENDCHAR
STARTCHAR U+017B
ENCODING 379
SWIDTH 562 0
DWIDTH 6 0
BBX 6 8 0 -1
BITMAP
20
F8
08
F8
A0
80
F8
00
ENDCHAR
STARTCHAR U+017C
ENCODING 380
SWIDTH 562 0
DWIDTH 6 0
BBX 6 8 0 -1
BITMAP
20
00
F8
08
F8
80
F8
00
ENDCHAR
STARTCHAR U+017D
ENCODING 381
SWIDTH 562 0
DWIDTH 6 0
BBX 6 8 0 -1
BITMAP
70
F8
08
F8
A0
80
F8
00
ENDCHAR
STARTCHAR U+017E
ENCODING 382
SWIDTH 562 0
DWIDTH 6 0
BBX 6 8 0 -1
BITMAP
70
00
F8
08
F8
80
F8
00
ENDCHAR
STARTCHAR U+017F
ENCODING 383
SWIDTH 562 0
DWIDTH 6 0
BBX 6 8 0 -1
BITMAP
00
00
F8
80
80
80
80
00
ENDCHAR
STARTCHAR char8208
ENCODING 8208
SWIDTH 562 0
DWIDTH 6 0
BBX 6 8 0 -1
BITMAP
00
00
00
00
70
00
00
00
ENDCHAR
STARTCHAR char8209
ENCODING 8209
SWIDTH 562 0
DWIDTH 6 0
BBX 6 8 0 -1
BITMAP
00
00
00
00
70
00
00
00
ENDCHAR
STARTCHAR char8210
ENCODING 8210
SWIDTH 562 0
DWIDTH 6 0
BBX 6 8 0 -1
BITMAP
00
00
00
00
70
00
00
00
ENDCHAR
STARTCHAR char8211
ENCODING 8211
SWIDTH 562 0
DWIDTH 6 0
BBX 6 8 0 -1
BITMAP
00
00
00
00
F8
00
00
00
ENDCHAR
STARTCHAR char8212
ENCODING 8212
SWIDTH 562 0
DWIDTH 6 0
BBX 6 8 0 -1
BITMAP
00
00
00
00
F8
00
00
00
ENDCHAR
STARTCHAR char8213
ENCODING 8213
SWIDTH 562 0
DWIDTH 6 0
BBX 6 8 0 -1
BITMAP
00
00
00
00
F8
00
00
00
ENDCHAR
STARTCHAR char8214
ENCODING 8214
SWIDTH 562 0
DWIDTH 6 0
BBX 6 8 0 -1
BITMAP
00
50
50
50
50
50
50
00
ENDCHAR
STARTCHAR char8215
ENCODING 8215
SWIDTH 562 0
DWIDTH 6 0
BBX 6 8 0 -1
BITMAP
00
00
00
00
00
F8
00
F8
ENDCHAR
STARTCHAR char8216
ENCODING 8216
SWIDTH 562 0
DWIDTH 6 0
BBX 6 8 0 -1
BITMAP
20
60
60
00
00
00
00
00
ENDCHAR
STARTCHAR char8217
ENCODING 8217
SWIDTH 562 0
DWIDTH 6 0
BBX 6 8 0 -1
BITMAP
30
30
20
00
00
00
00
00
ENDCHAR
STARTCHAR char8218
ENCODING 8218
SWIDTH 562 0
DWIDTH 6 0
BBX 6 8 0 -1
BITMAP
00
00
00
00
00
30
30
20
ENDCHAR
STARTCHAR char8219
ENCODING 8219
SWIDTH 562 0
DWIDTH 6 0
BBX 6 8 0 -1
BITMAP
60
60
20
00
00
00
00
00
ENDCHAR
STARTCHAR char8220
ENCODING 8220
SWIDTH 562 0
DWIDTH 6 0
BBX 6 8 0 -1
BITMAP
48
D8
D8
00
00
00
00
00
ENDCHAR
STARTCHAR char8221
ENCODING 8221
SWIDTH 562 0
DWIDTH 6 0
BBX 6 8 0 -1
BITMAP
D8
D8
90
00
00
00
00
00
ENDCHAR
STARTCHAR char8221
ENCODING 8222
SWIDTH 562 0
DWIDTH 6 0
BBX 6 8 0 -1
BITMAP
00
00
00
00
00
D8
D8
90
ENDCHAR
STARTCHAR char8221
ENCODING 8223
SWIDTH 562 0
DWIDTH 6 0
BBX 6 8 0 -1
BITMAP
D8
D8
48
00
00
00
00
00
ENDCHAR
STARTCHAR char8224
ENCODING 8224
SWIDTH 562 0
DWIDTH 6 0
BBX 6 8 0 -1
BITMAP
00
20
20
F8
20
20
20
00
ENDCHAR
STARTCHAR char8225
ENCODING 8225
SWIDTH 562 0
DWIDTH 6 0
BBX 6 8 0 -1
BITMAP
00
20
F8
20
20
F8
20
00
ENDCHAR
STARTCHAR char8226
ENCODING 8226
SWIDTH 562 0
DWIDTH 6 0
BBX 6 8 0 -1
BITMAP
00
00
00
70
50
70
00
00
ENDCHAR
STARTCHAR char8227
ENCODING 8227
SWIDTH 562 0
DWIDTH 6 0
BBX 6 8 0 -1
BITMAP
00
00
00
20
30
20
00
00
ENDCHAR
STARTCHAR char8228
ENCODING 8228
SWIDTH 562 0
DWIDTH 6 0
BBX 6 8 0 -1
BITMAP
00
00
00
00
00
00
20
00
ENDCHAR
STARTCHAR char8229
ENCODING 8229
SWIDTH 562 0
DWIDTH 6 0
BBX 6 8 0 -1
BITMAP
00
00
00
00
00
00
50
00
ENDCHAR
STARTCHAR char8230
ENCODING 8230
SWIDTH 562 0
DWIDTH 6 0
BBX 6 8 0 -1
BITMAP
00
00
00
00
00
00
A8
00
ENDCHAR
STARTCHAR char8231
ENCODING 8231
SWIDTH 562 0
DWIDTH 6 0
BBX 6 8 0 -1
BITMAP
00
00
00
00
20
00
00
00
ENDCHAR
STARTCHAR char8240
ENCODING 8240
SWIDTH 562 0
DWIDTH 6 0
BBX 6 8 0 -1
BITMAP
00
00
A0
20
E0
80
A8
00
ENDCHAR
STARTCHAR char8241
ENCODING 8241
SWIDTH 562 0
DWIDTH 6 0
BBX 6 8 0 -1
BITMAP
00
00
A0
20
E8
80
A8
00
ENDCHAR
STARTCHAR char8242
ENCODING 8242
SWIDTH 562 0
DWIDTH 6 0
BBX 6 8 0 -1
BITMAP
20
20
20
00
00
00
00
00
ENDCHAR
STARTCHAR char8243
ENCODING 8243
SWIDTH 562 0
DWIDTH 6 0
BBX 6 8 0 -1
BITMAP
50
50
50
00
00
00
00
00
ENDCHAR
STARTCHAR char8244
ENCODING 8244
SWIDTH 562 0
DWIDTH 6 0
BBX 6 8 0 -1
BITMAP
A8
A8
A8
00
00
00
00
00
ENDCHAR
STARTCHAR char8242
ENCODING 8245
SWIDTH 562 0
DWIDTH 6 0
BBX 6 8 0 -1
BITMAP
20
20
20
00
00
00
00
00
ENDCHAR
STARTCHAR char8243
ENCODING 8246
SWIDTH 562 0
DWIDTH 6 0
BBX 6 8 0 -1
BITMAP
50
50
50
00
00
00
00
00
ENDCHAR
STARTCHAR char8244
ENCODING 8247
SWIDTH 562 0
DWIDTH 6 0
BBX 6 8 0 -1
BITMAP
A8
A8
A8
00
00
00
00
00
ENDCHAR
STARTCHAR char8248
ENCODING 8248
SWIDTH 562 0
DWIDTH 6 0
BBX 6 8 0 -1
BITMAP
00
00
00
00
00
00
70
50
ENDCHAR
STARTCHAR char8249
ENCODING 8249
SWIDTH 562 0
DWIDTH 6 0
BBX 6 8 0 -1
BITMAP
00
10
30
60
60
30
10
00
ENDCHAR
STARTCHAR char8249
ENCODING 8250
SWIDTH 562 0
DWIDTH 6 0
BBX 6 8 0 -1
BITMAP
00
40
60
30
30
60
40
00
ENDCHAR
STARTCHAR char8251
ENCODING 8251
SWIDTH 562 0
DWIDTH 6 0
BBX 6 8 0 -1
BITMAP
00
A8
D8
20
A8
20
D8
A8
ENDCHAR
STARTCHAR char8252
ENCODING 8252
SWIDTH 562 0
DWIDTH 6 0
BBX 6 8 0 -1
BITMAP
00
50
50
50
50
00
50
00
ENDCHAR
STARTCHAR char8253
ENCODING 8253
SWIDTH 562 0
DWIDTH 6 0
BBX 6 8 0 -1
BITMAP
00
F8
28
38
20
00
20
00
ENDCHAR
STARTCHAR char8254
ENCODING 8254
SWIDTH 562 0
DWIDTH 6 0
BBX 6 8 0 -1
BITMAP
F8
00
00
00
00
00
00
00
ENDCHAR
STARTCHAR char8255
ENCODING 8255
SWIDTH 562 0
DWIDTH 6 0
BBX 6 8 0 -1
BITMAP
00
00
00
00
00
00
88
F8
ENDCHAR
STARTCHAR char8256
ENCODING 8256
SWIDTH 562 0
DWIDTH 6 0
BBX 6 8 0 -1
BITMAP
F8
88
00
00
00
00
00
00
ENDCHAR
STARTCHAR char8257
ENCODING 8257
SWIDTH 562 0
DWIDTH 6 0
BBX 6 8 0 -1
BITMAP
00
00
08
08
F8
90
98
00
ENDCHAR
STARTCHAR char8258
ENCODING 8258
SWIDTH 562 0
DWIDTH 6 0
BBX 6 8 0 -1
BITMAP
00
00
00
20
00
50
00
00
ENDCHAR
STARTCHAR char8259
ENCODING 8259
SWIDTH 562 0
DWIDTH 6 0
BBX 6 8 0 -1
BITMAP
00
00
00
00
F8
00
00
00
ENDCHAR
STARTCHAR char8260
ENCODING 8260
SWIDTH 562 0
DWIDTH 6 0
BBX 6 8 0 -1
BITMAP
00
08
08
08
F8
80
80
80
ENDCHAR
STARTCHAR char8261
ENCODING 8261
SWIDTH 562 0
DWIDTH 6 0
BBX 6 8 0 -1
BITMAP
00
30
20
20
30
20
20
30
ENDCHAR
STARTCHAR char8262
ENCODING 8262
SWIDTH 562 0
DWIDTH 6 0
BBX 6 8 0 -1
BITMAP
00
60
20
20
60
20
20
60
ENDCHAR
STARTCHAR char8263
ENCODING 8263
SWIDTH 562 0
DWIDTH 6 0
BBX 6 8 0 -1
BITMAP
00
D8
48
D8
90
00
90
00
ENDCHAR
STARTCHAR char8264
ENCODING 8264
SWIDTH 562 0
DWIDTH 6 0
BBX 6 8 0 -1
BITMAP
00
E8
28
68
48
00
48
00
ENDCHAR
STARTCHAR char8265
ENCODING 8265
SWIDTH 562 0
DWIDTH 6 0
BBX 6 8 0 -1
BITMAP
00
B8
88
98
90
00
90
00
ENDCHAR
STARTCHAR char8266
ENCODING 8266
SWIDTH 562 0
DWIDTH 6 0
BBX 6 8 0 -1
BITMAP
00
00
F8
08
08
38
20
20
ENDCHAR
STARTCHAR char8267
ENCODING 8267
SWIDTH 562 0
DWIDTH 6 0
BBX 6 8 0 -1
BITMAP
00
F8
B8
B8
B8
A0
A0
00
ENDCHAR
STARTCHAR char8268
ENCODING 8268
SWIDTH 562 0
DWIDTH 6 0
BBX 6 8 0 -1
BITMAP
00
00
00
50
D0
50
00
00
ENDCHAR
STARTCHAR char8269
ENCODING 8269
SWIDTH 562 0
DWIDTH 6 0
BBX 6 8 0 -1
BITMAP
00
00
00
50
58
50
00
00
ENDCHAR
STARTCHAR char8270
ENCODING 8270
SWIDTH 562 0
DWIDTH 6 0
BBX 6 8 0 -1
BITMAP
00
00
00
70
20
F8
20
70
ENDCHAR
STARTCHAR char8271
ENCODING 8271
SWIDTH 562 0
DWIDTH 6 0
BBX 6 8 0 -1
BITMAP
00
00
20
00
00
00
20
30
ENDCHAR
STARTCHAR char8272
ENCODING 8272
SWIDTH 562 0
DWIDTH 6 0
BBX 6 8 0 -1
BITMAP
F8
88
00
00
00
00
88
F8
ENDCHAR
STARTCHAR char8273
ENCODING 8273
SWIDTH 562 0
DWIDTH 6 0
BBX 6 8 0 -1
BITMAP
20
70
20
00
20
70
20
00
ENDCHAR
STARTCHAR char8274
ENCODING 8274
SWIDTH 562 0
DWIDTH 6 0
BBX 6 8 0 -1
BITMAP
00
50
10
30
60
40
50
00
ENDCHAR
STARTCHAR char8275
ENCODING 8275
SWIDTH 562 0
DWIDTH 6 0
BBX 6 8 0 -1
BITMAP
00
00
00
E0
38
00
00
00
ENDCHAR
STARTCHAR char8276
ENCODING 8276
SWIDTH 562 0
DWIDTH 6 0
BBX 6 8 0 -1
BITMAP
00
00
00
00
00
00
F8
88
ENDCHAR
STARTCHAR char8277
ENCODING 8277
SWIDTH 562 0
DWIDTH 6 0
BBX 6 8 0 -1
BITMAP
00
20
70
20
F8
20
70
20
ENDCHAR
STARTCHAR char8278
ENCODING 8278
SWIDTH 562 0
DWIDTH 6 0
BBX 6 8 0 -1
BITMAP
00
00
08
00
80
00
08
00
ENDCHAR
STARTCHAR char8279
ENCODING 8279
SWIDTH 562 0
DWIDTH 6 0
BBX 6 8 0 -1
BITMAP
A0
A0
00
50
50
00
00
00
ENDCHAR
STARTCHAR char8280
ENCODING 8280
SWIDTH 562 0
DWIDTH 6 0
BBX 6 8 0 -1
BITMAP
00
00
20
00
88
00
20
00
ENDCHAR
STARTCHAR char8281
ENCODING 8281
SWIDTH 562 0
DWIDTH 6 0
BBX 6 8 0 -1
BITMAP
00
00
88
00
20
00
88
00
ENDCHAR
STARTCHAR char8282
ENCODING 8282
SWIDTH 562 0
DWIDTH 6 0
BBX 6 8 0 -1
BITMAP
00
20
00
00
00
00
20
00
ENDCHAR
STARTCHAR char8283
ENCODING 8283
SWIDTH 562 0
DWIDTH 6 0
BBX 6 8 0 -1
BITMAP
00
20
00
00
88
00
00
20
ENDCHAR
STARTCHAR char8284
ENCODING 8284
SWIDTH 562 0
DWIDTH 6 0
BBX 6 8 0 -1
BITMAP
00
00
A8
20
F8
20
A8
00
ENDCHAR
STARTCHAR char8285
ENCODING 8285
SWIDTH 562 0
DWIDTH 6 0
BBX 6 8 0 -1
BITMAP
00
00
20
00
20
00
20
00
ENDCHAR
STARTCHAR char8286
ENCODING 8286
SWIDTH 562 0
DWIDTH 6 0
BBX 6 8 0 -1
BITMAP
00
20
00
20
00
20
00
20
ENDCHAR
STARTCHAR char8364
ENCODING 8364
SWIDTH 562 0
DWIDTH 6 0
BBX 6 8 0 -1
BITMAP
00
78
40
F0
F0
40
78
00
ENDCHAR
STARTCHAR char8592
ENCODING 8592
SWIDTH 562 0
DWIDTH 6 0
BBX 6 8 0 -1
BITMAP
00
00
00
40
F8
40
00
00
ENDCHAR
STARTCHAR char8592
ENCODING 8593
SWIDTH 562 0
DWIDTH 6 0
BBX 6 8 0 -1
BITMAP
00
00
20
70
20
20
20
00
ENDCHAR
STARTCHAR char8592
ENCODING 8594
SWIDTH 562 0
DWIDTH 6 0
BBX 6 8 0 -1
BITMAP
00
00
00
10
F8
10
00
00
ENDCHAR
STARTCHAR char8592
ENCODING 8595
SWIDTH 562 0
DWIDTH 6 0
BBX 6 8 0 -1
BITMAP
00
00
20
20
20
70
20
00
ENDCHAR
STARTCHAR char8592
ENCODING 8596
SWIDTH 562 0
DWIDTH 6 0
BBX 6 8 0 -1
BITMAP
00
00
00
50
F8
50
00
00
ENDCHAR
STARTCHAR char8592
ENCODING 8597
SWIDTH 562 0
DWIDTH 6 0
BBX 6 8 0 -1
BITMAP
00
00
20
70
20
70
20
00
ENDCHAR
STARTCHAR char8598
ENCODING 8598
SWIDTH 562 0
DWIDTH 6 0
BBX 6 8 0 -1
BITMAP
00
00
E0
C0
A0
10
08
00
ENDCHAR
STARTCHAR char8598
ENCODING 8599
SWIDTH 562 0
DWIDTH 6 0
BBX 6 8 0 -1
BITMAP
00
00
38
18
28
40
80
00
ENDCHAR
STARTCHAR char8598
ENCODING 8600
SWIDTH 562 0
DWIDTH 6 0
BBX 6 8 0 -1
BITMAP
00
00
80
40
28
18
38
00
ENDCHAR
STARTCHAR char8598
ENCODING 8601
SWIDTH 562 0
DWIDTH 6 0
BBX 6 8 0 -1
BITMAP
00
00
08
10
A0
C0
E0
00
ENDCHAR
STARTCHAR char8592
ENCODING 8602
SWIDTH 562 0
DWIDTH 6 0
BBX 6 8 0 -1
BITMAP
00
00
10
50
F8
60
20
00
ENDCHAR
STARTCHAR char8603
ENCODING 8603
SWIDTH 562 0
DWIDTH 6 0
BBX 6 8 0 -1
BITMAP
00
00
20
30
F8
50
40
00
ENDCHAR
STARTCHAR char8604
ENCODING 8604
SWIDTH 562 0
DWIDTH 6 0
BBX 6 8 0 -1
BITMAP
00
00
00
D8
D0
70
00
00
ENDCHAR
STARTCHAR char8604
ENCODING 8605
SWIDTH 562 0
DWIDTH 6 0
BBX 6 8 0 -1
BITMAP
00
00
00
D8
58
70
00
00
ENDCHAR
STARTCHAR char8606
ENCODING 8606
SWIDTH 562 0
DWIDTH 6 0
BBX 6 8 0 -1
BITMAP
00
00
00
48
D8
48
00
00
ENDCHAR
STARTCHAR char8607
ENCODING 8607
SWIDTH 562 0
DWIDTH 6 0
BBX 6 8 0 -1
BITMAP
00
00
20
70
00
20
70
00
ENDCHAR
STARTCHAR char8608
ENCODING 8608
SWIDTH 562 0
DWIDTH 6 0
BBX 6 8 0 -1
BITMAP
00
00
00
90
D8
90
00
00
ENDCHAR
STARTCHAR char8609
ENCODING 8609
SWIDTH 562 0
DWIDTH 6 0
BBX 6 8 0 -1
BITMAP
00
00
70
20
00
70
20
00
ENDCHAR
STARTCHAR char8606
ENCODING 8610
SWIDTH 562 0
DWIDTH 6 0
BBX 6 8 0 -1
BITMAP
00
00
00
58
F0
58
00
00
ENDCHAR
STARTCHAR char8607
ENCODING 8611
SWIDTH 562 0
DWIDTH 6 0
BBX 6 8 0 -1
BITMAP
00
00
00
D0
78
D0
00
00
ENDCHAR
STARTCHAR char8606
ENCODING 8612
SWIDTH 562 0
DWIDTH 6 0
BBX 6 8 0 -1
BITMAP
00
00
00
48
F8
48
00
00
ENDCHAR
STARTCHAR char8607
ENCODING 8613
SWIDTH 562 0
DWIDTH 6 0
BBX 6 8 0 -1
BITMAP
00
00
20
70
20
20
70
00
ENDCHAR
STARTCHAR char8608
ENCODING 8614
SWIDTH 562 0
DWIDTH 6 0
BBX 6 8 0 -1
BITMAP
00
00
00
90
F8
90
00
00
ENDCHAR
STARTCHAR char8609
ENCODING 8615
SWIDTH 562 0
DWIDTH 6 0
BBX 6 8 0 -1
BITMAP
00
00
70
20
20
70
20
00
ENDCHAR
STARTCHAR char8616
ENCODING 8616
SWIDTH 562 0
DWIDTH 6 0
BBX 6 8 0 -1
BITMAP
00
20
70
20
20
70
20
F8
ENDCHAR
STARTCHAR char8617
ENCODING 8617
SWIDTH 562 0
DWIDTH 6 0
BBX 6 8 0 -1
BITMAP
00
00
18
48
F8
40
00
00
ENDCHAR
STARTCHAR char8618
ENCODING 8618
SWIDTH 562 0
DWIDTH 6 0
BBX 6 8 0 -1
BITMAP
00
00
C0
90
F8
10
00
00
ENDCHAR
STARTCHAR char8619
ENCODING 8619
SWIDTH 562 0
DWIDTH 6 0
BBX 6 8 0 -1
BITMAP
00
00
00
58
F8
50
00
00
ENDCHAR
STARTCHAR char8620
ENCODING 8620
SWIDTH 562 0
DWIDTH 6 0
BBX 6 8 0 -1
BITMAP
00
00
00
D0
F8
50
00
00
ENDCHAR
STARTCHAR char8622
ENCODING 8622
SWIDTH 562 0
DWIDTH 6 0
BBX 6 8 0 -1
BITMAP
00
20
00
50
D8
50
00
20
ENDCHAR
STARTCHAR char8622
ENCODING 8623
SWIDTH 562 0
DWIDTH 6 0
BBX 6 8 0 -1
BITMAP
00
80
80
F0
10
38
10
00
ENDCHAR
STARTCHAR char8623
ENCODING 8624
SWIDTH 562 0
DWIDTH 6 0
BBX 6 8 0 -1
BITMAP
00
00
40
F8
48
08
08
00
ENDCHAR
STARTCHAR char8623
ENCODING 8625
SWIDTH 562 0
DWIDTH 6 0
BBX 6 8 0 -1
BITMAP
00
00
10
F8
90
80
80
00
ENDCHAR
STARTCHAR char8623
ENCODING 8626
SWIDTH 562 0
DWIDTH 6 0
BBX 6 8 0 -1
BITMAP
00
00
08
08
48
F8
40
00
ENDCHAR
STARTCHAR char8623
ENCODING 8627
SWIDTH 562 0
DWIDTH 6 0
BBX 6 8 0 -1
BITMAP
00
00
80
80
90
F8
10
00
ENDCHAR
STARTCHAR char8623
ENCODING 8628
SWIDTH 562 0
DWIDTH 6 0
BBX 6 8 0 -1
BITMAP
00
00
F0
10
10
38
10
00
ENDCHAR
STARTCHAR char8623
ENCODING 8629
SWIDTH 562 0
DWIDTH 6 0
BBX 6 8 0 -1
BITMAP
00
00
08
48
F8
40
00
00
ENDCHAR
STARTCHAR char8630
ENCODING 8630
SWIDTH 562 0
DWIDTH 6 0
BBX 6 8 0 -1
BITMAP
00
00
78
48
48
E8
40
00
ENDCHAR
STARTCHAR char8630
ENCODING 8631
SWIDTH 562 0
DWIDTH 6 0
BBX 6 8 0 -1
BITMAP
00
00
F0
90
90
B8
10
00
ENDCHAR
STARTCHAR char8632
ENCODING 8632
SWIDTH 562 0
DWIDTH 6 0
BBX 6 8 0 -1
BITMAP
F8
00
E0
C0
A0
10
08
00
ENDCHAR
STARTCHAR char8633
ENCODING 8633
SWIDTH 562 0
DWIDTH 6 0
BBX 6 8 0 -1
BITMAP
00
A0
F8
A0
00
28
F8
28
ENDCHAR
STARTCHAR char8634
ENCODING 8634
SWIDTH 562 0
DWIDTH 6 0
BBX 6 8 0 -1
BITMAP
00
38
B0
A8
88
88
F8
00
ENDCHAR
STARTCHAR char8634
ENCODING 8635
SWIDTH 562 0
DWIDTH 6 0
BBX 6 8 0 -1
BITMAP
00
E0
68
A8
88
88
F8
00
ENDCHAR
STARTCHAR char8636
ENCODING 8636
SWIDTH 562 0
DWIDTH 6 0
BBX 6 8 0 -1
BITMAP
00
00
00
40
F8
00
00
00
ENDCHAR
STARTCHAR char8637
ENCODING 8637
SWIDTH 562 0
DWIDTH 6 0
BBX 6 8 0 -1
BITMAP
00
00
00
00
F8
40
00
00
ENDCHAR
STARTCHAR char8638
ENCODING 8638
SWIDTH 562 0
DWIDTH 6 0
BBX 6 8 0 -1
BITMAP
00
00
20
30
20
20
20
00
ENDCHAR
STARTCHAR char8639
ENCODING 8639
SWIDTH 562 0
DWIDTH 6 0
BBX 6 8 0 -1
BITMAP
00
00
20
60
20
20
20
00
ENDCHAR
STARTCHAR char8640
ENCODING 8640
SWIDTH 562 0
DWIDTH 6 0
BBX 6 8 0 -1
BITMAP
00
00
00
10
F8
00
00
00
ENDCHAR
STARTCHAR char8641
ENCODING 8641
SWIDTH 562 0
DWIDTH 6 0
BBX 6 8 0 -1
BITMAP
00
00
00
00
F8
10
00
00
ENDCHAR
STARTCHAR char8642
ENCODING 8642
SWIDTH 562 0
DWIDTH 6 0
BBX 6 8 0 -1
BITMAP
00
00
20
20
20
30
20
00
ENDCHAR
STARTCHAR char8643
ENCODING 8643
SWIDTH 562 0
DWIDTH 6 0
BBX 6 8 0 -1
BITMAP
00
00
20
20
20
60
20
00
ENDCHAR
STARTCHAR char8644
ENCODING 8644
SWIDTH 562 0
DWIDTH 6 0
BBX 6 8 0 -1
BITMAP
00
10
F8
10
40
F8
40
00
ENDCHAR
STARTCHAR char8644
ENCODING 8645
SWIDTH 562 0
DWIDTH 6 0
BBX 6 8 0 -1
BITMAP
00
10
38
50
50
50
E0
40
ENDCHAR
STARTCHAR char8644
ENCODING 8646
SWIDTH 562 0
DWIDTH 6 0
BBX 6 8 0 -1
BITMAP
00
40
F8
40
10
F8
10
00
ENDCHAR
STARTCHAR char8644
ENCODING 8647
SWIDTH 562 0
DWIDTH 6 0
BBX 6 8 0 -1
BITMAP
00
40
F8
40
40
F8
40
00
ENDCHAR
STARTCHAR char8644
ENCODING 8648
SWIDTH 562 0
DWIDTH 6 0
BBX 6 8 0 -1
BITMAP
00
50
F8
50
50
50
50
00
ENDCHAR
STARTCHAR char8644
ENCODING 8649
SWIDTH 562 0
DWIDTH 6 0
BBX 6 8 0 -1
BITMAP
00
10
F8
10
10
F8
10
00
ENDCHAR
STARTCHAR char8644
ENCODING 8650
SWIDTH 562 0
DWIDTH 6 0
BBX 6 8 0 -1
BITMAP
00
50
50
50
50
F8
50
00
ENDCHAR
STARTCHAR char8651
ENCODING 8651
SWIDTH 562 0
DWIDTH 6 0
BBX 6 8 0 -1
BITMAP
00
00
40
F8
00
F8
10
00
ENDCHAR
STARTCHAR char8651
ENCODING 8652
SWIDTH 562 0
DWIDTH 6 0
BBX 6 8 0 -1
BITMAP
00
00
10
F8
00
F8
40
00
ENDCHAR
STARTCHAR char8592
ENCODING 8653
SWIDTH 562 0
DWIDTH 6 0
BBX 6 8 0 -1
BITMAP
00
00
10
78
D0
78
10
00
ENDCHAR
STARTCHAR char8592
ENCODING 8654
SWIDTH 562 0
DWIDTH 6 0
BBX 6 8 0 -1
BITMAP
00
20
20
70
D8
70
20
20
ENDCHAR
STARTCHAR char8592
ENCODING 8655
SWIDTH 562 0
DWIDTH 6 0
BBX 6 8 0 -1
BITMAP
00
00
40
F0
58
F0
40
00
ENDCHAR
STARTCHAR char8592
ENCODING 8656
SWIDTH 562 0
DWIDTH 6 0
BBX 6 8 0 -1
BITMAP
00
00
00
78
C0
78
00
00
ENDCHAR
STARTCHAR char8592
ENCODING 8657
SWIDTH 562 0
DWIDTH 6 0
BBX 6 8 0 -1
BITMAP
00
00
20
70
50
50
50
00
ENDCHAR
STARTCHAR char8592
ENCODING 8658
SWIDTH 562 0
DWIDTH 6 0
BBX 6 8 0 -1
BITMAP
00
00
00
F0
18
F0
00
00
ENDCHAR
STARTCHAR char8592
ENCODING 8659
SWIDTH 562 0
DWIDTH 6 0
BBX 6 8 0 -1
BITMAP
00
00
50
50
50
70
20
00
ENDCHAR
STARTCHAR char8592
ENCODING 8660
SWIDTH 562 0
DWIDTH 6 0
BBX 6 8 0 -1
BITMAP
00
00
00
70
D8
70
00
00
ENDCHAR
STARTCHAR char8592
ENCODING 8661
SWIDTH 562 0
DWIDTH 6 0
BBX 6 8 0 -1
BITMAP
00
00
20
70
50
70
20
00
ENDCHAR
STARTCHAR char8598
ENCODING 8662
SWIDTH 562 0
DWIDTH 6 0
BBX 6 8 0 -1
BITMAP
00
00
E0
A0
D0
28
10
00
ENDCHAR
STARTCHAR char8598
ENCODING 8663
SWIDTH 562 0
DWIDTH 6 0
BBX 6 8 0 -1
BITMAP
00
00
38
28
58
A0
40
00
ENDCHAR
STARTCHAR char8598
ENCODING 8664
SWIDTH 562 0
DWIDTH 6 0
BBX 6 8 0 -1
BITMAP
00
00
40
A0
58
28
38
00
ENDCHAR
STARTCHAR char8598
ENCODING 8665
SWIDTH 562 0
DWIDTH 6 0
BBX 6 8 0 -1
BITMAP
00
00
10
28
D0
A0
E0
00
ENDCHAR
STARTCHAR char8666
ENCODING 8666
SWIDTH 562 0
DWIDTH 6 0
BBX 6 8 0 -1
BITMAP
00
00
38
60
F8
60
38
00
ENDCHAR
STARTCHAR char8666
ENCODING 8667
SWIDTH 562 0
DWIDTH 6 0
BBX 6 8 0 -1
BITMAP
00
00
E0
30
F8
30
E0
00
ENDCHAR
STARTCHAR char8668
ENCODING 8668
SWIDTH 562 0
DWIDTH 6 0
BBX 6 8 0 -1
BITMAP
00
00
00
D0
A8
00
00
00
ENDCHAR
STARTCHAR char8668
ENCODING 8669
SWIDTH 562 0
DWIDTH 6 0
BBX 6 8 0 -1
BITMAP
00
00
00
58
A8
00
00
00
ENDCHAR
STARTCHAR char8672
ENCODING 8672
SWIDTH 562 0
DWIDTH 6 0
BBX 6 8 0 -1
BITMAP
00
00
00
40
D0
40
00
00
ENDCHAR
STARTCHAR char8673
ENCODING 8673
SWIDTH 562 0
DWIDTH 6 0
BBX 6 8 0 -1
BITMAP
00
00
20
70
00
20
00
00
ENDCHAR
STARTCHAR char8674
ENCODING 8674
SWIDTH 562 0
DWIDTH 6 0
BBX 6 8 0 -1
BITMAP
00
00
00
10
58
10
00
00
ENDCHAR
STARTCHAR char8675
ENCODING 8675
SWIDTH 562 0
DWIDTH 6 0
BBX 6 8 0 -1
BITMAP
00
00
00
20
00
70
20
00
ENDCHAR
STARTCHAR char8676
ENCODING 8676
SWIDTH 562 0
DWIDTH 6 0
BBX 6 8 0 -1
BITMAP
00
00
00
A0
F8
A0
00
00
ENDCHAR
STARTCHAR char8677
ENCODING 8677
SWIDTH 562 0
DWIDTH 6 0
BBX 6 8 0 -1
BITMAP
00
00
00
28
F8
28
00
00
ENDCHAR
STARTCHAR char8592
ENCODING 8678
SWIDTH 562 0
DWIDTH 6 0
BBX 6 8 0 -1
BITMAP
00
00
00
78
C8
78
00
00
ENDCHAR
STARTCHAR char8592
ENCODING 8679
SWIDTH 562 0
DWIDTH 6 0
BBX 6 8 0 -1
BITMAP
00
00
20
70
50
50
70
00
ENDCHAR
STARTCHAR char8592
ENCODING 8680
SWIDTH 562 0
DWIDTH 6 0
BBX 6 8 0 -1
BITMAP
00
00
00
F0
98
F0
00
00
ENDCHAR
STARTCHAR char8592
ENCODING 8681
SWIDTH 562 0
DWIDTH 6 0
BBX 6 8 0 -1
BITMAP
00
00
70
50
50
70
20
00
ENDCHAR
STARTCHAR char8682
ENCODING 8682
SWIDTH 562 0
DWIDTH 6 0
BBX 6 8 0 -1
BITMAP
00
20
70
50
70
00
70
00
ENDCHAR
STARTCHAR char8683
ENCODING 8683
SWIDTH 562 0
DWIDTH 6 0
BBX 6 8 0 -1
BITMAP
00
20
70
50
50
D8
F8
00
ENDCHAR
STARTCHAR char8704
ENCODING 8704
SWIDTH 562 0
DWIDTH 6 0
BBX 6 8 0 -1
BITMAP
00
88
88
F8
88
88
F8
00
ENDCHAR
STARTCHAR char8705
ENCODING 8705
SWIDTH 562 0
DWIDTH 6 0
BBX 6 8 0 -1
BITMAP
00
F8
88
80
80
88
F8
00
ENDCHAR
STARTCHAR char8706
ENCODING 8706
SWIDTH 562 0
DWIDTH 6 0
BBX 6 8 0 -1
BITMAP
00
00
78
08
F8
88
F8
00
ENDCHAR
STARTCHAR char8707
ENCODING 8707
SWIDTH 562 0
DWIDTH 6 0
BBX 6 8 0 -1
BITMAP
00
F8
08
08
F8
08
F8
00
ENDCHAR
STARTCHAR char8708
ENCODING 8708
SWIDTH 562 0
DWIDTH 6 0
BBX 6 8 0 -1
BITMAP
20
F8
28
28
F8
28
F8
20
ENDCHAR
STARTCHAR char8709
ENCODING 8709
SWIDTH 562 0
DWIDTH 6 0
BBX 6 8 0 -1
BITMAP
10
F8
A8
A8
A8
A8
F8
40
ENDCHAR
STARTCHAR char8710
ENCODING 8710
SWIDTH 562 0
DWIDTH 6 0
BBX 6 8 0 -1
BITMAP
00
20
70
50
D8
88
F8
00
ENDCHAR
STARTCHAR char8710
ENCODING 8711
SWIDTH 562 0
DWIDTH 6 0
BBX 6 8 0 -1
BITMAP
00
F8
88
D8
50
70
20
00
ENDCHAR
STARTCHAR char8712
ENCODING 8712
SWIDTH 562 0
DWIDTH 6 0
BBX 6 8 0 -1
BITMAP
00
F8
80
80
F8
80
F8
00
ENDCHAR
STARTCHAR char8713
ENCODING 8713
SWIDTH 562 0
DWIDTH 6 0
BBX 6 8 0 -1
BITMAP
20
F8
A0
A0
F8
A0
F8
20
ENDCHAR
STARTCHAR char8714
ENCODING 8714
SWIDTH 562 0
DWIDTH 6 0
BBX 6 8 0 -1
BITMAP
00
00
F8
80
F8
80
F8
00
ENDCHAR
STARTCHAR char8715
ENCODING 8715
SWIDTH 562 0
DWIDTH 6 0
BBX 6 8 0 -1
BITMAP
00
F8
08
08
F8
08
F8
00
ENDCHAR
STARTCHAR char8716
ENCODING 8716
SWIDTH 562 0
DWIDTH 6 0
BBX 6 8 0 -1
BITMAP
20
F8
28
28
F8
28
F8
20
ENDCHAR
STARTCHAR char8717
ENCODING 8717
SWIDTH 562 0
DWIDTH 6 0
BBX 6 8 0 -1
BITMAP
00
00
F8
08
F8
08
F8
00
ENDCHAR
STARTCHAR char8718
ENCODING 8718
SWIDTH 562 0
DWIDTH 6 0
BBX 6 8 0 -1
BITMAP
00
00
00
70
70
70
70
00
ENDCHAR
STARTCHAR char8719
ENCODING 8719
SWIDTH 562 0
DWIDTH 6 0
BBX 6 8 0 -1
BITMAP
00
F8
50
50
50
50
50
00
ENDCHAR
STARTCHAR char8720
ENCODING 8720
SWIDTH 562 0
DWIDTH 6 0
BBX 6 8 0 -1
BITMAP
00
50
50
50
50
50
F8
00
ENDCHAR
STARTCHAR char8721
ENCODING 8721
SWIDTH 562 0
DWIDTH 6 0
BBX 6 8 0 -1
BITMAP
00
F8
C0
40
E0
80
F8
00
ENDCHAR
STARTCHAR char8722
ENCODING 8722
SWIDTH 562 0
DWIDTH 6 0
BBX 6 8 0 -1
BITMAP
00
00
00
00
F8
00
00
00
ENDCHAR
STARTCHAR char8723
ENCODING 8723
SWIDTH 562 0
DWIDTH 6 0
BBX 6 8 0 -1
BITMAP
00
F8
20
20
F8
20
20
00
ENDCHAR
STARTCHAR char8724
ENCODING 8724
SWIDTH 562 0
DWIDTH 6 0
BBX 6 8 0 -1
BITMAP
00
20
00
20
F8
20
20
00
ENDCHAR
STARTCHAR char8725
ENCODING 8725
SWIDTH 562 0
DWIDTH 6 0
BBX 6 8 0 -1
BITMAP
00
08
08
08
F8
80
80
80
ENDCHAR
STARTCHAR char8725
ENCODING 8726
SWIDTH 562 0
DWIDTH 6 0
BBX 6 8 0 -1
BITMAP
00
80
80
80
F8
08
08
08
ENDCHAR
STARTCHAR char8727
ENCODING 8727
SWIDTH 562 0
DWIDTH 6 0
BBX 6 8 0 -1
BITMAP
00
00
70
20
F8
20
70
00
ENDCHAR
STARTCHAR char8728
ENCODING 8728
SWIDTH 562 0
DWIDTH 6 0
BBX 6 8 0 -1
BITMAP
00
00
00
70
50
70
00
00
ENDCHAR
STARTCHAR char8729
ENCODING 8729
SWIDTH 562 0
DWIDTH 6 0
BBX 6 8 0 -1
BITMAP
00
00
00
70
70
70
00
00
ENDCHAR
STARTCHAR char8730
ENCODING 8730
SWIDTH 562 0
DWIDTH 6 0
BBX 6 8 0 -1
BITMAP
00
00
18
10
10
D0
70
00
ENDCHAR
STARTCHAR char8730
ENCODING 8731
SWIDTH 562 0
DWIDTH 6 0
BBX 6 8 0 -1
BITMAP
C0
40
D8
50
D0
10
F0
00
ENDCHAR
STARTCHAR char8730
ENCODING 8732
SWIDTH 562 0
DWIDTH 6 0
BBX 6 8 0 -1
BITMAP
00
A0
E8
28
08
C8
78
00
ENDCHAR
STARTCHAR char8733
ENCODING 8733
SWIDTH 562 0
DWIDTH 6 0
BBX 6 8 0 -1
BITMAP
00
00
00
F0
A0
F0
00
00
ENDCHAR
STARTCHAR char8734
ENCODING 8734
SWIDTH 562 0
DWIDTH 6 0
BBX 6 8 0 -1
BITMAP
00
00
00
F8
A8
F8
00
00
ENDCHAR
STARTCHAR char8735
ENCODING 8735
SWIDTH 562 0
DWIDTH 6 0
BBX 6 8 0 -1
BITMAP
00
00
80
80
80
80
F8
00
ENDCHAR
STARTCHAR char8739
ENCODING 8739
SWIDTH 562 0
DWIDTH 6 0
BBX 6 8 0 -1
BITMAP
00
20
20
20
20
20
20
00
ENDCHAR
STARTCHAR char8740
ENCODING 8740
SWIDTH 562 0
DWIDTH 6 0
BBX 6 8 0 -1
BITMAP
00
20
20
30
60
20
20
00
ENDCHAR
STARTCHAR char8741
ENCODING 8741
SWIDTH 562 0
DWIDTH 6 0
BBX 6 8 0 -1
BITMAP
00
50
50
50
50
50
50
00
ENDCHAR
STARTCHAR char8742
ENCODING 8742
SWIDTH 562 0
DWIDTH 6 0
BBX 6 8 0 -1
BITMAP
00
50
58
70
D0
50
50
00
ENDCHAR
STARTCHAR char8743
ENCODING 8743
SWIDTH 562 0
DWIDTH 6 0
BBX 6 8 0 -1
BITMAP
00
20
70
50
D8
88
88
00
ENDCHAR
STARTCHAR char8743
ENCODING 8744
SWIDTH 562 0
DWIDTH 6 0
BBX 6 8 0 -1
BITMAP
00
88
88
D8
50
70
20
00
ENDCHAR
STARTCHAR char8745
ENCODING 8745
SWIDTH 562 0
DWIDTH 6 0
BBX 6 8 0 -1
BITMAP
00
70
D8
88
88
88
88
00
ENDCHAR
STARTCHAR char8745
ENCODING 8746
SWIDTH 562 0
DWIDTH 6 0
BBX 6 8 0 -1
BITMAP
00
88
88
88
88
D8
70
00
ENDCHAR
STARTCHAR char8747
ENCODING 8747
SWIDTH 562 0
DWIDTH 6 0
BBX 6 8 0 -1
BITMAP
00
30
20
20
20
20
20
60
ENDCHAR
STARTCHAR char8748
ENCODING 8748
SWIDTH 562 0
DWIDTH 6 0
BBX 6 8 0 -1
BITMAP
00
78
50
50
50
50
50
F0
ENDCHAR
STARTCHAR char8750
ENCODING 8750
SWIDTH 562 0
DWIDTH 6 0
BBX 6 8 0 -1
BITMAP
00
30
20
F8
A8
F8
20
60
ENDCHAR
STARTCHAR char8748
ENCODING 8751
SWIDTH 562 0
DWIDTH 6 0
BBX 6 8 0 -1
BITMAP
00
78
50
F8
D8
F8
50
F0
ENDCHAR
STARTCHAR char8756
ENCODING 8756
SWIDTH 562 0
DWIDTH 6 0
BBX 6 8 0 -1
BITMAP
00
00
20
00
00
00
88
00
ENDCHAR
STARTCHAR char8757
ENCODING 8757
SWIDTH 562 0
DWIDTH 6 0
BBX 6 8 0 -1
BITMAP
00
00
88
00
00
00
20
00
ENDCHAR
STARTCHAR char8758
ENCODING 8758
SWIDTH 562 0
DWIDTH 6 0
BBX 6 8 0 -1
BITMAP
00
00
20
00
00
00
20
00
ENDCHAR
STARTCHAR char8759
ENCODING 8759
SWIDTH 562 0
DWIDTH 6 0
BBX 6 8 0 -1
BITMAP
00
00
88
00
00
00
88
00
ENDCHAR
STARTCHAR char8770
ENCODING 8770
SWIDTH 562 0
DWIDTH 6 0
BBX 6 8 0 -1
BITMAP
00
00
00
F8
00
E8
B8
00
ENDCHAR
STARTCHAR char8771
ENCODING 8771
SWIDTH 562 0
DWIDTH 6 0
BBX 6 8 0 -1
BITMAP
00
00
E8
B8
00
F8
00
00
ENDCHAR
STARTCHAR char8772
ENCODING 8772
SWIDTH 562 0
DWIDTH 6 0
BBX 6 8 0 -1
BITMAP
00
20
E8
B8
20
F8
20
00
ENDCHAR
STARTCHAR char8776
ENCODING 8776
SWIDTH 562 0
DWIDTH 6 0
BBX 6 8 0 -1
BITMAP
00
00
E8
B8
00
E8
B8
00
ENDCHAR
STARTCHAR char8777
ENCODING 8777
SWIDTH 562 0
DWIDTH 6 0
BBX 6 8 0 -1
BITMAP
00
20
E8
B8
20
E8
B8
20
ENDCHAR
STARTCHAR char8788
ENCODING 8788
SWIDTH 562 0
DWIDTH 6 0
BBX 6 8 0 -1
BITMAP
00
00
00
B8
00
B8
00
00
ENDCHAR
STARTCHAR char8789
ENCODING 8789
SWIDTH 562 0
DWIDTH 6 0
BBX 6 8 0 -1
BITMAP
00
00
00
E8
00
E8
00
00
ENDCHAR
STARTCHAR char8800
ENCODING 8800
SWIDTH 562 0
DWIDTH 6 0
BBX 6 8 0 -1
BITMAP
00
00
20
F8
20
F8
20
00
ENDCHAR
STARTCHAR char8801
ENCODING 8801
SWIDTH 562 0
DWIDTH 6 0
BBX 6 8 0 -1
BITMAP
00
00
F8
00
F8
00
F8
00
ENDCHAR
STARTCHAR char8802
ENCODING 8802
SWIDTH 562 0
DWIDTH 6 0
BBX 6 8 0 -1
BITMAP
00
20
F8
20
F8
20
F8
20
ENDCHAR
STARTCHAR char8803
ENCODING 8803
SWIDTH 562 0
DWIDTH 6 0
BBX 6 8 0 -1
BITMAP
00
F8
00
F8
00
F8
00
F8
ENDCHAR
STARTCHAR char8804
ENCODING 8804
SWIDTH 562 0
DWIDTH 6 0
BBX 6 8 0 -1
BITMAP
00
78
C0
C0
78
00
F8
00
ENDCHAR
STARTCHAR char8804
ENCODING 8805
SWIDTH 562 0
DWIDTH 6 0
BBX 6 8 0 -1
BITMAP
00
F0
18
18
F0
00
F8
00
ENDCHAR
STARTCHAR char8804
ENCODING 8814
SWIDTH 562 0
DWIDTH 6 0
BBX 6 8 0 -1
BITMAP
00
10
78
D0
D0
78
10
00
ENDCHAR
STARTCHAR char8804
ENCODING 8815
SWIDTH 562 0
DWIDTH 6 0
BBX 6 8 0 -1
BITMAP
00
40
F0
58
58
F0
40
00
ENDCHAR
STARTCHAR char8804
ENCODING 8816
SWIDTH 562 0
DWIDTH 6 0
BBX 6 8 0 -1
BITMAP
10
78
D0
D0
78
10
F8
10
ENDCHAR
STARTCHAR char8804
ENCODING 8817
SWIDTH 562 0
DWIDTH 6 0
BBX 6 8 0 -1
BITMAP
40
F0
58
58
F0
40
F8
40
ENDCHAR
STARTCHAR char8853
ENCODING 8853
SWIDTH 562 0
DWIDTH 6 0
BBX 6 8 0 -1
BITMAP
00
00
F8
A8
F8
A8
F8
00
ENDCHAR
STARTCHAR char8854
ENCODING 8854
SWIDTH 562 0
DWIDTH 6 0
BBX 6 8 0 -1
BITMAP
00
00
F8
88
F8
88
F8
00
ENDCHAR
STARTCHAR char8857
ENCODING 8857
SWIDTH 562 0
DWIDTH 6 0
BBX 6 8 0 -1
BITMAP
00
00
F8
88
A8
88
F8
00
ENDCHAR
STARTCHAR char8862
ENCODING 8862
SWIDTH 562 0
DWIDTH 6 0
BBX 6 8 0 -1
BITMAP
00
00
F8
A8
F8
A8
F8
00
ENDCHAR
STARTCHAR char8863
ENCODING 8863
SWIDTH 562 0
DWIDTH 6 0
BBX 6 8 0 -1
BITMAP
00
00
F8
88
F8
88
F8
00
ENDCHAR
STARTCHAR char8865
ENCODING 8865
SWIDTH 562 0
DWIDTH 6 0
BBX 6 8 0 -1
BITMAP
00
00
F8
88
A8
88
F8
00
ENDCHAR
STARTCHAR char8866
ENCODING 8866
SWIDTH 562 0
DWIDTH 6 0
BBX 6 8 0 -1
BITMAP
00
00
80
80
F8
80
80
00
ENDCHAR
STARTCHAR char8867
ENCODING 8867
SWIDTH 562 0
DWIDTH 6 0
BBX 6 8 0 -1
BITMAP
00
00
08
08
F8
08
08
00
ENDCHAR
STARTCHAR char8868
ENCODING 8868
SWIDTH 562 0
DWIDTH 6 0
BBX 6 8 0 -1
BITMAP
00
00
F8
20
20
20
20
00
ENDCHAR
STARTCHAR char8869
ENCODING 8869
SWIDTH 562 0
DWIDTH 6 0
BBX 6 8 0 -1
BITMAP
00
00
20
20
20
20
F8
00
ENDCHAR
STARTCHAR char8870
ENCODING 8870
SWIDTH 562 0
DWIDTH 6 0
BBX 6 8 0 -1
BITMAP
00
00
80
80
E0
80
80
00
ENDCHAR
STARTCHAR char8871
ENCODING 8871
SWIDTH 562 0
DWIDTH 6 0
BBX 6 8 0 -1
BITMAP
00
00
80
E0
80
E0
80
00
ENDCHAR
STARTCHAR char8872
ENCODING 8872
SWIDTH 562 0
DWIDTH 6 0
BBX 6 8 0 -1
BITMAP
00
00
80
F8
80
F8
80
00
ENDCHAR
STARTCHAR char8873
ENCODING 8873
SWIDTH 562 0
DWIDTH 6 0
BBX 6 8 0 -1
BITMAP
00
00
A0
A0
B8
A0
A0
00
ENDCHAR
STARTCHAR char8875
ENCODING 8875
SWIDTH 562 0
DWIDTH 6 0
BBX 6 8 0 -1
BITMAP
00
00
90
90
F8
A0
A0
00
ENDCHAR
STARTCHAR char9193
ENCODING 9193
SWIDTH 562 0
DWIDTH 6 0
BBX 6 8 0 -1
BITMAP
00
00
00
90
D8
90
00
00
ENDCHAR
STARTCHAR char9194
ENCODING 9194
SWIDTH 562 0
DWIDTH 6 0
BBX 6 8 0 -1
BITMAP
00
00
00
48
D8
48
00
00
ENDCHAR
STARTCHAR char9195
ENCODING 9195
SWIDTH 562 0
DWIDTH 6 0
BBX 6 8 0 -1
BITMAP
00
00
20
70
00
20
70
00
ENDCHAR
STARTCHAR char9196
ENCODING 9196
SWIDTH 562 0
DWIDTH 6 0
BBX 6 8 0 -1
BITMAP
00
00
70
20
00
70
20
00
ENDCHAR
STARTCHAR char9199
ENCODING 9199
SWIDTH 562 0
DWIDTH 6 0
BBX 6 8 0 -1
BITMAP
00
00
00
98
D8
98
00
00
ENDCHAR
STARTCHAR char9200
ENCODING 9200
SWIDTH 562 0
DWIDTH 6 0
BBX 6 8 0 -1
BITMAP
00
D8
F8
88
A8
88
F8
00
ENDCHAR
STARTCHAR char9201
ENCODING 9201
SWIDTH 562 0
DWIDTH 6 0
BBX 6 8 0 -1
BITMAP
00
58
F8
88
A8
88
F8
00
ENDCHAR
STARTCHAR char9202
ENCODING 9202
SWIDTH 562 0
DWIDTH 6 0
BBX 6 8 0 -1
BITMAP
00
F8
88
A8
B8
88
F8
00
ENDCHAR
STARTCHAR char9203
ENCODING 9203
SWIDTH 562 0
DWIDTH 6 0
BBX 6 8 0 -1
BITMAP
00
F8
70
50
20
70
70
F8
ENDCHAR
STARTCHAR char9204
ENCODING 9204
SWIDTH 562 0
DWIDTH 6 0
BBX 6 8 0 -1
BITMAP
00
00
10
30
70
30
10
00
ENDCHAR
STARTCHAR char9204
ENCODING 9205
SWIDTH 562 0
DWIDTH 6 0
BBX 6 8 0 -1
BITMAP
00
00
40
60
70
60
40
00
ENDCHAR
STARTCHAR char9204
ENCODING 9206
SWIDTH 562 0
DWIDTH 6 0
BBX 6 8 0 -1
BITMAP
00
00
00
20
70
F8
00
00
ENDCHAR
STARTCHAR char9204
ENCODING 9207
SWIDTH 562 0
DWIDTH 6 0
BBX 6 8 0 -1
BITMAP
00
00
00
F8
70
20
00
00
ENDCHAR
STARTCHAR char9208
ENCODING 9208
SWIDTH 562 0
DWIDTH 6 0
BBX 6 8 0 -1
BITMAP
00
00
D8
D8
D8
D8
D8
00
ENDCHAR
STARTCHAR char9209
ENCODING 9209
SWIDTH 562 0
DWIDTH 6 0
BBX 6 8 0 -1
BITMAP
00
00
F8
F8
F8
F8
F8
00
ENDCHAR
STARTCHAR char9210
ENCODING 9210
SWIDTH 562 0
DWIDTH 6 0
BBX 6 8 0 -1
BITMAP
00
00
70
F8
F8
F8
70
00
ENDCHAR
STARTCHAR char9211
ENCODING 9211
SWIDTH 562 0
DWIDTH 6 0
BBX 6 8 0 -1
BITMAP
00
20
A8
A8
A8
88
F8
00
ENDCHAR
STARTCHAR char9212
ENCODING 9212
SWIDTH 562 0
DWIDTH 6 0
BBX 6 8 0 -1
BITMAP
00
F8
88
A8
A8
88
F8
00
ENDCHAR
STARTCHAR char9213
ENCODING 9213
SWIDTH 562 0
DWIDTH 6 0
BBX 6 8 0 -1
BITMAP
00
20
70
70
70
70
70
20
ENDCHAR
STARTCHAR char9214
ENCODING 9214
SWIDTH 562 0
DWIDTH 6 0
BBX 6 8 0 -1
BITMAP
00
00
80
C0
C0
F0
F8
00
ENDCHAR
STARTCHAR char9312
ENCODING 9312
SWIDTH 562 0
DWIDTH 6 0
BBX 6 8 0 -1
BITMAP
00
F8
D8
98
D8
D8
D8
F8
ENDCHAR
STARTCHAR char9313
ENCODING 9313
SWIDTH 562 0
DWIDTH 6 0
BBX 6 8 0 -1
BITMAP
00
F8
88
E8
88
B8
88
F8
ENDCHAR
STARTCHAR char9314
ENCODING 9314
SWIDTH 562 0
DWIDTH 6 0
BBX 6 8 0 -1
BITMAP
00
F8
88
E8
88
E8
88
F8
ENDCHAR
STARTCHAR char9315
ENCODING 9315
SWIDTH 562 0
DWIDTH 6 0
BBX 6 8 0 -1
BITMAP
00
F8
A8
A8
88
E8
E8
F8
ENDCHAR
STARTCHAR char9316
ENCODING 9316
SWIDTH 562 0
DWIDTH 6 0
BBX 6 8 0 -1
BITMAP
00
F8
88
B8
88
E8
88
F8
ENDCHAR
STARTCHAR char9317
ENCODING 9317
SWIDTH 562 0
DWIDTH 6 0
BBX 6 8 0 -1
BITMAP
00
F8
88
B8
88
A8
88
F8
ENDCHAR
STARTCHAR char9318
ENCODING 9318
SWIDTH 562 0
DWIDTH 6 0
BBX 6 8 0 -1
BITMAP
00
F8
88
E8
E8
E8
E8
F8
ENDCHAR
STARTCHAR char9319
ENCODING 9319
SWIDTH 562 0
DWIDTH 6 0
BBX 6 8 0 -1
BITMAP
00
F8
88
A8
88
A8
88
F8
ENDCHAR
STARTCHAR char9320
ENCODING 9320
SWIDTH 562 0
DWIDTH 6 0
BBX 6 8 0 -1
BITMAP
00
F8
88
A8
88
E8
88
F8
ENDCHAR
STARTCHAR char9321
ENCODING 9321
SWIDTH 562 0
DWIDTH 6 0
BBX 6 8 0 -1
BITMAP
00
F8
40
50
50
50
40
F8
ENDCHAR
STARTCHAR char9322
ENCODING 9322
SWIDTH 562 0
DWIDTH 6 0
BBX 6 8 0 -1
BITMAP
00
F8
A8
A8
A8
A8
F8
00
ENDCHAR
STARTCHAR char9472
ENCODING 9472
SWIDTH 562 0
DWIDTH 6 0
BBX 6 8 0 -1
BITMAP
00
00
00
00
FC
00
00
00
ENDCHAR
STARTCHAR char9473
ENCODING 9473
SWIDTH 562 0
DWIDTH 6 0
BBX 6 8 0 -1
BITMAP
00
00
00
FC
FC
00
00
00
ENDCHAR
STARTCHAR char9474
ENCODING 9474
SWIDTH 562 0
DWIDTH 6 0
BBX 6 8 0 -1
BITMAP
20
20
20
20
20
20
20
20
ENDCHAR
STARTCHAR char9475
ENCODING 9475
SWIDTH 562 0
DWIDTH 6 0
BBX 6 8 0 -1
BITMAP
30
30
30
30
30
30
30
30
ENDCHAR
STARTCHAR char9476
ENCODING 9476
SWIDTH 562 0
DWIDTH 6 0
BBX 6 8 0 -1
BITMAP
00
00
00
00
A8
00
00
00
ENDCHAR
STARTCHAR char9477
ENCODING 9477
SWIDTH 562 0
DWIDTH 6 0
BBX 6 8 0 -1
BITMAP
00
00
00
A8
A8
00
00
00
ENDCHAR
STARTCHAR char9478
ENCODING 9478
SWIDTH 562 0
DWIDTH 6 0
BBX 6 8 0 -1
BITMAP
20
00
20
00
20
00
20
00
ENDCHAR
STARTCHAR char9479
ENCODING 9479
SWIDTH 562 0
DWIDTH 6 0
BBX 6 8 0 -1
BITMAP
30
30
30
00
30
30
30
00
ENDCHAR
STARTCHAR char9480
ENCODING 9480
SWIDTH 562 0
DWIDTH 6 0
BBX 6 8 0 -1
BITMAP
00
00
00
00
A8
00
00
00
ENDCHAR
STARTCHAR char9481
ENCODING 9481
SWIDTH 562 0
DWIDTH 6 0
BBX 6 8 0 -1
BITMAP
00
00
00
A8
A8
00
00
00
ENDCHAR
STARTCHAR char9482
ENCODING 9482
SWIDTH 562 0
DWIDTH 6 0
BBX 6 8 0 -1
BITMAP
20
00
20
00
20
00
20
00
ENDCHAR
STARTCHAR char9483
ENCODING 9483
SWIDTH 562 0
DWIDTH 6 0
BBX 6 8 0 -1
BITMAP
30
00
30
00
30
00
30
00
ENDCHAR
STARTCHAR char9484
ENCODING 9484
SWIDTH 562 0
DWIDTH 6 0
BBX 6 8 0 -1
BITMAP
00
00
00
00
3C
20
20
20
ENDCHAR
STARTCHAR char9485
ENCODING 9485
SWIDTH 562 0
DWIDTH 6 0
BBX 6 8 0 -1
BITMAP
00
00
00
3C
3C
20
20
20
ENDCHAR
STARTCHAR char9486
ENCODING 9486
SWIDTH 562 0
DWIDTH 6 0
BBX 6 8 0 -1
BITMAP
00
00
00
00
3C
30
30
30
ENDCHAR
STARTCHAR char9487
ENCODING 9487
SWIDTH 562 0
DWIDTH 6 0
BBX 6 8 0 -1
BITMAP
00
00
00
3C
3C
30
30
30
ENDCHAR
STARTCHAR char9488
ENCODING 9488
SWIDTH 562 0
DWIDTH 6 0
BBX 6 8 0 -1
BITMAP
00
00
00
00
E0
20
20
20
ENDCHAR
STARTCHAR char9489
ENCODING 9489
SWIDTH 562 0
DWIDTH 6 0
BBX 6 8 0 -1
BITMAP
00
00
00
E0
E0
20
20
20
ENDCHAR
STARTCHAR char9490
ENCODING 9490
SWIDTH 562 0
DWIDTH 6 0
BBX 6 8 0 -1
BITMAP
00
00
00
00
F0
30
30
30
ENDCHAR
STARTCHAR char9491
ENCODING 9491
SWIDTH 562 0
DWIDTH 6 0
BBX 6 8 0 -1
BITMAP
00
00
00
F0
F0
30
30
30
ENDCHAR
STARTCHAR char9492
ENCODING 9492
SWIDTH 562 0
DWIDTH 6 0
BBX 6 8 0 -1
BITMAP
20
20
20
20
3C
00
00
00
ENDCHAR
STARTCHAR char9493
ENCODING 9493
SWIDTH 562 0
DWIDTH 6 0
BBX 6 8 0 -1
BITMAP
20
20
20
3C
3C
00
00
00
ENDCHAR
STARTCHAR char9494
ENCODING 9494
SWIDTH 562 0
DWIDTH 6 0
BBX 6 8 0 -1
BITMAP
30
30
30
30
3C
00
00
00
ENDCHAR
STARTCHAR char9495
ENCODING 9495
SWIDTH 562 0
DWIDTH 6 0
BBX 6 8 0 -1
BITMAP
30
30
30
3C
3C
00
00
00
ENDCHAR
STARTCHAR char9496
ENCODING 9496
SWIDTH 562 0
DWIDTH 6 0
BBX 6 8 0 -1
BITMAP
20
20
20
20
E0
00
00
00
ENDCHAR
STARTCHAR char9497
ENCODING 9497
SWIDTH 562 0
DWIDTH 6 0
BBX 6 8 0 -1
BITMAP
20
20
20
E0
E0
00
00
00
ENDCHAR
STARTCHAR char9498
ENCODING 9498
SWIDTH 562 0
DWIDTH 6 0
BBX 6 8 0 -1
BITMAP
30
30
30
30
F0
00
00
00
ENDCHAR
STARTCHAR char9499
ENCODING 9499
SWIDTH 562 0
DWIDTH 6 0
BBX 6 8 0 -1
BITMAP
30
30
30
F0
F0
00
00
00
ENDCHAR
STARTCHAR char9500
ENCODING 9500
SWIDTH 562 0
DWIDTH 6 0
BBX 6 8 0 -1
BITMAP
20
20
20
20
3C
20
20
20
ENDCHAR
STARTCHAR char9500
ENCODING 9501
SWIDTH 562 0
DWIDTH 6 0
BBX 6 8 0 -1
BITMAP
20
20
20
3C
3C
20
20
20
ENDCHAR
STARTCHAR char9500
ENCODING 9502
SWIDTH 562 0
DWIDTH 6 0
BBX 6 8 0 -1
BITMAP
30
30
30
30
3C
20
20
20
ENDCHAR
STARTCHAR char9500
ENCODING 9503
SWIDTH 562 0
DWIDTH 6 0
BBX 6 8 0 -1
BITMAP
20
20
20
20
3C
30
30
30
ENDCHAR
STARTCHAR char9500
ENCODING 9504
SWIDTH 562 0
DWIDTH 6 0
BBX 6 8 0 -1
BITMAP
30
30
30
30
3C
30
30
30
ENDCHAR
STARTCHAR char9500
ENCODING 9505
SWIDTH 562 0
DWIDTH 6 0
BBX 6 8 0 -1
BITMAP
30
30
30
3C
3C
20
20
20
ENDCHAR
STARTCHAR char9500
ENCODING 9506
SWIDTH 562 0
DWIDTH 6 0
BBX 6 8 0 -1
BITMAP
20
20
20
3C
3C
30
30
30
ENDCHAR
STARTCHAR char9500
ENCODING 9507
SWIDTH 562 0
DWIDTH 6 0
BBX 6 8 0 -1
BITMAP
30
30
30
3C
3C
30
30
30
ENDCHAR
STARTCHAR char9508
ENCODING 9508
SWIDTH 562 0
DWIDTH 6 0
BBX 6 8 0 -1
BITMAP
20
20
20
20
E0
20
20
20
ENDCHAR
STARTCHAR char9508
ENCODING 9509
SWIDTH 562 0
DWIDTH 6 0
BBX 6 8 0 -1
BITMAP
20
20
20
E0
E0
20
20
20
ENDCHAR
STARTCHAR char9508
ENCODING 9510
SWIDTH 562 0
DWIDTH 6 0
BBX 6 8 0 -1
BITMAP
30
30
30
30
F0
20
20
20
ENDCHAR
STARTCHAR char9508
ENCODING 9511
SWIDTH 562 0
DWIDTH 6 0
BBX 6 8 0 -1
BITMAP
20
20
20
20
F0
30
30
30
ENDCHAR
STARTCHAR char9508
ENCODING 9512
SWIDTH 562 0
DWIDTH 6 0
BBX 6 8 0 -1
BITMAP
30
30
30
30
F0
30
30
30
ENDCHAR
STARTCHAR char9508
ENCODING 9513
SWIDTH 562 0
DWIDTH 6 0
BBX 6 8 0 -1
BITMAP
30
30
30
F0
F0
20
20
20
ENDCHAR
STARTCHAR char9508
ENCODING 9514
SWIDTH 562 0
DWIDTH 6 0
BBX 6 8 0 -1
BITMAP
20
20
20
F0
F0
30
30
30
ENDCHAR
STARTCHAR char9508
ENCODING 9515
SWIDTH 562 0
DWIDTH 6 0
BBX 6 8 0 -1
BITMAP
30
30
30
F0
F0
30
30
30
ENDCHAR
STARTCHAR char9515
ENCODING 9516
SWIDTH 562 0
DWIDTH 6 0
BBX 6 8 0 -1
BITMAP
00
00
00
00
FC
20
20
20
ENDCHAR
STARTCHAR char9515
ENCODING 9517
SWIDTH 562 0
DWIDTH 6 0
BBX 6 8 0 -1
BITMAP
00
00
00
E0
FC
20
20
20
ENDCHAR
STARTCHAR char9515
ENCODING 9518
SWIDTH 562 0
DWIDTH 6 0
BBX 6 8 0 -1
BITMAP
00
00
00
3C
FC
20
20
20
ENDCHAR
STARTCHAR char9515
ENCODING 9519
SWIDTH 562 0
DWIDTH 6 0
BBX 6 8 0 -1
BITMAP
00
00
00
FC
FC
20
20
20
ENDCHAR
STARTCHAR char9515
ENCODING 9520
SWIDTH 562 0
DWIDTH 6 0
BBX 6 8 0 -1
BITMAP
00
00
00
00
FC
30
30
30
ENDCHAR
STARTCHAR char9515
ENCODING 9521
SWIDTH 562 0
DWIDTH 6 0
BBX 6 8 0 -1
BITMAP
00
00
00
F0
FC
30
30
30
ENDCHAR
STARTCHAR char9515
ENCODING 9522
SWIDTH 562 0
DWIDTH 6 0
BBX 6 8 0 -1
BITMAP
00
00
00
3C
FC
30
30
30
ENDCHAR
STARTCHAR char9515
ENCODING 9523
SWIDTH 562 0
DWIDTH 6 0
BBX 6 8 0 -1
BITMAP
00
00
00
FC
FC
30
30
30
ENDCHAR
STARTCHAR char9524
ENCODING 9524
SWIDTH 562 0
DWIDTH 6 0
BBX 6 8 0 -1
BITMAP
20
20
20
20
FC
00
00
00
ENDCHAR
STARTCHAR char9524
ENCODING 9525
SWIDTH 562 0
DWIDTH 6 0
BBX 6 8 0 -1
BITMAP
20
20
20
E0
FC
00
00
00
ENDCHAR
STARTCHAR char9524
ENCODING 9526
SWIDTH 562 0
DWIDTH 6 0
BBX 6 8 0 -1
BITMAP
20
20
20
3C
FC
00
00
00
ENDCHAR
STARTCHAR char9524
ENCODING 9527
SWIDTH 562 0
DWIDTH 6 0
BBX 6 8 0 -1
BITMAP
20
20
20
FC
FC
00
00
00
ENDCHAR
STARTCHAR char9524
ENCODING 9528
SWIDTH 562 0
DWIDTH 6 0
BBX 6 8 0 -1
BITMAP
30
30
30
30
FC
00
00
00
ENDCHAR
STARTCHAR char9524
ENCODING 9529
SWIDTH 562 0
DWIDTH 6 0
BBX 6 8 0 -1
BITMAP
30
30
30
F0
FC
00
00
00
ENDCHAR
STARTCHAR char9524
ENCODING 9530
SWIDTH 562 0
DWIDTH 6 0
BBX 6 8 0 -1
BITMAP
30
30
30
3C
FC
00
00
00
ENDCHAR
STARTCHAR char9524
ENCODING 9531
SWIDTH 562 0
DWIDTH 6 0
BBX 6 8 0 -1
BITMAP
30
30
30
FC
FC
00
00
00
ENDCHAR
STARTCHAR char9532
ENCODING 9532
SWIDTH 562 0
DWIDTH 6 0
BBX 6 8 0 -1
BITMAP
20
20
20
20
FC
20
20
20
ENDCHAR
STARTCHAR char9532
ENCODING 9533
SWIDTH 562 0
DWIDTH 6 0
BBX 6 8 0 -1
BITMAP
20
20
20
E0
FC
20
20
20
ENDCHAR
STARTCHAR char9532
ENCODING 9534
SWIDTH 562 0
DWIDTH 6 0
BBX 6 8 0 -1
BITMAP
20
20
20
3C
FC
20
20
20
ENDCHAR
STARTCHAR char9532
ENCODING 9535
SWIDTH 562 0
DWIDTH 6 0
BBX 6 8 0 -1
BITMAP
20
20
20
FC
FC
20
20
20
ENDCHAR
STARTCHAR char9532
ENCODING 9536
SWIDTH 562 0
DWIDTH 6 0
BBX 6 8 0 -1
BITMAP
30
30
30
30
FC
20
20
20
ENDCHAR
STARTCHAR char9532
ENCODING 9537
SWIDTH 562 0
DWIDTH 6 0
BBX 6 8 0 -1
BITMAP
20
20
20
20
FC
30
30
30
ENDCHAR
STARTCHAR char9532
ENCODING 9538
SWIDTH 562 0
DWIDTH 6 0
BBX 6 8 0 -1
BITMAP
30
30
30
30
FC
30
30
30
ENDCHAR
STARTCHAR char9532
ENCODING 9539
SWIDTH 562 0
DWIDTH 6 0
BBX 6 8 0 -1
BITMAP
30
30
30
F0
FC
20
20
20
ENDCHAR
STARTCHAR char9532
ENCODING 9540
SWIDTH 562 0
DWIDTH 6 0
BBX 6 8 0 -1
BITMAP
30
30
30
3C
FC
20
20
20
ENDCHAR
STARTCHAR char9532
ENCODING 9541
SWIDTH 562 0
DWIDTH 6 0
BBX 6 8 0 -1
BITMAP
20
20
20
20
FC
F0
30
30
ENDCHAR
STARTCHAR char9532
ENCODING 9542
SWIDTH 562 0
DWIDTH 6 0
BBX 6 8 0 -1
BITMAP
20
20
20
20
FC
3C
30
30
ENDCHAR
STARTCHAR char9532
ENCODING 9543
SWIDTH 562 0
DWIDTH 6 0
BBX 6 8 0 -1
BITMAP
30
30
30
FC
FC
20
20
20
ENDCHAR
STARTCHAR char9532
ENCODING 9544
SWIDTH 562 0
DWIDTH 6 0
BBX 6 8 0 -1
BITMAP
20
20
20
FC
FC
30
30
30
ENDCHAR
STARTCHAR char9532
ENCODING 9545
SWIDTH 562 0
DWIDTH 6 0
BBX 6 8 0 -1
BITMAP
30
30
30
F0
FC
30
30
30
ENDCHAR
STARTCHAR char9532
ENCODING 9546
SWIDTH 562 0
DWIDTH 6 0
BBX 6 8 0 -1
BITMAP
30
30
30
3C
FC
30
30
30
ENDCHAR
STARTCHAR char9532
ENCODING 9547
SWIDTH 562 0
DWIDTH 6 0
BBX 6 8 0 -1
BITMAP
30
30
30
FC
FC
30
30
30
ENDCHAR
STARTCHAR char9548
ENCODING 9548
SWIDTH 562 0
DWIDTH 6 0
BBX 6 8 0 -1
BITMAP
00
00
00
00
EC
00
00
00
ENDCHAR
STARTCHAR char9549
ENCODING 9549
SWIDTH 562 0
DWIDTH 6 0
BBX 6 8 0 -1
BITMAP
00
00
00
EC
EC
00
00
00
ENDCHAR
STARTCHAR char9550
ENCODING 9550
SWIDTH 562 0
DWIDTH 6 0
BBX 6 8 0 -1
BITMAP
20
20
20
00
20
20
20
00
ENDCHAR
STARTCHAR char9551
ENCODING 9551
SWIDTH 562 0
DWIDTH 6 0
BBX 6 8 0 -1
BITMAP
30
30
30
00
30
30
30
00
ENDCHAR
STARTCHAR char9552
ENCODING 9552
SWIDTH 562 0
DWIDTH 6 0
BBX 6 8 0 -1
BITMAP
00
00
00
FC
00
FC
00
00
ENDCHAR
STARTCHAR char9553
ENCODING 9553
SWIDTH 562 0
DWIDTH 6 0
BBX 6 8 0 -1
BITMAP
50
50
50
50
50
50
50
50
ENDCHAR
STARTCHAR char9554
ENCODING 9554
SWIDTH 562 0
DWIDTH 6 0
BBX 6 8 0 -1
BITMAP
00
00
00
3C
20
3C
20
20
ENDCHAR
STARTCHAR char9555
ENCODING 9555
SWIDTH 562 0
DWIDTH 6 0
BBX 6 8 0 -1
BITMAP
00
00
00
00
7C
50
50
50
ENDCHAR
STARTCHAR char9556
ENCODING 9556
SWIDTH 562 0
DWIDTH 6 0
BBX 6 8 0 -1
BITMAP
00
00
00
7C
40
5C
50
50
ENDCHAR
STARTCHAR char9554
ENCODING 9557
SWIDTH 562 0
DWIDTH 6 0
BBX 6 8 0 -1
BITMAP
00
00
00
E0
20
E0
20
20
ENDCHAR
STARTCHAR char9555
ENCODING 9558
SWIDTH 562 0
DWIDTH 6 0
BBX 6 8 0 -1
BITMAP
00
00
00
00
F0
50
50
50
ENDCHAR
STARTCHAR char9556
ENCODING 9559
SWIDTH 562 0
DWIDTH 6 0
BBX 6 8 0 -1
BITMAP
00
00
00
F0
10
D0
50
50
ENDCHAR
STARTCHAR char9560
ENCODING 9560
SWIDTH 562 0
DWIDTH 6 0
BBX 6 8 0 -1
BITMAP
20
20
20
3C
20
3C
00
00
ENDCHAR
STARTCHAR char9561
ENCODING 9561
SWIDTH 562 0
DWIDTH 6 0
BBX 6 8 0 -1
BITMAP
50
50
50
50
7C
00
00
00
ENDCHAR
STARTCHAR char9562
ENCODING 9562
SWIDTH 562 0
DWIDTH 6 0
BBX 6 8 0 -1
BITMAP
50
50
50
5C
40
7C
00
00
ENDCHAR
STARTCHAR char9563
ENCODING 9563
SWIDTH 562 0
DWIDTH 6 0
BBX 6 8 0 -1
BITMAP
20
20
20
E0
20
E0
00
00
ENDCHAR
STARTCHAR char9564
ENCODING 9564
SWIDTH 562 0
DWIDTH 6 0
BBX 6 8 0 -1
BITMAP
50
50
50
50
F0
00
00
00
ENDCHAR
STARTCHAR char9565
ENCODING 9565
SWIDTH 562 0
DWIDTH 6 0
BBX 6 8 0 -1
BITMAP
28
28
28
E8
08
F8
00
00
ENDCHAR
STARTCHAR char9566
ENCODING 9566
SWIDTH 562 0
DWIDTH 6 0
BBX 6 8 0 -1
BITMAP
20
20
20
3C
20
3C
20
20
ENDCHAR
STARTCHAR char9567
ENCODING 9567
SWIDTH 562 0
DWIDTH 6 0
BBX 6 8 0 -1
BITMAP
50
50
50
50
5C
50
50
50
ENDCHAR
STARTCHAR char9568
ENCODING 9568
SWIDTH 562 0
DWIDTH 6 0
BBX 6 8 0 -1
BITMAP
50
50
50
5C
40
5C
50
50
ENDCHAR
STARTCHAR char9569
ENCODING 9569
SWIDTH 562 0
DWIDTH 6 0
BBX 6 8 0 -1
BITMAP
20
20
20
E0
20
E0
20
20
ENDCHAR
STARTCHAR char9570
ENCODING 9570
SWIDTH 562 0
DWIDTH 6 0
BBX 6 8 0 -1
BITMAP
50
50
50
50
D0
50
50
50
ENDCHAR
STARTCHAR char9571
ENCODING 9571
SWIDTH 562 0
DWIDTH 6 0
BBX 6 8 0 -1
BITMAP
50
50
50
D0
10
D0
50
50
ENDCHAR
STARTCHAR char9572
ENCODING 9572
SWIDTH 562 0
DWIDTH 6 0
BBX 6 8 0 -1
BITMAP
00
00
00
FC
00
FC
20
20
ENDCHAR
STARTCHAR char9573
ENCODING 9573
SWIDTH 562 0
DWIDTH 6 0
BBX 6 8 0 -1
BITMAP
00
00
00
00
FC
50
50
50
ENDCHAR
STARTCHAR char9574
ENCODING 9574
SWIDTH 562 0
DWIDTH 6 0
BBX 6 8 0 -1
BITMAP
00
00
00
FC
00
DC
50
50
ENDCHAR
STARTCHAR char9575
ENCODING 9575
SWIDTH 562 0
DWIDTH 6 0
BBX 6 8 0 -1
BITMAP
20
20
20
FC
00
FC
00
00
ENDCHAR
STARTCHAR char9576
ENCODING 9576
SWIDTH 562 0
DWIDTH 6 0
BBX 6 8 0 -1
BITMAP
50
50
50
50
FC
00
00
00
ENDCHAR
STARTCHAR char9577
ENCODING 9577
SWIDTH 562 0
DWIDTH 6 0
BBX 6 8 0 -1
BITMAP
50
50
50
DC
00
FC
00
00
ENDCHAR
STARTCHAR char9578
ENCODING 9578
SWIDTH 562 0
DWIDTH 6 0
BBX 6 8 0 -1
BITMAP
20
20
20
FC
00
FC
20
20
ENDCHAR
STARTCHAR char9579
ENCODING 9579
SWIDTH 562 0
DWIDTH 6 0
BBX 6 8 0 -1
BITMAP
50
50
50
50
DC
50
50
50
ENDCHAR
STARTCHAR char9580
ENCODING 9580
SWIDTH 562 0
DWIDTH 6 0
BBX 6 8 0 -1
BITMAP
50
50
50
DC
00
DC
50
50
ENDCHAR
STARTCHAR char9581
ENCODING 9581
SWIDTH 562 0
DWIDTH 6 0
BBX 6 8 0 -1
BITMAP
00
00
00
00
1C
30
20
20
ENDCHAR
STARTCHAR char9582
ENCODING 9582
SWIDTH 562 0
DWIDTH 6 0
BBX 6 8 0 -1
BITMAP
00
00
00
00
C0
60
20
20
ENDCHAR
STARTCHAR char9583
ENCODING 9583
SWIDTH 562 0
DWIDTH 6 0
BBX 6 8 0 -1
BITMAP
20
20
20
60
C0
00
00
00
ENDCHAR
STARTCHAR char9584
ENCODING 9584
SWIDTH 562 0
DWIDTH 6 0
BBX 6 8 0 -1
BITMAP
20
20
20
30
1C
00
00
00
ENDCHAR
STARTCHAR char9585
ENCODING 9585
SWIDTH 562 0
DWIDTH 6 0
BBX 6 8 0 -1
BITMAP
04
04
3C
20
20
20
E0
80
ENDCHAR
STARTCHAR char9585
ENCODING 9586
SWIDTH 562 0
DWIDTH 6 0
BBX 6 8 0 -1
BITMAP
80
E0
20
20
20
3C
04
04
ENDCHAR
STARTCHAR char9585
ENCODING 9587
SWIDTH 562 0
DWIDTH 6 0
BBX 6 8 0 -1
BITMAP
84
E4
3C
20
20
3C
E4
84
ENDCHAR
STARTCHAR char9588
ENCODING 9588
SWIDTH 562 0
DWIDTH 6 0
BBX 6 8 0 -1
BITMAP
00
00
00
00
E0
00
00
00
ENDCHAR
STARTCHAR char9589
ENCODING 9589
SWIDTH 562 0
DWIDTH 6 0
BBX 6 8 0 -1
BITMAP
20
20
20
20
20
00
00
00
ENDCHAR
STARTCHAR char9590
ENCODING 9590
SWIDTH 562 0
DWIDTH 6 0
BBX 6 8 0 -1
BITMAP
00
00
00
00
3C
00
00
00
ENDCHAR
STARTCHAR char9591
ENCODING 9591
SWIDTH 562 0
DWIDTH 6 0
BBX 6 8 0 -1
BITMAP
00
00
00
00
20
20
20
20
ENDCHAR
STARTCHAR char9592
ENCODING 9592
SWIDTH 562 0
DWIDTH 6 0
BBX 6 8 0 -1
BITMAP
00
00
00
E0
E0
00
00
00
ENDCHAR
STARTCHAR char9593
ENCODING 9593
SWIDTH 562 0
DWIDTH 6 0
BBX 6 8 0 -1
BITMAP
30
30
30
30
30
00
00
00
ENDCHAR
STARTCHAR char9594
ENCODING 9594
SWIDTH 562 0
DWIDTH 6 0
BBX 6 8 0 -1
BITMAP
00
00
00
3C
3C
00
00
00
ENDCHAR
STARTCHAR char9595
ENCODING 9595
SWIDTH 562 0
DWIDTH 6 0
BBX 6 8 0 -1
BITMAP
00
00
00
00
30
30
30
30
ENDCHAR
STARTCHAR char9596
ENCODING 9596
SWIDTH 562 0
DWIDTH 6 0
BBX 6 8 0 -1
BITMAP
00
00
00
1C
FC
00
00
00
ENDCHAR
STARTCHAR char9597
ENCODING 9597
SWIDTH 562 0
DWIDTH 6 0
BBX 6 8 0 -1
BITMAP
10
10
10
10
30
30
30
30
ENDCHAR
STARTCHAR char9598
ENCODING 9598
SWIDTH 562 0
DWIDTH 6 0
BBX 6 8 0 -1
BITMAP
00
00
00
E0
FC
00
00
00
ENDCHAR
STARTCHAR char9599
ENCODING 9599
SWIDTH 562 0
DWIDTH 6 0
BBX 6 8 0 -1
BITMAP
30
30
30
30
20
20
20
20
ENDCHAR
STARTCHAR char9600
ENCODING 9600
SWIDTH 562 0
DWIDTH 6 0
BBX 6 8 0 -1
BITMAP
FC
FC
FC
FC
00
00
00
00
ENDCHAR
STARTCHAR char9601
ENCODING 9601
SWIDTH 562 0
DWIDTH 6 0
BBX 6 8 0 -1
BITMAP
00
00
00
00
00
00
00
FC
ENDCHAR
STARTCHAR char9602
ENCODING 9602
SWIDTH 562 0
DWIDTH 6 0
BBX 6 8 0 -1
BITMAP
00
00
00
00
00
00
FC
FC
ENDCHAR
STARTCHAR char9603
ENCODING 9603
SWIDTH 562 0
DWIDTH 6 0
BBX 6 8 0 -1
BITMAP
00
00
00
00
00
FC
FC
FC
ENDCHAR
STARTCHAR char9604
ENCODING 9604
SWIDTH 562 0
DWIDTH 6 0
BBX 6 8 0 -1
BITMAP
00
00
00
00
FC
FC
FC
FC
ENDCHAR
STARTCHAR char9605
ENCODING 9605
SWIDTH 562 0
DWIDTH 6 0
BBX 6 8 0 -1
BITMAP
00
00
00
FC
FC
FC
FC
FC
ENDCHAR
STARTCHAR char9606
ENCODING 9606
SWIDTH 562 0
DWIDTH 6 0
BBX 6 8 0 -1
BITMAP
00
00
FC
FC
FC
FC
FC
FC
ENDCHAR
STARTCHAR char9607
ENCODING 9607
SWIDTH 562 0
DWIDTH 6 0
BBX 6 8 0 -1
BITMAP
00
FC
FC
FC
FC
FC
FC
FC
ENDCHAR
STARTCHAR char9608
ENCODING 9608
SWIDTH 562 0
DWIDTH 6 0
BBX 6 8 0 -1
BITMAP
FC
FC
FC
FC
FC
FC
FC
FC
ENDCHAR
STARTCHAR char9615
ENCODING 9609
SWIDTH 562 0
DWIDTH 6 0
BBX 6 8 0 -1
BITMAP
F8
F8
F8
F8
F8
F8
F8
F8
ENDCHAR
STARTCHAR char9614
ENCODING 9610
SWIDTH 562 0
DWIDTH 6 0
BBX 6 8 0 -1
BITMAP
F0
F0
F0
F0
F0
F0
F0
F0
ENDCHAR
STARTCHAR char9613
ENCODING 9611
SWIDTH 562 0
DWIDTH 6 0
BBX 6 8 0 -1
BITMAP
F0
F0
F0
F0
F0
F0
F0
F0
ENDCHAR
STARTCHAR char9612
ENCODING 9612
SWIDTH 562 0
DWIDTH 6 0
BBX 6 8 0 -1
BITMAP
E0
E0
E0
E0
E0
E0
E0
E0
ENDCHAR
STARTCHAR char9611
ENCODING 9613
SWIDTH 562 0
DWIDTH 6 0
BBX 6 8 0 -1
BITMAP
C0
C0
C0
C0
C0
C0
C0
C0
ENDCHAR
STARTCHAR char9610
ENCODING 9614
SWIDTH 562 0
DWIDTH 6 0
BBX 6 8 0 -1
BITMAP
C0
C0
C0
C0
C0
C0
C0
C0
ENDCHAR
STARTCHAR char9609
ENCODING 9615
SWIDTH 562 0
DWIDTH 6 0
BBX 6 8 0 -1
BITMAP
80
80
80
80
80
80
80
80
ENDCHAR
STARTCHAR char9609
ENCODING 9616
SWIDTH 562 0
DWIDTH 6 0
BBX 6 8 0 -1
BITMAP
1C
1C
1C
1C
1C
1C
1C
1C
ENDCHAR
STARTCHAR char9610
ENCODING 9617
SWIDTH 562 0
DWIDTH 6 0
BBX 6 8 0 -1
BITMAP
00
A8
00
A8
00
A8
00
A8
ENDCHAR
STARTCHAR char9611
ENCODING 9618
SWIDTH 562 0
DWIDTH 6 0
BBX 6 8 0 -1
BITMAP
54
A8
54
A8
54
A8
54
A8
ENDCHAR
STARTCHAR char9612
ENCODING 9619
SWIDTH 562 0
DWIDTH 6 0
BBX 6 8 0 -1
BITMAP
A8
FC
A8
FC
A8
FC
A8
FC
ENDCHAR
STARTCHAR char9613
ENCODING 9620
SWIDTH 562 0
DWIDTH 6 0
BBX 6 8 0 -1
BITMAP
FC
00
00
00
00
00
00
00
ENDCHAR
STARTCHAR char9614
ENCODING 9621
SWIDTH 562 0
DWIDTH 6 0
BBX 6 8 0 -1
BITMAP
04
04
04
04
04
04
04
04
ENDCHAR
STARTCHAR char9615
ENCODING 9622
SWIDTH 562 0
DWIDTH 6 0
BBX 6 8 0 -1
BITMAP
00
00
00
00
E0
E0
E0
E0
ENDCHAR
STARTCHAR char9623
ENCODING 9623
SWIDTH 562 0
DWIDTH 6 0
BBX 6 8 0 -1
BITMAP
00
00
00
00
1C
1C
1C
1C
ENDCHAR
STARTCHAR char9624
ENCODING 9624
SWIDTH 562 0
DWIDTH 6 0
BBX 6 8 0 -1
BITMAP
E0
E0
E0
E0
00
00
00
00
ENDCHAR
STARTCHAR char9625
ENCODING 9625
SWIDTH 562 0
DWIDTH 6 0
BBX 6 8 0 -1
BITMAP
E0
E0
E0
E0
FC
FC
FC
FC
ENDCHAR
STARTCHAR char9626
ENCODING 9626
SWIDTH 562 0
DWIDTH 6 0
BBX 6 8 0 -1
BITMAP
E0
E0
E0
E0
1C
1C
1C
1C
ENDCHAR
STARTCHAR char9627
ENCODING 9627
SWIDTH 562 0
DWIDTH 6 0
BBX 6 8 0 -1
BITMAP
FC
FC
FC
FC
E0
E0
E0
E0
ENDCHAR
STARTCHAR char9628
ENCODING 9628
SWIDTH 562 0
DWIDTH 6 0
BBX 6 8 0 -1
BITMAP
FC
FC
FC
FC
1C
1C
1C
1C
ENDCHAR
STARTCHAR char9629
ENCODING 9629
SWIDTH 562 0
DWIDTH 6 0
BBX 6 8 0 -1
BITMAP
1C
1C
1C
1C
00
00
00
00
ENDCHAR
STARTCHAR char9630
ENCODING 9630
SWIDTH 562 0
DWIDTH 6 0
BBX 6 8 0 -1
BITMAP
1C
1C
1C
1C
E0
E0
E0
E0
ENDCHAR
STARTCHAR char9631
ENCODING 9631
SWIDTH 562 0
DWIDTH 6 0
BBX 6 8 0 -1
BITMAP
1C
1C
1C
1C
FC
FC
FC
FC
ENDCHAR
STARTCHAR char9632
ENCODING 9632
SWIDTH 562 0
DWIDTH 6 0
BBX 6 8 0 -1
BITMAP
00
00
F8
F8
F8
F8
F8
00
ENDCHAR
STARTCHAR char9633
ENCODING 9633
SWIDTH 562 0
DWIDTH 6 0
BBX 6 8 0 -1
BITMAP
00
00
F8
88
88
88
F8
00
ENDCHAR
STARTCHAR char9634
ENCODING 9634
SWIDTH 562 0
DWIDTH 6 0
BBX 6 8 0 -1
BITMAP
00
00
70
88
88
88
70
00
ENDCHAR
STARTCHAR char9635
ENCODING 9635
SWIDTH 562 0
DWIDTH 6 0
BBX 6 8 0 -1
BITMAP
00
00
F8
88
A8
88
F8
00
ENDCHAR
STARTCHAR char9636
ENCODING 9636
SWIDTH 562 0
DWIDTH 6 0
BBX 6 8 0 -1
BITMAP
00
00
F8
88
F8
88
F8
00
ENDCHAR
STARTCHAR char9636
ENCODING 9637
SWIDTH 562 0
DWIDTH 6 0
BBX 6 8 0 -1
BITMAP
00
00
F8
A8
A8
A8
F8
00
ENDCHAR
STARTCHAR char9636
ENCODING 9638
SWIDTH 562 0
DWIDTH 6 0
BBX 6 8 0 -1
BITMAP
00
00
F8
A8
F8
A8
F8
00
ENDCHAR
STARTCHAR char9636
ENCODING 9639
SWIDTH 562 0
DWIDTH 6 0
BBX 6 8 0 -1
BITMAP
00
00
F8
C8
A8
98
F8
00
ENDCHAR
STARTCHAR char9636
ENCODING 9640
SWIDTH 562 0
DWIDTH 6 0
BBX 6 8 0 -1
BITMAP
00
00
F8
98
A8
C8
F8
00
ENDCHAR
STARTCHAR char9636
ENCODING 9641
SWIDTH 562 0
DWIDTH 6 0
BBX 6 8 0 -1
BITMAP
00
00
F8
D8
A8
D8
F8
00
ENDCHAR
STARTCHAR char9642
ENCODING 9642
SWIDTH 562 0
DWIDTH 6 0
BBX 6 8 0 -1
BITMAP
00
00
00
70
70
70
00
00
ENDCHAR
STARTCHAR char9643
ENCODING 9643
SWIDTH 562 0
DWIDTH 6 0
BBX 6 8 0 -1
BITMAP
00
00
00
70
50
70
00
00
ENDCHAR
STARTCHAR char9644
ENCODING 9644
SWIDTH 562 0
DWIDTH 6 0
BBX 6 8 0 -1
BITMAP
00
00
00
F8
F8
F8
00
00
ENDCHAR
STARTCHAR char9645
ENCODING 9645
SWIDTH 562 0
DWIDTH 6 0
BBX 6 8 0 -1
BITMAP
00
00
00
F8
88
F8
00
00
ENDCHAR
STARTCHAR char9646
ENCODING 9646
SWIDTH 562 0
DWIDTH 6 0
BBX 6 8 0 -1
BITMAP
00
00
70
70
70
70
70
00
ENDCHAR
STARTCHAR char9647
ENCODING 9647
SWIDTH 562 0
DWIDTH 6 0
BBX 6 8 0 -1
BITMAP
00
00
70
50
50
50
70
00
ENDCHAR
STARTCHAR char9648
ENCODING 9648
SWIDTH 562 0
DWIDTH 6 0
BBX 6 8 0 -1
BITMAP
00
00
00
00
78
F8
F0
00
ENDCHAR
STARTCHAR char9649
ENCODING 9649
SWIDTH 562 0
DWIDTH 6 0
BBX 6 8 0 -1
BITMAP
00
00
00
00
78
88
F0
00
ENDCHAR
STARTCHAR char9650
ENCODING 9650
SWIDTH 562 0
DWIDTH 6 0
BBX 6 8 0 -1
BITMAP
00
00
20
70
70
F8
F8
00
ENDCHAR
STARTCHAR char9650
ENCODING 9651
SWIDTH 562 0
DWIDTH 6 0
BBX 6 8 0 -1
BITMAP
00
00
20
50
50
88
F8
00
ENDCHAR
STARTCHAR char9652
ENCODING 9652
SWIDTH 562 0
DWIDTH 6 0
BBX 6 8 0 -1
BITMAP
00
00
00
20
70
70
00
00
ENDCHAR
STARTCHAR char9653
ENCODING 9653
SWIDTH 562 0
DWIDTH 6 0
BBX 6 8 0 -1
BITMAP
00
00
00
20
50
70
00
00
ENDCHAR
STARTCHAR char9654
ENCODING 9654
SWIDTH 562 0
DWIDTH 6 0
BBX 6 8 0 -1
BITMAP
00
00
C0
F0
F8
F0
C0
00
ENDCHAR
STARTCHAR char9654
ENCODING 9655
SWIDTH 562 0
DWIDTH 6 0
BBX 6 8 0 -1
BITMAP
00
00
C0
B0
88
B0
C0
00
ENDCHAR
STARTCHAR char9656
ENCODING 9656
SWIDTH 562 0
DWIDTH 6 0
BBX 6 8 0 -1
BITMAP
00
00
00
60
70
60
00
00
ENDCHAR
STARTCHAR char9657
ENCODING 9657
SWIDTH 562 0
DWIDTH 6 0
BBX 6 8 0 -1
BITMAP
00
00
00
60
50
60
00
00
ENDCHAR
STARTCHAR char9658
ENCODING 9658
SWIDTH 562 0
DWIDTH 6 0
BBX 6 8 0 -1
BITMAP
00
00
00
E0
F8
E0
00
00
ENDCHAR
STARTCHAR char9659
ENCODING 9659
SWIDTH 562 0
DWIDTH 6 0
BBX 6 8 0 -1
BITMAP
00
00
00
E0
98
E0
00
00
ENDCHAR
STARTCHAR char9650
ENCODING 9660
SWIDTH 562 0
DWIDTH 6 0
BBX 6 8 0 -1
BITMAP
00
00
F8
F8
70
70
20
00
ENDCHAR
STARTCHAR char9650
ENCODING 9661
SWIDTH 562 0
DWIDTH 6 0
BBX 6 8 0 -1
BITMAP
00
00
F8
88
50
50
20
00
ENDCHAR
STARTCHAR char9652
ENCODING 9662
SWIDTH 562 0
DWIDTH 6 0
BBX 6 8 0 -1
BITMAP
00
00
00
70
70
20
00
00
ENDCHAR
STARTCHAR char9653
ENCODING 9663
SWIDTH 562 0
DWIDTH 6 0
BBX 6 8 0 -1
BITMAP
00
00
00
70
50
20
00
00
ENDCHAR
STARTCHAR char9654
ENCODING 9664
SWIDTH 562 0
DWIDTH 6 0
BBX 6 8 0 -1
BITMAP
00
00
18
78
F8
78
18
00
ENDCHAR
STARTCHAR char9654
ENCODING 9665
SWIDTH 562 0
DWIDTH 6 0
BBX 6 8 0 -1
BITMAP
00
00
18
68
88
68
18
00
ENDCHAR
STARTCHAR char9656
ENCODING 9666
SWIDTH 562 0
DWIDTH 6 0
BBX 6 8 0 -1
BITMAP
00
00
00
30
70
30
00
00
ENDCHAR
STARTCHAR char9657
ENCODING 9667
SWIDTH 562 0
DWIDTH 6 0
BBX 6 8 0 -1
BITMAP
00
00
00
30
50
30
00
00
ENDCHAR
STARTCHAR char9658
ENCODING 9668
SWIDTH 562 0
DWIDTH 6 0
BBX 6 8 0 -1
BITMAP
00
00
00
38
F8
38
00
00
ENDCHAR
STARTCHAR char9659
ENCODING 9669
SWIDTH 562 0
DWIDTH 6 0
BBX 6 8 0 -1
BITMAP
00
00
00
38
C8
38
00
00
ENDCHAR
STARTCHAR char9670
ENCODING 9670
SWIDTH 562 0
DWIDTH 6 0
BBX 6 8 0 -1
BITMAP
00
00
20
70
F8
70
20
00
ENDCHAR
STARTCHAR char9670
ENCODING 9671
SWIDTH 562 0
DWIDTH 6 0
BBX 6 8 0 -1
BITMAP
00
00
20
70
D8
70
20
00
ENDCHAR
STARTCHAR char9672
ENCODING 9672
SWIDTH 562 0
DWIDTH 6 0
BBX 6 8 0 -1
BITMAP
00
00
20
50
A8
50
20
00
ENDCHAR
STARTCHAR char9673
ENCODING 9673
SWIDTH 562 0
DWIDTH 6 0
BBX 6 8 0 -1
BITMAP
00
00
70
88
A8
88
70
00
ENDCHAR
STARTCHAR char9674
ENCODING 9674
SWIDTH 562 0
DWIDTH 6 0
BBX 6 8 0 -1
BITMAP
00
20
70
50
D8
50
70
20
ENDCHAR
STARTCHAR char9675
ENCODING 9675
SWIDTH 562 0
DWIDTH 6 0
BBX 6 8 0 -1
BITMAP
00
00
70
88
88
88
70
00
ENDCHAR
STARTCHAR char9675
ENCODING 9676
SWIDTH 562 0
DWIDTH 6 0
BBX 6 8 0 -1
BITMAP
00
00
50
00
88
00
50
00
ENDCHAR
STARTCHAR char9677
ENCODING 9677
SWIDTH 562 0
DWIDTH 6 0
BBX 6 8 0 -1
BITMAP
00
00
70
A8
A8
A8
70
00
ENDCHAR
STARTCHAR char9678
ENCODING 9678
SWIDTH 562 0
DWIDTH 6 0
BBX 6 8 0 -1
BITMAP
00
00
70
88
A8
88
70
00
ENDCHAR
STARTCHAR char9679
ENCODING 9679
SWIDTH 562 0
DWIDTH 6 0
BBX 6 8 0 -1
BITMAP
00
00
70
F8
F8
F8
70
00
ENDCHAR
STARTCHAR char9679
ENCODING 9680
SWIDTH 562 0
DWIDTH 6 0
BBX 6 8 0 -1
BITMAP
00
00
70
E8
E8
E8
70
00
ENDCHAR
STARTCHAR char9679
ENCODING 9681
SWIDTH 562 0
DWIDTH 6 0
BBX 6 8 0 -1
BITMAP
00
00
70
B8
B8
B8
70
00
ENDCHAR
STARTCHAR char9679
ENCODING 9682
SWIDTH 562 0
DWIDTH 6 0
BBX 6 8 0 -1
BITMAP
00
00
70
88
F8
F8
70
00
ENDCHAR
STARTCHAR char9679
ENCODING 9683
SWIDTH 562 0
DWIDTH 6 0
BBX 6 8 0 -1
BITMAP
00
00
70
F8
F8
88
70
00
ENDCHAR
STARTCHAR char9679
ENCODING 9684
SWIDTH 562 0
DWIDTH 6 0
BBX 6 8 0 -1
BITMAP
00
00
70
B8
B8
88
70
00
ENDCHAR
STARTCHAR char9679
ENCODING 9685
SWIDTH 562 0
DWIDTH 6 0
BBX 6 8 0 -1
BITMAP
00
00
70
B8
F8
F8
70
00
ENDCHAR
STARTCHAR char9679
ENCODING 9686
SWIDTH 562 0
DWIDTH 6 0
BBX 6 8 0 -1
BITMAP
00
00
60
E0
E0
E0
60
00
ENDCHAR
STARTCHAR char9679
ENCODING 9687
SWIDTH 562 0
DWIDTH 6 0
BBX 6 8 0 -1
BITMAP
00
00
30
38
38
38
30
00
ENDCHAR
STARTCHAR char9688
ENCODING 9688
SWIDTH 562 0
DWIDTH 6 0
BBX 6 8 0 -1
BITMAP
00
F8
F8
D8
88
D8
F8
F8
ENDCHAR
STARTCHAR char9689
ENCODING 9689
SWIDTH 562 0
DWIDTH 6 0
BBX 6 8 0 -1
BITMAP
00
F8
F8
D8
A8
D8
F8
F8
ENDCHAR
STARTCHAR char9632
ENCODING 9703
SWIDTH 562 0
DWIDTH 6 0
BBX 6 8 0 -1
BITMAP
00
00
F8
E8
E8
E8
F8
00
ENDCHAR
STARTCHAR char9632
ENCODING 9704
SWIDTH 562 0
DWIDTH 6 0
BBX 6 8 0 -1
BITMAP
00
00
F8
B8
B8
B8
F8
00
ENDCHAR
STARTCHAR char9705
ENCODING 9705
SWIDTH 562 0
DWIDTH 6 0
BBX 6 8 0 -1
BITMAP
00
00
F8
F8
E8
C8
F8
00
ENDCHAR
STARTCHAR char9706
ENCODING 9706
SWIDTH 562 0
DWIDTH 6 0
BBX 6 8 0 -1
BITMAP
00
00
F8
98
B8
F8
F8
00
ENDCHAR
STARTCHAR char9707
ENCODING 9707
SWIDTH 562 0
DWIDTH 6 0
BBX 6 8 0 -1
BITMAP
00
00
F8
A8
A8
A8
F8
00
ENDCHAR
STARTCHAR char9650
ENCODING 9708
SWIDTH 562 0
DWIDTH 6 0
BBX 6 8 0 -1
BITMAP
00
20
50
50
A8
88
F8
00
ENDCHAR
STARTCHAR char9650
ENCODING 9709
SWIDTH 562 0
DWIDTH 6 0
BBX 6 8 0 -1
BITMAP
00
00
20
50
50
C8
F8
00
ENDCHAR
STARTCHAR char9650
ENCODING 9710
SWIDTH 562 0
DWIDTH 6 0
BBX 6 8 0 -1
BITMAP
00
00
20
50
50
98
F8
00
ENDCHAR
STARTCHAR char9711
ENCODING 9711
SWIDTH 562 0
DWIDTH 6 0
BBX 6 8 0 -1
BITMAP
00
00
70
88
88
88
70
00
ENDCHAR
STARTCHAR char9712
ENCODING 9712
SWIDTH 562 0
DWIDTH 6 0
BBX 6 8 0 -1
BITMAP
00
00
F8
A8
E8
88
F8
00
ENDCHAR
STARTCHAR char9712
ENCODING 9713
SWIDTH 562 0
DWIDTH 6 0
BBX 6 8 0 -1
BITMAP
00
00
F8
88
E8
A8
F8
00
ENDCHAR
STARTCHAR char9712
ENCODING 9714
SWIDTH 562 0
DWIDTH 6 0
BBX 6 8 0 -1
BITMAP
00
00
F8
88
B8
A8
F8
00
ENDCHAR
STARTCHAR char9712
ENCODING 9715
SWIDTH 562 0
DWIDTH 6 0
BBX 6 8 0 -1
BITMAP
00
00
F8
A8
B8
88
F8
00
ENDCHAR
STARTCHAR char9712
ENCODING 9716
SWIDTH 562 0
DWIDTH 6 0
BBX 6 8 0 -1
BITMAP
00
00
70
A8
E8
88
70
00
ENDCHAR
STARTCHAR char9712
ENCODING 9717
SWIDTH 562 0
DWIDTH 6 0
BBX 6 8 0 -1
BITMAP
00
00
70
88
E8
A8
70
00
ENDCHAR
STARTCHAR char9712
ENCODING 9718
SWIDTH 562 0
DWIDTH 6 0
BBX 6 8 0 -1
BITMAP
00
00
70
88
B8
A8
70
00
ENDCHAR
STARTCHAR char9712
ENCODING 9719
SWIDTH 562 0
DWIDTH 6 0
BBX 6 8 0 -1
BITMAP
00
00
70
A8
B8
88
70
00
ENDCHAR
STARTCHAR char9632
ENCODING 9720
SWIDTH 562 0
DWIDTH 6 0
BBX 6 8 0 -1
BITMAP
00
00
F8
90
A0
C0
80
00
ENDCHAR
STARTCHAR char9632
ENCODING 9721
SWIDTH 562 0
DWIDTH 6 0
BBX 6 8 0 -1
BITMAP
00
00
F8
48
28
18
08
00
ENDCHAR
STARTCHAR char9632
ENCODING 9722
SWIDTH 562 0
DWIDTH 6 0
BBX 6 8 0 -1
BITMAP
00
00
80
C0
A0
90
F8
00
ENDCHAR
STARTCHAR char9632
ENCODING 9723
SWIDTH 562 0
DWIDTH 6 0
BBX 6 8 0 -1
BITMAP
00
00
F8
F8
F8
F8
F8
00
ENDCHAR
STARTCHAR char9633
ENCODING 9724
SWIDTH 562 0
DWIDTH 6 0
BBX 6 8 0 -1
BITMAP
00
00
F8
88
88
88
F8
00
ENDCHAR
STARTCHAR char9642
ENCODING 9725
SWIDTH 562 0
DWIDTH 6 0
BBX 6 8 0 -1
BITMAP
00
00
00
70
70
70
00
00
ENDCHAR
STARTCHAR char9643
ENCODING 9726
SWIDTH 562 0
DWIDTH 6 0
BBX 6 8 0 -1
BITMAP
00
00
00
70
50
70
00
00
ENDCHAR
STARTCHAR char9632
ENCODING 9727
SWIDTH 562 0
DWIDTH 6 0
BBX 6 8 0 -1
BITMAP
00
00
08
18
28
48
F8
00
ENDCHAR
STARTCHAR char9728
ENCODING 9728
SWIDTH 562 0
DWIDTH 6 0
BBX 6 8 0 -1
BITMAP
00
00
A8
70
F8
70
A8
00
ENDCHAR
STARTCHAR char9729
ENCODING 9729
SWIDTH 562 0
DWIDTH 6 0
BBX 6 8 0 -1
BITMAP
00
00
00
30
F8
F8
70
00
ENDCHAR
STARTCHAR char9730
ENCODING 9730
SWIDTH 562 0
DWIDTH 6 0
BBX 6 8 0 -1
BITMAP
00
00
70
F8
F8
20
A0
E0
ENDCHAR
STARTCHAR char9731
ENCODING 9731
SWIDTH 562 0
DWIDTH 6 0
BBX 6 8 0 -1
BITMAP
28
B0
70
F8
88
A8
88
F8
ENDCHAR
STARTCHAR char9732
ENCODING 9732
SWIDTH 562 0
DWIDTH 6 0
BBX 6 8 0 -1
BITMAP
00
48
00
50
00
E0
A0
E0
ENDCHAR
STARTCHAR char9733
ENCODING 9733
SWIDTH 562 0
DWIDTH 6 0
BBX 6 8 0 -1
BITMAP
00
00
20
F8
70
70
50
00
ENDCHAR
STARTCHAR char9733
ENCODING 9734
SWIDTH 562 0
DWIDTH 6 0
BBX 6 8 0 -1
BITMAP
00
00
20
F8
50
70
50
00
ENDCHAR
STARTCHAR char9735
ENCODING 9735
SWIDTH 562 0
DWIDTH 6 0
BBX 6 8 0 -1
BITMAP
20
20
E0
80
E0
20
70
20
ENDCHAR
STARTCHAR char9736
ENCODING 9736
SWIDTH 562 0
DWIDTH 6 0
BBX 6 8 0 -1
BITMAP
00
F8
88
98
90
90
B8
10
ENDCHAR
STARTCHAR char9737
ENCODING 9737
SWIDTH 562 0
DWIDTH 6 0
BBX 6 8 0 -1
BITMAP
00
00
F8
88
A8
88
F8
00
ENDCHAR
STARTCHAR char9738
ENCODING 9738
SWIDTH 562 0
DWIDTH 6 0
BBX 6 8 0 -1
BITMAP
00
F8
88
D8
50
D8
D8
00
ENDCHAR
STARTCHAR char9738
ENCODING 9739
SWIDTH 562 0
DWIDTH 6 0
BBX 6 8 0 -1
BITMAP
00
D8
D8
50
D8
88
F8
00
ENDCHAR
STARTCHAR char9740
ENCODING 9740
SWIDTH 562 0
DWIDTH 6 0
BBX 6 8 0 -1
BITMAP
00
00
08
10
E0
A0
E0
00
ENDCHAR
STARTCHAR char9741
ENCODING 9741
SWIDTH 562 0
DWIDTH 6 0
BBX 6 8 0 -1
BITMAP
00
38
28
38
E0
A0
E0
00
ENDCHAR
STARTCHAR char9742
ENCODING 9742
SWIDTH 562 0
DWIDTH 6 0
BBX 6 8 0 -1
BITMAP
00
70
D8
00
70
D8
F8
00
ENDCHAR
STARTCHAR char9743
ENCODING 9743
SWIDTH 562 0
DWIDTH 6 0
BBX 6 8 0 -1
BITMAP
70
88
A8
F8
D8
A8
88
F8
ENDCHAR
STARTCHAR char9744
ENCODING 9744
SWIDTH 562 0
DWIDTH 6 0
BBX 6 8 0 -1
BITMAP
00
00
F8
88
88
88
F8
00
ENDCHAR
STARTCHAR char9745
ENCODING 9745
SWIDTH 562 0
DWIDTH 6 0
BBX 6 8 0 -1
BITMAP
00
00
F8
E8
A8
D8
F8
00
ENDCHAR
STARTCHAR char9746
ENCODING 9746
SWIDTH 562 0
DWIDTH 6 0
BBX 6 8 0 -1
BITMAP
00
00
F8
A8
D8
A8
F8
00
ENDCHAR
STARTCHAR char9747
ENCODING 9747
SWIDTH 562 0
DWIDTH 6 0
BBX 6 8 0 -1
BITMAP
00
00
88
50
20
50
88
00
ENDCHAR
STARTCHAR char9730
ENCODING 9748
SWIDTH 562 0
DWIDTH 6 0
BBX 6 8 0 -1
BITMAP
28
90
70
F8
F8
20
A0
E0
ENDCHAR
STARTCHAR char9749
ENCODING 9749
SWIDTH 562 0
DWIDTH 6 0
BBX 6 8 0 -1
BITMAP
20
40
20
F8
F8
F8
70
F8
ENDCHAR
STARTCHAR char9750
ENCODING 9750
SWIDTH 562 0
DWIDTH 6 0
BBX 6 8 0 -1
BITMAP
20
70
D8
88
88
88
F8
00
ENDCHAR
STARTCHAR char9750
ENCODING 9751
SWIDTH 562 0
DWIDTH 6 0
BBX 6 8 0 -1
BITMAP
20
70
F8
F8
F8
F8
F8
00
ENDCHAR
STARTCHAR char9752
ENCODING 9752
SWIDTH 562 0
DWIDTH 6 0
BBX 6 8 0 -1
BITMAP
70
70
20
F8
D8
20
70
00
ENDCHAR
STARTCHAR char9753
ENCODING 9753
SWIDTH 562 0
DWIDTH 6 0
BBX 6 8 0 -1
BITMAP
00
00
00
00
68
78
E8
00
ENDCHAR
STARTCHAR char9754
ENCODING 9754
SWIDTH 562 0
DWIDTH 6 0
BBX 6 8 0 -1
BITMAP
00
00
00
F8
38
38
18
00
ENDCHAR
STARTCHAR char9754
ENCODING 9755
SWIDTH 562 0
DWIDTH 6 0
BBX 6 8 0 -1
BITMAP
00
00
00
F8
E0
E0
C0
00
ENDCHAR
STARTCHAR char9754
ENCODING 9756
SWIDTH 562 0
DWIDTH 6 0
BBX 6 8 0 -1
BITMAP
00
00
00
F8
28
28
18
00
ENDCHAR
STARTCHAR char9754
ENCODING 9757
SWIDTH 562 0
DWIDTH 6 0
BBX 6 8 0 -1
BITMAP
00
10
10
70
90
90
F0
00
ENDCHAR
STARTCHAR char9754
ENCODING 9758
SWIDTH 562 0
DWIDTH 6 0
BBX 6 8 0 -1
BITMAP
00
00
00
F8
A0
A0
C0
00
ENDCHAR
STARTCHAR char9754
ENCODING 9759
SWIDTH 562 0
DWIDTH 6 0
BBX 6 8 0 -1
BITMAP
00
F0
90
90
70
10
10
00
ENDCHAR
STARTCHAR char9760
ENCODING 9760
SWIDTH 562 0
DWIDTH 6 0
BBX 6 8 0 -1
BITMAP
00
F8
88
D8
A8
50
70
88
ENDCHAR
STARTCHAR char9761
ENCODING 9761
SWIDTH 562 0
DWIDTH 6 0
BBX 6 8 0 -1
BITMAP
00
F0
10
30
C0
80
F0
00
ENDCHAR
STARTCHAR char9762
ENCODING 9762
SWIDTH 562 0
DWIDTH 6 0
BBX 6 8 0 -1
BITMAP
00
70
A8
A8
D8
D8
70
00
ENDCHAR
STARTCHAR char9763
ENCODING 9763
SWIDTH 562 0
DWIDTH 6 0
BBX 6 8 0 -1
BITMAP
00
00
50
F8
20
70
50
00
ENDCHAR
STARTCHAR char9764
ENCODING 9764
SWIDTH 562 0
DWIDTH 6 0
BBX 6 8 0 -1
BITMAP
20
F8
70
20
70
20
70
20
ENDCHAR
STARTCHAR char9765
ENCODING 9765
SWIDTH 562 0
DWIDTH 6 0
BBX 6 8 0 -1
BITMAP
00
70
50
F8
20
20
20
00
ENDCHAR
STARTCHAR char9766
ENCODING 9766
SWIDTH 562 0
DWIDTH 6 0
BBX 6 8 0 -1
BITMAP
20
70
20
F8
20
30
60
20
ENDCHAR
STARTCHAR char9767
ENCODING 9767
SWIDTH 562 0
DWIDTH 6 0
BBX 6 8 0 -1
BITMAP
00
38
28
38
20
70
20
50
ENDCHAR
STARTCHAR char9768
ENCODING 9768
SWIDTH 562 0
DWIDTH 6 0
BBX 6 8 0 -1
BITMAP
00
20
70
20
F8
20
20
00
ENDCHAR
STARTCHAR char9769
ENCODING 9769
SWIDTH 562 0
DWIDTH 6 0
BBX 6 8 0 -1
BITMAP
00
70
20
A8
F8
A8
20
70
ENDCHAR
STARTCHAR char9770
ENCODING 9770
SWIDTH 562 0
DWIDTH 6 0
BBX 6 8 0 -1
BITMAP
00
F8
80
A8
90
A8
80
F8
ENDCHAR
STARTCHAR char9771
ENCODING 9771
SWIDTH 562 0
DWIDTH 6 0
BBX 6 8 0 -1
BITMAP
00
20
A8
A8
F8
20
70
00
ENDCHAR
STARTCHAR char9772
ENCODING 9772
SWIDTH 562 0
DWIDTH 6 0
BBX 6 8 0 -1
BITMAP
00
20
F8
A8
F8
20
F8
70
ENDCHAR
STARTCHAR char9773
ENCODING 9773
SWIDTH 562 0
DWIDTH 6 0
BBX 6 8 0 -1
BITMAP
F0
10
D0
F8
D0
10
F0
60
ENDCHAR
STARTCHAR char9774
ENCODING 9774
SWIDTH 562 0
DWIDTH 6 0
BBX 6 8 0 -1
BITMAP
00
70
A8
A8
F8
F8
A8
70
ENDCHAR
STARTCHAR char9775
ENCODING 9775
SWIDTH 562 0
DWIDTH 6 0
BBX 6 8 0 -1
BITMAP
00
F8
98
D8
98
B8
A8
F8
ENDCHAR
STARTCHAR char9776
ENCODING 9776
SWIDTH 562 0
DWIDTH 6 0
BBX 6 8 0 -1
BITMAP
00
00
F8
00
F8
00
F8
00
ENDCHAR
STARTCHAR char9776
ENCODING 9777
SWIDTH 562 0
DWIDTH 6 0
BBX 6 8 0 -1
BITMAP
00
00
D8
00
F8
00
F8
00
ENDCHAR
STARTCHAR char9776
ENCODING 9778
SWIDTH 562 0
DWIDTH 6 0
BBX 6 8 0 -1
BITMAP
00
00
F8
00
D8
00
F8
00
ENDCHAR
STARTCHAR char9776
ENCODING 9779
SWIDTH 562 0
DWIDTH 6 0
BBX 6 8 0 -1
BITMAP
00
00
D8
00
D8
00
F8
00
ENDCHAR
STARTCHAR char9776
ENCODING 9780
SWIDTH 562 0
DWIDTH 6 0
BBX 6 8 0 -1
BITMAP
00
00
F8
00
F8
00
D8
00
ENDCHAR
STARTCHAR char9776
ENCODING 9781
SWIDTH 562 0
DWIDTH 6 0
BBX 6 8 0 -1
BITMAP
00
00
D8
00
F8
00
D8
00
ENDCHAR
STARTCHAR char9776
ENCODING 9782
SWIDTH 562 0
DWIDTH 6 0
BBX 6 8 0 -1
BITMAP
00
00
F8
00
D8
00
D8
00
ENDCHAR
STARTCHAR char9776
ENCODING 9783
SWIDTH 562 0
DWIDTH 6 0
BBX 6 8 0 -1
BITMAP
00
00
D8
00
D8
00
D8
00
ENDCHAR
STARTCHAR char9784
ENCODING 9784
SWIDTH 562 0
DWIDTH 6 0
BBX 6 8 0 -1
BITMAP
00
20
A8
70
D8
70
A8
20
ENDCHAR
STARTCHAR char9785
ENCODING 9785
SWIDTH 562 0
DWIDTH 6 0
BBX 6 8 0 -1
BITMAP
00
F8
A8
F8
88
A8
F8
00
ENDCHAR
STARTCHAR char9785
ENCODING 9786
SWIDTH 562 0
DWIDTH 6 0
BBX 6 8 0 -1
BITMAP
00
F8
A8
F8
A8
88
F8
00
ENDCHAR
STARTCHAR char9785
ENCODING 9787
SWIDTH 562 0
DWIDTH 6 0
BBX 6 8 0 -1
BITMAP
00
F8
A8
F8
A8
88
F8
00
ENDCHAR
STARTCHAR char9728
ENCODING 9788
SWIDTH 562 0
DWIDTH 6 0
BBX 6 8 0 -1
BITMAP
00
00
A8
70
D8
70
A8
00
ENDCHAR
STARTCHAR char9789
ENCODING 9789
SWIDTH 562 0
DWIDTH 6 0
BBX 6 8 0 -1
BITMAP
00
F8
88
E8
E8
88
F8
00
ENDCHAR
STARTCHAR char9789
ENCODING 9790
SWIDTH 562 0
DWIDTH 6 0
BBX 6 8 0 -1
BITMAP
00
F8
88
B8
B8
88
F8
00
ENDCHAR
STARTCHAR char9791
ENCODING 9791
SWIDTH 562 0
DWIDTH 6 0
BBX 6 8 0 -1
BITMAP
00
D8
70
50
70
20
70
20
ENDCHAR
STARTCHAR char9792
ENCODING 9792
SWIDTH 562 0
DWIDTH 6 0
BBX 6 8 0 -1
BITMAP
00
70
50
70
20
70
20
00
ENDCHAR
STARTCHAR char9792
ENCODING 9793
SWIDTH 562 0
DWIDTH 6 0
BBX 6 8 0 -1
BITMAP
00
20
70
20
70
50
70
00
ENDCHAR
STARTCHAR char9794
ENCODING 9794
SWIDTH 562 0
DWIDTH 6 0
BBX 6 8 0 -1
BITMAP
00
00
38
18
E8
A0
E0
00
ENDCHAR
STARTCHAR char9795
ENCODING 9795
SWIDTH 562 0
DWIDTH 6 0
BBX 6 8 0 -1
BITMAP
00
00
08
E8
28
68
F8
08
ENDCHAR
STARTCHAR char9796
ENCODING 9796
SWIDTH 562 0
DWIDTH 6 0
BBX 6 8 0 -1
BITMAP
00
40
E0
40
78
48
58
00
ENDCHAR
STARTCHAR char9797
ENCODING 9797
SWIDTH 562 0
DWIDTH 6 0
BBX 6 8 0 -1
BITMAP
00
A8
F8
A8
70
50
70
00
ENDCHAR
STARTCHAR char9798
ENCODING 9798
SWIDTH 562 0
DWIDTH 6 0
BBX 6 8 0 -1
BITMAP
00
20
A8
A8
F8
20
70
20
ENDCHAR
STARTCHAR char9799
ENCODING 9799
SWIDTH 562 0
DWIDTH 6 0
BBX 6 8 0 -1
BITMAP
00
F8
88
88
F8
80
F8
00
ENDCHAR
STARTCHAR char9800
ENCODING 9800
SWIDTH 562 0
DWIDTH 6 0
BBX 6 8 0 -1
BITMAP
00
00
D8
A8
20
20
20
00
ENDCHAR
STARTCHAR char9801
ENCODING 9801
SWIDTH 562 0
DWIDTH 6 0
BBX 6 8 0 -1
BITMAP
00
00
D8
50
70
50
70
00
ENDCHAR
STARTCHAR char9802
ENCODING 9802
SWIDTH 562 0
DWIDTH 6 0
BBX 6 8 0 -1
BITMAP
00
88
F8
50
50
F8
88
00
ENDCHAR
STARTCHAR char9803
ENCODING 9803
SWIDTH 562 0
DWIDTH 6 0
BBX 6 8 0 -1
BITMAP
00
F8
A8
E0
38
A8
F8
00
ENDCHAR
STARTCHAR char9804
ENCODING 9804
SWIDTH 562 0
DWIDTH 6 0
BBX 6 8 0 -1
BITMAP
00
38
28
28
E8
A8
E8
00
ENDCHAR
STARTCHAR char9805
ENCODING 9805
SWIDTH 562 0
DWIDTH 6 0
BBX 6 8 0 -1
BITMAP
00
E0
B8
B8
98
98
B8
10
ENDCHAR
STARTCHAR char9806
ENCODING 9806
SWIDTH 562 0
DWIDTH 6 0
BBX 6 8 0 -1
BITMAP
00
00
70
D8
00
00
F8
00
ENDCHAR
STARTCHAR char9807
ENCODING 9807
SWIDTH 562 0
DWIDTH 6 0
BBX 6 8 0 -1
BITMAP
00
E0
B0
B0
90
90
98
00
ENDCHAR
STARTCHAR char9808
ENCODING 9808
SWIDTH 562 0
DWIDTH 6 0
BBX 6 8 0 -1
BITMAP
00
00
38
18
A8
40
A0
00
ENDCHAR
STARTCHAR char9809
ENCODING 9809
SWIDTH 562 0
DWIDTH 6 0
BBX 6 8 0 -1
BITMAP
00
E0
A0
B8
A8
38
60
00
ENDCHAR
STARTCHAR char9810
ENCODING 9810
SWIDTH 562 0
DWIDTH 6 0
BBX 6 8 0 -1
BITMAP
00
00
F8
A8
00
F8
A8
00
ENDCHAR
STARTCHAR char9811
ENCODING 9811
SWIDTH 562 0
DWIDTH 6 0
BBX 6 8 0 -1
BITMAP
00
00
D8
50
F8
50
D8
00
ENDCHAR
STARTCHAR char9812
ENCODING 9812
SWIDTH 562 0
DWIDTH 6 0
BBX 6 8 0 -1
BITMAP
00
20
00
F8
A8
F8
70
00
ENDCHAR
STARTCHAR char9813
ENCODING 9813
SWIDTH 562 0
DWIDTH 6 0
BBX 6 8 0 -1
BITMAP
20
88
20
A8
F8
50
70
00
ENDCHAR
STARTCHAR char9814
ENCODING 9814
SWIDTH 562 0
DWIDTH 6 0
BBX 6 8 0 -1
BITMAP
00
A8
F8
88
D8
88
F8
00
ENDCHAR
STARTCHAR char9815
ENCODING 9815
SWIDTH 562 0
DWIDTH 6 0
BBX 6 8 0 -1
BITMAP
20
F8
88
F8
D8
88
F8
00
ENDCHAR
STARTCHAR char9816
ENCODING 9816
SWIDTH 562 0
DWIDTH 6 0
BBX 6 8 0 -1
BITMAP
28
38
E8
88
D8
88
F8
00
ENDCHAR
STARTCHAR char9817
ENCODING 9817
SWIDTH 562 0
DWIDTH 6 0
BBX 6 8 0 -1
BITMAP
00
70
50
70
D8
88
F8
00
ENDCHAR
STARTCHAR char9812
ENCODING 9818
SWIDTH 562 0
DWIDTH 6 0
BBX 6 8 0 -1
BITMAP
00
20
F8
D8
D8
F8
70
00
ENDCHAR
STARTCHAR char9813
ENCODING 9819
SWIDTH 562 0
DWIDTH 6 0
BBX 6 8 0 -1
BITMAP
20
88
20
A8
F8
70
F8
00
ENDCHAR
STARTCHAR char9814
ENCODING 9820
SWIDTH 562 0
DWIDTH 6 0
BBX 6 8 0 -1
BITMAP
00
A8
F8
F8
70
D8
F8
00
ENDCHAR
STARTCHAR char9815
ENCODING 9821
SWIDTH 562 0
DWIDTH 6 0
BBX 6 8 0 -1
BITMAP
20
F8
F8
F8
70
F8
F8
00
ENDCHAR
STARTCHAR char9816
ENCODING 9822
SWIDTH 562 0
DWIDTH 6 0
BBX 6 8 0 -1
BITMAP
28
38
F8
F8
70
F8
F8
00
ENDCHAR
STARTCHAR char9817
ENCODING 9823
SWIDTH 562 0
DWIDTH 6 0
BBX 6 8 0 -1
BITMAP
00
00
70
70
50
F8
F8
00
ENDCHAR
STARTCHAR char9824
ENCODING 9824
SWIDTH 562 0
DWIDTH 6 0
BBX 6 8 0 -1
BITMAP
00
20
70
F8
D8
20
70
00
ENDCHAR
STARTCHAR char9824
ENCODING 9825
SWIDTH 562 0
DWIDTH 6 0
BBX 6 8 0 -1
BITMAP
00
F8
A8
88
D8
70
20
00
ENDCHAR
STARTCHAR char9752
ENCODING 9826
SWIDTH 562 0
DWIDTH 6 0
BBX 6 8 0 -1
BITMAP
00
20
70
D8
88
D8
70
20
ENDCHAR
STARTCHAR char9752
ENCODING 9827
SWIDTH 562 0
DWIDTH 6 0
BBX 6 8 0 -1
BITMAP
00
70
70
F8
D8
20
70
00
ENDCHAR
STARTCHAR char9824
ENCODING 9828
SWIDTH 562 0
DWIDTH 6 0
BBX 6 8 0 -1
BITMAP
20
70
D8
88
A8
D8
70
00
ENDCHAR
STARTCHAR char9824
ENCODING 9829
SWIDTH 562 0
DWIDTH 6 0
BBX 6 8 0 -1
BITMAP
00
00
D8
F8
F8
70
20
00
ENDCHAR
STARTCHAR char9752
ENCODING 9830
SWIDTH 562 0
DWIDTH 6 0
BBX 6 8 0 -1
BITMAP
00
20
70
F8
F8
70
20
00
ENDCHAR
STARTCHAR char9752
ENCODING 9831
SWIDTH 562 0
DWIDTH 6 0
BBX 6 8 0 -1
BITMAP
00
70
D8
A8
F8
20
70
00
ENDCHAR
STARTCHAR char9832
ENCODING 9832
SWIDTH 562 0
DWIDTH 6 0
BBX 6 8 0 -1
BITMAP
00
20
28
50
00
88
F8
00
ENDCHAR
STARTCHAR char9833
ENCODING 9833
SWIDTH 562 0
DWIDTH 6 0
BBX 6 8 0 -1
BITMAP
00
20
20
20
E0
E0
E0
00
ENDCHAR
STARTCHAR char9834
ENCODING 9834
SWIDTH 562 0
DWIDTH 6 0
BBX 6 8 0 -1
BITMAP
00
30
38
28
E8
E0
E0
00
ENDCHAR
STARTCHAR char9835
ENCODING 9835
SWIDTH 562 0
DWIDTH 6 0
BBX 6 8 0 -1
BITMAP
00
78
48
48
C8
D8
18
00
ENDCHAR
STARTCHAR char9836
ENCODING 9836
SWIDTH 562 0
DWIDTH 6 0
BBX 6 8 0 -1
BITMAP
00
78
48
78
48
D8
D8
00
ENDCHAR
STARTCHAR char9837
ENCODING 9837
SWIDTH 562 0
DWIDTH 6 0
BBX 6 8 0 -1
BITMAP
00
80
80
F0
90
B0
E0
00
ENDCHAR
STARTCHAR char9838
ENCODING 9838
SWIDTH 562 0
DWIDTH 6 0
BBX 6 8 0 -1
BITMAP
00
80
B8
C8
98
E8
08
00
ENDCHAR
STARTCHAR char9839
ENCODING 9839
SWIDTH 562 0
DWIDTH 6 0
BBX 6 8 0 -1
BITMAP
00
10
58
70
D8
70
D0
40
ENDCHAR
STARTCHAR char9840
ENCODING 9840
SWIDTH 562 0
DWIDTH 6 0
BBX 6 8 0 -1
BITMAP
00
70
A8
F8
A8
20
70
00
ENDCHAR
STARTCHAR char9841
ENCODING 9841
SWIDTH 562 0
DWIDTH 6 0
BBX 6 8 0 -1
BITMAP
70
D8
A8
F8
70
50
70
00
ENDCHAR
STARTCHAR char9854
ENCODING 9854
SWIDTH 562 0
DWIDTH 6 0
BBX 6 8 0 -1
BITMAP
00
00
F8
F8
A8
F8
F8
00
ENDCHAR
STARTCHAR char9855
ENCODING 9855
SWIDTH 562 0
DWIDTH 6 0
BBX 6 8 0 -1
BITMAP
00
30
30
20
F0
B8
90
F0
ENDCHAR
STARTCHAR char9856
ENCODING 9856
SWIDTH 562 0
DWIDTH 6 0
BBX 6 8 0 -1
BITMAP
00
F8
F8
F8
D8
F8
F8
F8
ENDCHAR
STARTCHAR char9856
ENCODING 9857
SWIDTH 562 0
DWIDTH 6 0
BBX 6 8 0 -1
BITMAP
00
F8
F8
D8
F8
D8
F8
F8
ENDCHAR
STARTCHAR char9856
ENCODING 9858
SWIDTH 562 0
DWIDTH 6 0
BBX 6 8 0 -1
BITMAP
00
F8
E8
F8
D8
F8
B8
F8
ENDCHAR
STARTCHAR char9856
ENCODING 9859
SWIDTH 562 0
DWIDTH 6 0
BBX 6 8 0 -1
BITMAP
00
F8
A8
F8
F8
F8
A8
F8
ENDCHAR
STARTCHAR char9856
ENCODING 9860
SWIDTH 562 0
DWIDTH 6 0
BBX 6 8 0 -1
BITMAP
00
F8
A8
F8
D8
F8
A8
F8
ENDCHAR
STARTCHAR char9856
ENCODING 9861
SWIDTH 562 0
DWIDTH 6 0
BBX 6 8 0 -1
BITMAP
00
F8
A8
F8
A8
F8
A8
F8
ENDCHAR
STARTCHAR char9862
ENCODING 9862
SWIDTH 562 0
DWIDTH 6 0
BBX 6 8 0 -1
BITMAP
00
00
F8
88
98
88
F8
00
ENDCHAR
STARTCHAR char9863
ENCODING 9863
SWIDTH 562 0
DWIDTH 6 0
BBX 6 8 0 -1
BITMAP
00
00
F8
88
D8
88
F8
00
ENDCHAR
STARTCHAR char9864
ENCODING 9864
SWIDTH 562 0
DWIDTH 6 0
BBX 6 8 0 -1
BITMAP
00
00
F8
F8
E8
F8
F8
00
ENDCHAR
STARTCHAR char9865
ENCODING 9865
SWIDTH 562 0
DWIDTH 6 0
BBX 6 8 0 -1
BITMAP
00
00
F8
F8
A8
F8
F8
00
ENDCHAR
STARTCHAR char9866
ENCODING 9866
SWIDTH 562 0
DWIDTH 6 0
BBX 6 8 0 -1
BITMAP
00
00
00
00
00
00
F8
00
ENDCHAR
STARTCHAR char9867
ENCODING 9867
SWIDTH 562 0
DWIDTH 6 0
BBX 6 8 0 -1
BITMAP
00
00
00
00
00
00
D8
00
ENDCHAR
STARTCHAR char9868
ENCODING 9868
SWIDTH 562 0
DWIDTH 6 0
BBX 6 8 0 -1
BITMAP
00
00
00
00
F8
00
F8
00
ENDCHAR
STARTCHAR char9869
ENCODING 9869
SWIDTH 562 0
DWIDTH 6 0
BBX 6 8 0 -1
BITMAP
00
00
00
00
D8
00
F8
00
ENDCHAR
STARTCHAR char9870
ENCODING 9870
SWIDTH 562 0
DWIDTH 6 0
BBX 6 8 0 -1
BITMAP
00
00
00
00
F8
00
D8
00
ENDCHAR
STARTCHAR char9871
ENCODING 9871
SWIDTH 562 0
DWIDTH 6 0
BBX 6 8 0 -1
BITMAP
00
00
00
00
D8
00
D8
00
ENDCHAR
STARTCHAR char9872
ENCODING 9872
SWIDTH 562 0
DWIDTH 6 0
BBX 6 8 0 -1
BITMAP
00
E0
98
88
E8
98
80
00
ENDCHAR
STARTCHAR char9873
ENCODING 9873
SWIDTH 562 0
DWIDTH 6 0
BBX 6 8 0 -1
BITMAP
00
E0
F8
F8
F8
98
80
00
ENDCHAR
STARTCHAR char9874
ENCODING 9874
SWIDTH 562 0
DWIDTH 6 0
BBX 6 8 0 -1
BITMAP
00
00
D8
D8
28
50
88
00
ENDCHAR
STARTCHAR char9875
ENCODING 9875
SWIDTH 562 0
DWIDTH 6 0
BBX 6 8 0 -1
BITMAP
00
20
70
20
A8
F8
20
00
ENDCHAR
STARTCHAR char9876
ENCODING 9876
SWIDTH 562 0
DWIDTH 6 0
BBX 6 8 0 -1
BITMAP
00
00
88
50
20
D8
D8
00
ENDCHAR
STARTCHAR char9877
ENCODING 9877
SWIDTH 562 0
DWIDTH 6 0
BBX 6 8 0 -1
BITMAP
00
F0
A0
E0
38
60
30
20
ENDCHAR
STARTCHAR char9878
ENCODING 9878
SWIDTH 562 0
DWIDTH 6 0
BBX 6 8 0 -1
BITMAP
00
20
20
F8
50
D8
D8
00
ENDCHAR
STARTCHAR char9879
ENCODING 9879
SWIDTH 562 0
DWIDTH 6 0
BBX 6 8 0 -1
BITMAP
00
F8
B8
B8
00
F8
A8
00
ENDCHAR
STARTCHAR char9880
ENCODING 9880
SWIDTH 562 0
DWIDTH 6 0
BBX 6 8 0 -1
BITMAP
00
70
50
70
20
A8
F8
20
ENDCHAR
STARTCHAR char9881
ENCODING 9881
SWIDTH 562 0
DWIDTH 6 0
BBX 6 8 0 -1
BITMAP
00
A8
F8
88
A8
88
F8
A8
ENDCHAR
STARTCHAR char9882
ENCODING 9882
SWIDTH 562 0
DWIDTH 6 0
BBX 6 8 0 -1
BITMAP
00
20
F8
D8
F8
A8
20
00
ENDCHAR
STARTCHAR char9883
ENCODING 9883
SWIDTH 562 0
DWIDTH 6 0
BBX 6 8 0 -1
BITMAP
00
20
A8
F8
50
F8
A8
20
ENDCHAR
STARTCHAR char9884
ENCODING 9884
SWIDTH 562 0
DWIDTH 6 0
BBX 6 8 0 -1
BITMAP
00
20
70
70
F8
F8
A8
20
ENDCHAR
STARTCHAR char9885
ENCODING 9885
SWIDTH 562 0
DWIDTH 6 0
BBX 6 8 0 -1
BITMAP
20
50
F8
88
50
A8
D8
00
ENDCHAR
STARTCHAR char9886
ENCODING 9886
SWIDTH 562 0
DWIDTH 6 0
BBX 6 8 0 -1
BITMAP
00
E0
38
00
F8
00
38
E0
ENDCHAR
STARTCHAR char9886
ENCODING 9887
SWIDTH 562 0
DWIDTH 6 0
BBX 6 8 0 -1
BITMAP
00
38
E0
00
F8
00
E0
38
ENDCHAR
STARTCHAR char9888
ENCODING 9888
SWIDTH 562 0
DWIDTH 6 0
BBX 6 8 0 -1
BITMAP
00
20
50
50
F8
D8
F8
00
ENDCHAR
STARTCHAR char9889
ENCODING 9889
SWIDTH 562 0
DWIDTH 6 0
BBX 6 8 0 -1
BITMAP
00
20
E0
80
F8
08
38
20
ENDCHAR
STARTCHAR char9890
ENCODING 9890
SWIDTH 562 0
DWIDTH 6 0
BBX 6 8 0 -1
BITMAP
00
F8
A8
F8
50
F8
50
00
ENDCHAR
STARTCHAR char9891
ENCODING 9891
SWIDTH 562 0
DWIDTH 6 0
BBX 6 8 0 -1
BITMAP
18
18
E0
B8
F8
A0
E0
00
ENDCHAR
STARTCHAR char9892
ENCODING 9892
SWIDTH 562 0
DWIDTH 6 0
BBX 6 8 0 -1
BITMAP
18
10
F8
A8
F8
40
E0
40
ENDCHAR
STARTCHAR char9893
ENCODING 9893
SWIDTH 562 0
DWIDTH 6 0
BBX 6 8 0 -1
BITMAP
00
18
F8
A0
E0
40
E0
40
ENDCHAR
STARTCHAR char9894
ENCODING 9894
SWIDTH 562 0
DWIDTH 6 0
BBX 6 8 0 -1
BITMAP
00
18
58
30
F0
A8
E0
00
ENDCHAR
STARTCHAR char9895
ENCODING 9895
SWIDTH 562 0
DWIDTH 6 0
BBX 6 8 0 -1
BITMAP
00
88
C8
F8
50
70
20
70
ENDCHAR
STARTCHAR char9896
ENCODING 9896
SWIDTH 562 0
DWIDTH 6 0
BBX 6 8 0 -1
BITMAP
20
70
20
F8
70
50
70
00
ENDCHAR
STARTCHAR char9897
ENCODING 9897
SWIDTH 562 0
DWIDTH 6 0
BBX 6 8 0 -1
BITMAP
00
00
40
D0
F8
D0
40
00
ENDCHAR
STARTCHAR char9898
ENCODING 9898
SWIDTH 562 0
DWIDTH 6 0
BBX 6 8 0 -1
BITMAP
00
00
F0
90
90
F0
00
00
ENDCHAR
STARTCHAR char9899
ENCODING 9899
SWIDTH 562 0
DWIDTH 6 0
BBX 6 8 0 -1
BITMAP
00
00
F0
F0
F0
F0
00
00
ENDCHAR
STARTCHAR char9900
ENCODING 9900
SWIDTH 562 0
DWIDTH 6 0
BBX 6 8 0 -1
BITMAP
00
00
00
70
50
70
00
00
ENDCHAR
STARTCHAR char9900
ENCODING 9901
SWIDTH 562 0
DWIDTH 6 0
BBX 6 8 0 -1
BITMAP
00
00
00
F8
A8
F8
00
00
ENDCHAR
STARTCHAR char9901
ENCODING 9902
SWIDTH 562 0
DWIDTH 6 0
BBX 6 8 0 -1
BITMAP
00
00
20
F8
A8
F8
20
00
ENDCHAR
STARTCHAR char9902
ENCODING 9903
SWIDTH 562 0
DWIDTH 6 0
BBX 6 8 0 -1
BITMAP
00
E0
A0
E0
20
38
28
38
ENDCHAR
STARTCHAR char9917
ENCODING 9917
SWIDTH 562 0
DWIDTH 6 0
BBX 6 8 0 -1
BITMAP
00
00
70
A8
D8
A8
70
00
ENDCHAR
STARTCHAR char9918
ENCODING 9918
SWIDTH 562 0
DWIDTH 6 0
BBX 6 8 0 -1
BITMAP
00
00
70
A8
A8
A8
70
00
ENDCHAR
STARTCHAR char9919
ENCODING 9919
SWIDTH 562 0
DWIDTH 6 0
BBX 6 8 0 -1
BITMAP
00
F8
88
88
D8
C8
D8
F8
ENDCHAR
STARTCHAR char9920
ENCODING 9920
SWIDTH 562 0
DWIDTH 6 0
BBX 6 8 0 -1
BITMAP
00
00
70
88
F8
88
70
00
ENDCHAR
STARTCHAR char9920
ENCODING 9921
SWIDTH 562 0
DWIDTH 6 0
BBX 6 8 0 -1
BITMAP
00
70
88
F8
88
F8
88
70
ENDCHAR
STARTCHAR char9920
ENCODING 9922
SWIDTH 562 0
DWIDTH 6 0
BBX 6 8 0 -1
BITMAP
00
00
70
F8
F8
88
70
00
ENDCHAR
STARTCHAR char9920
ENCODING 9923
SWIDTH 562 0
DWIDTH 6 0
BBX 6 8 0 -1
BITMAP
00
70
F8
F8
88
F8
88
70
ENDCHAR
STARTCHAR char9924
ENCODING 9924
SWIDTH 562 0
DWIDTH 6 0
BBX 6 8 0 -1
BITMAP
70
50
F8
88
A8
88
F8
00
ENDCHAR
STARTCHAR char9729
ENCODING 9925
SWIDTH 562 0
DWIDTH 6 0
BBX 6 8 0 -1
BITMAP
00
00
40
B0
F8
F8
70
00
ENDCHAR
STARTCHAR char9926
ENCODING 9926
SWIDTH 562 0
DWIDTH 6 0
BBX 6 8 0 -1
BITMAP
20
28
88
A0
28
48
50
10
ENDCHAR
STARTCHAR char9927
ENCODING 9927
SWIDTH 562 0
DWIDTH 6 0
BBX 6 8 0 -1
BITMAP
48
20
A8
70
F8
D8
F8
00
ENDCHAR
STARTCHAR char9729
ENCODING 9928
SWIDTH 562 0
DWIDTH 6 0
BBX 6 8 0 -1
BITMAP
00
30
D8
C8
68
A8
10
A8
ENDCHAR
STARTCHAR char9750
ENCODING 9929
SWIDTH 562 0
DWIDTH 6 0
BBX 6 8 0 -1
BITMAP
00
F8
88
88
88
D8
70
20
ENDCHAR
STARTCHAR char9750
ENCODING 9930
SWIDTH 562 0
DWIDTH 6 0
BBX 6 8 0 -1
BITMAP
00
F8
F8
F8
F8
F8
70
20
ENDCHAR
STARTCHAR char9932
ENCODING 9932
SWIDTH 562 0
DWIDTH 6 0
BBX 6 8 0 -1
BITMAP
00
28
28
08
F8
80
A0
A0
ENDCHAR
STARTCHAR char9933
ENCODING 9933
SWIDTH 562 0
DWIDTH 6 0
BBX 6 8 0 -1
BITMAP
00
70
88
F8
50
00
10
38
ENDCHAR
STARTCHAR char9934
ENCODING 9934
SWIDTH 562 0
DWIDTH 6 0
BBX 6 8 0 -1
BITMAP
00
00
50
70
D8
50
70
00
ENDCHAR
STARTCHAR char9935
ENCODING 9935
SWIDTH 562 0
DWIDTH 6 0
BBX 6 8 0 -1
BITMAP
00
00
B0
60
E0
90
08
00
ENDCHAR
STARTCHAR char9936
ENCODING 9936
SWIDTH 562 0
DWIDTH 6 0
BBX 6 8 0 -1
BITMAP
00
70
88
F8
50
00
D0
90
ENDCHAR
STARTCHAR char9937
ENCODING 9937
SWIDTH 562 0
DWIDTH 6 0
BBX 6 8 0 -1
BITMAP
A8
40
A8
A8
40
A8
A8
40
ENDCHAR
STARTCHAR char9938
ENCODING 9938
SWIDTH 562 0
DWIDTH 6 0
BBX 6 8 0 -1
BITMAP
00
00
70
F8
88
F8
70
00
ENDCHAR
STARTCHAR char9951
ENCODING 9951
SWIDTH 562 0
DWIDTH 6 0
BBX 6 8 0 -1
BITMAP
00
00
00
F0
F8
F8
50
00
ENDCHAR
STARTCHAR char9954
ENCODING 9954
SWIDTH 562 0
DWIDTH 6 0
BBX 6 8 0 -1
BITMAP
20
70
20
F8
88
A8
88
F8
ENDCHAR
STARTCHAR char9960
ENCODING 9960
SWIDTH 562 0
DWIDTH 6 0
BBX 6 8 0 -1
BITMAP
00
F8
D8
88
D8
70
20
00
ENDCHAR
STARTCHAR char9961
ENCODING 9961
SWIDTH 562 0
DWIDTH 6 0
BBX 6 8 0 -1
BITMAP
00
F8
50
70
50
50
50
00
ENDCHAR
STARTCHAR char9962
ENCODING 9962
SWIDTH 562 0
DWIDTH 6 0
BBX 6 8 0 -1
BITMAP
00
20
70
20
70
F8
50
00
ENDCHAR
STARTCHAR char9963
ENCODING 9963
SWIDTH 562 0
DWIDTH 6 0
BBX 6 8 0 -1
BITMAP
00
70
50
D8
88
A8
A8
00
ENDCHAR
STARTCHAR char9964
ENCODING 9964
SWIDTH 562 0
DWIDTH 6 0
BBX 6 8 0 -1
BITMAP
00
00
20
00
00
00
88
00
ENDCHAR
STARTCHAR char9965
ENCODING 9965
SWIDTH 562 0
DWIDTH 6 0
BBX 6 8 0 -1
BITMAP
00
00
20
70
D8
70
20
00
ENDCHAR
STARTCHAR char9965
ENCODING 9966
SWIDTH 562 0
DWIDTH 6 0
BBX 6 8 0 -1
BITMAP
00
30
20
70
D8
70
20
60
ENDCHAR
STARTCHAR char9967
ENCODING 9967
SWIDTH 562 0
DWIDTH 6 0
BBX 6 8 0 -1
BITMAP
00
A8
F8
88
A8
88
F8
A8
ENDCHAR
STARTCHAR char9968
ENCODING 9968
SWIDTH 562 0
DWIDTH 6 0
BBX 6 8 0 -1
BITMAP
00
20
50
50
C8
F8
F8
00
ENDCHAR
STARTCHAR char9969
ENCODING 9969
SWIDTH 562 0
DWIDTH 6 0
BBX 6 8 0 -1
BITMAP
00
70
A8
F8
20
20
F8
00
ENDCHAR
STARTCHAR char9970
ENCODING 9970
SWIDTH 562 0
DWIDTH 6 0
BBX 6 8 0 -1
BITMAP
00
50
A8
20
F8
70
F8
00
ENDCHAR
STARTCHAR char9971
ENCODING 9971
SWIDTH 562 0
DWIDTH 6 0
BBX 6 8 0 -1
BITMAP
00
20
30
38
20
20
70
20
ENDCHAR
STARTCHAR char9972
ENCODING 9972
SWIDTH 562 0
DWIDTH 6 0
BBX 6 8 0 -1
BITMAP
28
00
20
78
48
F8
78
00
ENDCHAR
STARTCHAR char9973
ENCODING 9973
SWIDTH 562 0
DWIDTH 6 0
BBX 6 8 0 -1
BITMAP
00
20
70
F8
20
F8
70
00
ENDCHAR
STARTCHAR char9974
ENCODING 9974
SWIDTH 562 0
DWIDTH 6 0
BBX 6 8 0 -1
BITMAP
00
00
D8
88
00
88
D8
00
ENDCHAR
STARTCHAR char9975
ENCODING 9975
SWIDTH 562 0
DWIDTH 6 0
BBX 6 8 0 -1
BITMAP
00
60
60
20
38
A0
78
00
ENDCHAR
STARTCHAR char9976
ENCODING 9976
SWIDTH 562 0
DWIDTH 6 0
BBX 6 8 0 -1
BITMAP
00
18
18
F8
F8
50
F8
00
ENDCHAR
STARTCHAR char9977
ENCODING 9977
SWIDTH 562 0
DWIDTH 6 0
BBX 6 8 0 -1
BITMAP
00
60
60
F8
60
68
60
00
ENDCHAR
STARTCHAR char9978
ENCODING 9978
SWIDTH 562 0
DWIDTH 6 0
BBX 6 8 0 -1
BITMAP
00
00
00
20
70
D8
D8
00
ENDCHAR
STARTCHAR char9979
ENCODING 9979
SWIDTH 562 0
DWIDTH 6 0
BBX 6 8 0 -1
BITMAP
00
70
88
50
50
88
70
00
ENDCHAR
STARTCHAR char9980
ENCODING 9980
SWIDTH 562 0
DWIDTH 6 0
BBX 6 8 0 -1
BITMAP
40
E0
00
10
38
40
E0
00
ENDCHAR
STARTCHAR char9981
ENCODING 9981
SWIDTH 562 0
DWIDTH 6 0
BBX 6 8 0 -1
BITMAP
10
38
08
E8
A8
F8
E0
00
ENDCHAR
STARTCHAR char9982
ENCODING 9982
SWIDTH 562 0
DWIDTH 6 0
BBX 6 8 0 -1
BITMAP
00
E8
F8
88
88
D8
F8
00
ENDCHAR
STARTCHAR char9983
ENCODING 9983
SWIDTH 562 0
DWIDTH 6 0
BBX 6 8 0 -1
BITMAP
00
E0
98
E8
98
E8
98
00
ENDCHAR
STARTCHAR char9984
ENCODING 9984
SWIDTH 562 0
DWIDTH 6 0
BBX 6 8 0 -1
BITMAP
D8
D8
F8
70
F8
A8
F8
00
ENDCHAR
STARTCHAR char9985
ENCODING 9985
SWIDTH 562 0
DWIDTH 6 0
BBX 6 8 0 -1
BITMAP
00
00
C0
A0
F8
B0
C0
00
ENDCHAR
STARTCHAR char9986
ENCODING 9986
SWIDTH 562 0
DWIDTH 6 0
BBX 6 8 0 -1
BITMAP
50
50
70
20
F8
A8
F8
00
ENDCHAR
STARTCHAR char9985
ENCODING 9987
SWIDTH 562 0
DWIDTH 6 0
BBX 6 8 0 -1
BITMAP
00
00
C0
B0
F8
A0
C0
00
ENDCHAR
STARTCHAR char9986
ENCODING 9988
SWIDTH 562 0
DWIDTH 6 0
BBX 6 8 0 -1
BITMAP
50
50
70
20
F8
A8
F8
00
ENDCHAR
STARTCHAR char9992
ENCODING 9992
SWIDTH 562 0
DWIDTH 6 0
BBX 6 8 0 -1
BITMAP
00
20
30
B0
F8
B0
30
20
ENDCHAR
STARTCHAR char9993
ENCODING 9993
SWIDTH 562 0
DWIDTH 6 0
BBX 6 8 0 -1
BITMAP
00
00
F8
D8
A8
88
F8
00
ENDCHAR
STARTCHAR char9994
ENCODING 9994
SWIDTH 562 0
DWIDTH 6 0
BBX 6 8 0 -1
BITMAP
00
78
F8
F8
70
70
70
00
ENDCHAR
STARTCHAR char9995
ENCODING 9995
SWIDTH 562 0
DWIDTH 6 0
BBX 6 8 0 -1
BITMAP
00
60
E0
E8
F8
F8
70
70
ENDCHAR
STARTCHAR char9996
ENCODING 9996
SWIDTH 562 0
DWIDTH 6 0
BBX 6 8 0 -1
BITMAP
00
48
28
78
F8
F8
70
70
ENDCHAR
STARTCHAR char10064
ENCODING 10064
SWIDTH 562 0
DWIDTH 6 0
BBX 6 8 0 -1
BITMAP
00
00
F0
98
98
F8
78
00
ENDCHAR
STARTCHAR char10064
ENCODING 10065
SWIDTH 562 0
DWIDTH 6 0
BBX 6 8 0 -1
BITMAP
00
00
78
F8
98
98
F0
00
ENDCHAR
STARTCHAR char10064
ENCODING 10066
SWIDTH 562 0
DWIDTH 6 0
BBX 6 8 0 -1
BITMAP
00
00
F0
98
98
F8
78
00
ENDCHAR
STARTCHAR char10064
ENCODING 10067
SWIDTH 562 0
DWIDTH 6 0
BBX 6 8 0 -1
BITMAP
00
00
78
F8
98
98
F0
00
ENDCHAR
STARTCHAR char9312
ENCODING 10102
SWIDTH 562 0
DWIDTH 6 0
BBX 6 8 0 -1
BITMAP
00
F8
D8
98
D8
D8
D8
F8
ENDCHAR
STARTCHAR char9313
ENCODING 10103
SWIDTH 562 0
DWIDTH 6 0
BBX 6 8 0 -1
BITMAP
00
F8
88
E8
88
B8
88
F8
ENDCHAR
STARTCHAR char9314
ENCODING 10104
SWIDTH 562 0
DWIDTH 6 0
BBX 6 8 0 -1
BITMAP
00
F8
88
E8
88
E8
88
F8
ENDCHAR
STARTCHAR char9315
ENCODING 10105
SWIDTH 562 0
DWIDTH 6 0
BBX 6 8 0 -1
BITMAP
00
F8
A8
A8
88
E8
E8
F8
ENDCHAR
STARTCHAR char9316
ENCODING 10106
SWIDTH 562 0
DWIDTH 6 0
BBX 6 8 0 -1
BITMAP
00
F8
88
B8
88
E8
88
F8
ENDCHAR
STARTCHAR char9317
ENCODING 10107
SWIDTH 562 0
DWIDTH 6 0
BBX 6 8 0 -1
BITMAP
00
F8
88
B8
88
A8
88
F8
ENDCHAR
STARTCHAR char9318
ENCODING 10108
SWIDTH 562 0
DWIDTH 6 0
BBX 6 8 0 -1
BITMAP
00
F8
88
E8
E8
E8
E8
F8
ENDCHAR
STARTCHAR char9319
ENCODING 10109
SWIDTH 562 0
DWIDTH 6 0
BBX 6 8 0 -1
BITMAP
00
F8
88
A8
88
A8
88
F8
ENDCHAR
STARTCHAR char9320
ENCODING 10110
SWIDTH 562 0
DWIDTH 6 0
BBX 6 8 0 -1
BITMAP
00
F8
88
A8
88
E8
88
F8
ENDCHAR
STARTCHAR char9321
ENCODING 10111
SWIDTH 562 0
DWIDTH 6 0
BBX 6 8 0 -1
BITMAP
00
F8
B8
B8
F8
C8
C8
F8
ENDCHAR
STARTCHAR char9312
ENCODING 10112
SWIDTH 562 0
DWIDTH 6 0
BBX 6 8 0 -1
BITMAP
00
F8
D8
98
D8
D8
D8
F8
ENDCHAR
STARTCHAR char9313
ENCODING 10113
SWIDTH 562 0
DWIDTH 6 0
BBX 6 8 0 -1
BITMAP
00
F8
88
E8
88
B8
88
F8
ENDCHAR
STARTCHAR char9314
ENCODING 10114
SWIDTH 562 0
DWIDTH 6 0
BBX 6 8 0 -1
BITMAP
00
F8
88
E8
88
E8
88
F8
ENDCHAR
STARTCHAR char9315
ENCODING 10115
SWIDTH 562 0
DWIDTH 6 0
BBX 6 8 0 -1
BITMAP
00
F8
A8
A8
88
E8
E8
F8
ENDCHAR
STARTCHAR char9316
ENCODING 10116
SWIDTH 562 0
DWIDTH 6 0
BBX 6 8 0 -1
BITMAP
00
F8
88
B8
88
E8
88
F8
ENDCHAR
STARTCHAR char9317
ENCODING 10117
SWIDTH 562 0
DWIDTH 6 0
BBX 6 8 0 -1
BITMAP
00
F8
88
B8
88
A8
88
F8
ENDCHAR
STARTCHAR char9318
ENCODING 10118
SWIDTH 562 0
DWIDTH 6 0
BBX 6 8 0 -1
BITMAP
00
F8
88
E8
E8
E8
E8
F8
ENDCHAR
STARTCHAR char9319
ENCODING 10119
SWIDTH 562 0
DWIDTH 6 0
BBX 6 8 0 -1
BITMAP
00
F8
88
A8
88
A8
88
F8
ENDCHAR
STARTCHAR char9320
ENCODING 10120
SWIDTH 562 0
DWIDTH 6 0
BBX 6 8 0 -1
BITMAP
00
F8
88
A8
88
E8
88
F8
ENDCHAR
STARTCHAR char9321
ENCODING 10121
SWIDTH 562 0
DWIDTH 6 0
BBX 6 8 0 -1
BITMAP
00
F8
B8
B8
F8
C8
C8
F8
ENDCHAR
STARTCHAR char9312
ENCODING 10122
SWIDTH 562 0
DWIDTH 6 0
BBX 6 8 0 -1
BITMAP
00
F8
D8
98
D8
D8
D8
F8
ENDCHAR
STARTCHAR char9313
ENCODING 10123
SWIDTH 562 0
DWIDTH 6 0
BBX 6 8 0 -1
BITMAP
00
F8
88
E8
88
B8
88
F8
ENDCHAR
STARTCHAR char9314
ENCODING 10124
SWIDTH 562 0
DWIDTH 6 0
BBX 6 8 0 -1
BITMAP
00
F8
88
E8
88
E8
88
F8
ENDCHAR
STARTCHAR char9315
ENCODING 10125
SWIDTH 562 0
DWIDTH 6 0
BBX 6 8 0 -1
BITMAP
00
F8
A8
A8
88
E8
E8
F8
ENDCHAR
STARTCHAR char9316
ENCODING 10126
SWIDTH 562 0
DWIDTH 6 0
BBX 6 8 0 -1
BITMAP
00
F8
88
B8
88
E8
88
F8
ENDCHAR
STARTCHAR char9317
ENCODING 10127
SWIDTH 562 0
DWIDTH 6 0
BBX 6 8 0 -1
BITMAP
00
F8
88
B8
88
A8
88
F8
ENDCHAR
STARTCHAR char9318
ENCODING 10128
SWIDTH 562 0
DWIDTH 6 0
BBX 6 8 0 -1
BITMAP
00
F8
88
E8
E8
E8
E8
F8
ENDCHAR
STARTCHAR char9319
ENCODING 10129
SWIDTH 562 0
DWIDTH 6 0
BBX 6 8 0 -1
BITMAP
00
F8
88
A8
88
A8
88
F8
ENDCHAR
STARTCHAR char9320
ENCODING 10130
SWIDTH 562 0
DWIDTH 6 0
BBX 6 8 0 -1
BITMAP
00
F8
88
A8
88
E8
88
F8
ENDCHAR
STARTCHAR char9321
ENCODING 10131
SWIDTH 562 0
DWIDTH 6 0
BBX 6 8 0 -1
BITMAP
00
F8
B8
B8
F8
C8
C8
F8
ENDCHAR
STARTCHAR char65535
ENCODING 65535
SWIDTH 562 0
DWIDTH 6 0
BBX 6 8 0 -1
BITMAP
00
F8
88
E8
C8
F8
D8
F8
ENDCHAR
ENDFONT
